Kreon-Regular.ufo
<glyph name="exclam" format="1">
  <advance width="268"/>
  <unicode hex="0021"/>
  <outline>
    <contour>
      <point x="74" y="56" type="qcurve" name="hr00"/>
      <point x="74" y="80"/>
      <point x="108" y="114"/>
      <point x="134" y="114" type="qcurve"/>
      <point x="157" y="114"/>
      <point x="193" y="79"/>
      <point x="193" y="56" type="qcurve"/>
      <point x="193" y="31"/>
      <point x="157" y="-4"/>
      <point x="134" y="-4" type="qcurve"/>
      <point x="108" y="-4"/>
      <point x="74" y="30"/>
    </contour>
    <contour>
      <point x="66" y="677" type="line" name="ah01"/>
      <point x="183" y="690" type="line" name="ah02"/>
      <point x="204" y="652" type="line"/>
      <point x="167" y="237" type="line"/>
      <point x="98" y="237" type="line"/>
    </contour>
  </outline>
</glyph>
<glyph name="quotedbl" format="1">
  <advance width="323"/>
  <unicode hex="0022"/>
  <outline>
    <contour>
      <point x="36" y="689" type="line" name="hr00"/>
      <point x="129" y="699" type="line"/>
      <point x="146" y="669" type="line"/>
      <point x="117" y="467" type="line"/>
      <point x="62" y="467" type="line"/>
    </contour>
    <contour>
      <point x="177" y="689" type="line" name="ah01"/>
      <point x="270" y="699" type="line"/>
      <point x="287" y="669" type="line"/>
      <point x="258" y="467" type="line"/>
      <point x="203" y="467" type="line"/>
    </contour>
  </outline>
</glyph>
<glyph name="dollar" format="1">
  <advance width="482"/>
  <unicode hex="0024"/>
  <outline>
    <contour>
      <point x="198" y="-192" type="line" name="hr00"/>
      <point x="198" y="-3" type="line"/>
      <point x="154" y="-1"/>
      <point x="75" y="18"/>
      <point x="43" y="34" type="qcurve" name="mh01"/>
      <point x="43" y="203" type="line" name="ah09"/>
      <point x="115" y="203" type="line"/>
      <point x="133" y="96" type="line" name="mh02"/>
      <point x="149" y="90"/>
      <point x="194" y="80"/>
      <point x="219" y="80" type="qcurve" name="ah05"/>
      <point x="244" y="80"/>
      <point x="290" y="92"/>
      <point x="326" y="117"/>
      <point x="348" y="155"/>
      <point x="348" y="182" type="qcurve" name="ah12"/>
      <point x="348" y="216"/>
      <point x="311" y="265"/>
      <point x="266" y="288" type="qcurve" name="ah11"/>
      <point x="226" y="307"/>
      <point x="143" y="341"/>
      <point x="76" y="388" name="mh03"/>
      <point x="33" y="457"/>
      <point x="33" y="513" type="qcurve" name="ah07"/>
      <point x="33" y="547"/>
      <point x="58" y="605" name="mh04"/>
      <point x="102" y="649" name="mh05"/>
      <point x="163" y="679"/>
      <point x="198" y="686" type="qcurve" name="mh06"/>
      <point x="198" y="874" type="line" name="ah02"/>
      <point x="288" y="874" type="line" name="ah03"/>
      <point x="288" y="690" type="line" name="mh07"/>
      <point x="324" y="687"/>
      <point x="390" y="672"/>
      <point x="421" y="661" type="qcurve" name="mh08"/>
      <point x="435" y="489" type="line" name="ah10"/>
      <point x="366" y="489" type="line"/>
      <point x="322" y="597" type="line"/>
      <point x="307" y="602"/>
      <point x="271" y="607"/>
      <point x="251" y="607" type="qcurve" name="ah01"/>
      <point x="201" y="607"/>
      <point x="138" y="565"/>
      <point x="138" y="522" type="qcurve" name="ah08"/>
      <point x="138" y="494"/>
      <point x="166" y="454"/>
      <point x="210" y="425" name="mh09"/>
      <point x="264" y="402"/>
      <point x="290" y="390" type="qcurve" name="ah06"/>
      <point x="335" y="370"/>
      <point x="397" y="326"/>
      <point x="435" y="278"/>
      <point x="452" y="225"/>
      <point x="452" y="195" type="qcurve" name="mh10"/>
      <point x="452" y="151"/>
      <point x="426" y="86"/>
      <point x="381" y="39"/>
      <point x="321" y="9"/>
      <point x="288" y="2" type="qcurve"/>
      <point x="288" y="-192" type="line" name="ah04"/>
    </contour>
  </outline>
</glyph>
<glyph name="percent" format="1">
  <advance width="719"/>
  <unicode hex="0025"/>
  <outline>
    <contour>
      <point x="31" y="518" type="qcurve" name="mh01"/>
      <point x="31" y="547"/>
      <point x="48" y="608"/>
      <point x="82" y="658"/>
      <point x="136" y="690"/>
      <point x="172" y="690" type="qcurve" name="ah01"/>
      <point x="207" y="690"/>
      <point x="260" y="662"/>
      <point x="295" y="614"/>
      <point x="313" y="552"/>
      <point x="313" y="518" type="qcurve" name="mh02"/>
      <point x="313" y="481"/>
      <point x="293" y="417"/>
      <point x="256" y="369"/>
      <point x="204" y="342"/>
      <point x="172" y="342" type="qcurve"/>
      <point x="134" y="342"/>
      <point x="81" y="374"/>
      <point x="47" y="425"/>
      <point x="31" y="487"/>
    </contour>
    <contour>
      <point x="105" y="518" type="qcurve" name="mh03"/>
      <point x="105" y="471"/>
      <point x="142" y="408"/>
      <point x="172" y="408" type="qcurve" name="mh04"/>
      <point x="202" y="408"/>
      <point x="238" y="472"/>
      <point x="238" y="518" type="qcurve" name="mh05"/>
      <point x="238" y="563"/>
      <point x="203" y="625"/>
      <point x="172" y="625" type="qcurve" name="ah02"/>
      <point x="140" y="625"/>
      <point x="105" y="562"/>
    </contour>
    <contour>
      <point x="408" y="170" type="qcurve" name="mh06"/>
      <point x="408" y="200"/>
      <point x="425" y="262"/>
      <point x="459" y="311"/>
      <point x="512" y="343"/>
      <point x="548" y="343" type="qcurve" name="ah03"/>
      <point x="584" y="343"/>
      <point x="637" y="314"/>
      <point x="672" y="266"/>
      <point x="689" y="204"/>
      <point x="689" y="170" type="qcurve" name="mh07"/>
      <point x="689" y="133"/>
      <point x="669" y="70"/>
      <point x="633" y="23"/>
      <point x="581" y="-4"/>
      <point x="548" y="-4" type="qcurve" name="mh08"/>
      <point x="511" y="-4"/>
      <point x="458" y="28"/>
      <point x="424" y="78"/>
      <point x="408" y="140"/>
    </contour>
    <contour>
      <point x="483" y="170" type="qcurve" name="mh09"/>
      <point x="483" y="123"/>
      <point x="519" y="61"/>
      <point x="548" y="61" type="qcurve" name="mh10"/>
      <point x="579" y="61"/>
      <point x="614" y="124"/>
      <point x="614" y="170" type="qcurve" name="mh11"/>
      <point x="614" y="216"/>
      <point x="579" y="278"/>
      <point x="548" y="278" type="qcurve" name="ah04"/>
      <point x="516" y="278"/>
      <point x="483" y="215"/>
    </contour>
    <contour>
      <point x="94" y="0" type="line"/>
      <point x="88" y="13" type="line" name="ah06"/>
      <point x="531" y="691" type="line" name="ah05"/>
      <point x="615" y="691" type="line" name="ah08"/>
      <point x="616" y="688"/>
      <point x="617" y="680" name="ah09"/>
      <point x="619" y="677" type="qcurve"/>
      <point x="181" y="0" type="line" name="ah07"/>
    </contour>
  </outline>
</glyph>
<glyph name="ampersand" format="1">
  <advance width="672"/>
  <unicode hex="0026"/>
  <outline>
    <contour>
      <point x="578" y="-3" type="qcurve" name="hr00"/>
      <point x="538" y="-3"/>
      <point x="466" y="34"/>
      <point x="431" y="64" type="qcurve"/>
      <point x="400" y="35"/>
      <point x="314" y="-4"/>
      <point x="253" y="-4" type="qcurve"/>
      <point x="204" y="-4"/>
      <point x="123" y="28"/>
      <point x="64" y="84"/>
      <point x="32" y="159"/>
      <point x="32" y="201" type="qcurve"/>
      <point x="32" y="234"/>
      <point x="53" y="292"/>
      <point x="88" y="343"/>
      <point x="134" y="388"/>
      <point x="158" y="407" type="qcurve"/>
      <point x="134" y="448"/>
      <point x="104" y="528"/>
      <point x="104" y="563" type="qcurve" name="hr01"/>
      <point x="104" y="599"/>
      <point x="128" y="660"/>
      <point x="173" y="705"/>
      <point x="234" y="731"/>
      <point x="272" y="731" type="qcurve"/>
      <point x="340" y="731"/>
      <point x="420" y="652"/>
      <point x="420" y="591" type="qcurve"/>
      <point x="420" y="563"/>
      <point x="399" y="509"/>
      <point x="363" y="459"/>
      <point x="317" y="413"/>
      <point x="292" y="392" type="qcurve"/>
      <point x="311" y="366"/>
      <point x="355" y="310"/>
      <point x="381" y="280" type="qcurve"/>
      <point x="433" y="218" type="line"/>
      <point x="459" y="272"/>
      <point x="471" y="328" type="qcurve"/>
      <point x="426" y="328" type="line"/>
      <point x="410" y="398" type="line"/>
      <point x="566" y="398" type="line"/>
      <point x="577" y="384" type="line"/>
      <point x="576" y="378" type="line"/>
      <point x="572" y="358"/>
      <point x="560" y="305"/>
      <point x="543" y="247"/>
      <point x="519" y="188"/>
      <point x="504" y="161" type="qcurve"/>
      <point x="496" y="148" type="line" name="hr02"/>
      <point x="521" y="122"/>
      <point x="562" y="84"/>
      <point x="573" y="81" type="qcurve"/>
      <point x="576" y="82"/>
      <point x="582" y="86"/>
      <point x="594" y="95"/>
      <point x="604" y="102" type="qcurve"/>
      <point x="633" y="121" type="line"/>
      <point x="675" y="29" type="line"/>
      <point x="662" y="18"/>
      <point x="613" y="-3"/>
    </contour>
    <contour>
      <point x="254" y="82" type="qcurve"/>
      <point x="287" y="82"/>
      <point x="344" y="106"/>
      <point x="367" y="128" type="qcurve"/>
      <point x="337" y="163"/>
      <point x="280" y="236"/>
      <point x="254" y="270" type="qcurve"/>
      <point x="242" y="285"/>
      <point x="216" y="319"/>
      <point x="203" y="337" type="qcurve"/>
      <point x="172" y="307"/>
      <point x="136" y="244"/>
      <point x="136" y="203" type="qcurve"/>
      <point x="136" y="149"/>
      <point x="203" y="82"/>
    </contour>
    <contour>
      <point x="199" y="583" type="qcurve"/>
      <point x="199" y="535"/>
      <point x="247" y="457" type="qcurve"/>
      <point x="282" y="489"/>
      <point x="325" y="559"/>
      <point x="325" y="591" type="qcurve"/>
      <point x="325" y="623"/>
      <point x="290" y="656"/>
      <point x="264" y="656" type="qcurve"/>
      <point x="231" y="656"/>
      <point x="199" y="611"/>
    </contour>
  </outline>
</glyph>
<glyph name="parenleft" format="1">
  <advance width="276"/>
  <unicode hex="0028"/>
  <outline>
    <contour>
      <point x="153" y="-147" type="line" name="hr00"/>
      <point x="139" y="-119"/>
      <point x="104" y="-31"/>
      <point x="73" y="81"/>
      <point x="51" y="215"/>
      <point x="51" y="290" type="qcurve"/>
      <point x="51" y="371"/>
      <point x="73" y="510"/>
      <point x="105" y="624"/>
      <point x="143" y="712"/>
      <point x="160" y="742" type="qcurve"/>
      <point x="244" y="742" type="line"/>
      <point x="227" y="708"/>
      <point x="192" y="614"/>
      <point x="164" y="500"/>
      <point x="146" y="366"/>
      <point x="146" y="291" type="qcurve"/>
      <point x="146" y="214"/>
      <point x="167" y="77"/>
      <point x="197" y="-38"/>
      <point x="231" y="-130"/>
      <point x="244" y="-162" type="qcurve"/>
      <point x="160" y="-162" type="line"/>
    </contour>
  </outline>
</glyph>
<glyph name="parenright" format="1">
  <advance width="276"/>
  <unicode hex="0029"/>
  <outline>
    <contour>
      <point x="116" y="-162" type="line" name="hr00"/>
      <point x="32" y="-162" type="line"/>
      <point x="45" y="-130"/>
      <point x="79" y="-38"/>
      <point x="109" y="77"/>
      <point x="130" y="214"/>
      <point x="130" y="291" type="qcurve"/>
      <point x="130" y="366"/>
      <point x="112" y="500"/>
      <point x="84" y="614"/>
      <point x="49" y="708"/>
      <point x="32" y="742" type="qcurve"/>
      <point x="116" y="742" type="line"/>
      <point x="132" y="712"/>
      <point x="171" y="624"/>
      <point x="203" y="510"/>
      <point x="225" y="371"/>
      <point x="225" y="290" type="qcurve" name="ah01"/>
      <point x="225" y="215"/>
      <point x="203" y="81"/>
      <point x="172" y="-31"/>
      <point x="136" y="-119"/>
      <point x="123" y="-147" type="qcurve"/>
    </contour>
  </outline>
</glyph>
<glyph name="hyphen" format="1">
  <advance width="399"/>
  <unicode hex="002D"/>
  <outline>
    <contour>
      <point x="58" y="244" type="line" name="hr00"/>
      <point x="341" y="244" type="line"/>
      <point x="341" y="311" type="line" smooth="yes"/>
      <point x="341" y="315"/>
      <point x="339" y="319"/>
      <point x="335" y="319" type="curve" smooth="yes"/>
      <point x="70" y="319" type="line"/>
      <point x="58" y="305" type="line"/>
    </contour>
  </outline>
</glyph>
<glyph name="slash" format="1">
  <advance width="461"/>
  <unicode hex="002F"/>
  <outline>
    <contour>
      <point x="111" y="0" type="line" name="hr00"/>
      <point x="439" y="676" type="line"/>
      <point x="439" y="680"/>
      <point x="440" y="686"/>
      <point x="440" y="690" type="curve"/>
      <point x="350" y="690" type="line"/>
      <point x="22" y="13" type="line"/>
      <point x="25" y="0" type="line"/>
    </contour>
  </outline>
</glyph>
<glyph name="zero" format="1">
  <advance width="583"/>
  <unicode hex="0030"/>
  <outline>
    <contour>
      <point x="46" y="343" type="qcurve" name="hr00"/>
      <point x="46" y="408" name="mh01"/>
      <point x="69" y="533" name="mh02"/>
      <point x="126" y="630"/>
      <point x="220" y="690" name="mh03"/>
      <point x="291" y="690" type="qcurve" name="mh04"/>
      <point x="362" y="690"/>
      <point x="456" y="630"/>
      <point x="513" y="533" name="mh05"/>
      <point x="537" y="408"/>
      <point x="537" y="343" type="qcurve" name="mh06"/>
      <point x="537" y="278"/>
      <point x="513" y="154"/>
      <point x="456" y="56"/>
      <point x="362" y="-4"/>
      <point x="291" y="-4" type="qcurve" name="mv01"/>
      <point x="220" y="-4" name="mh07"/>
      <point x="126" y="56"/>
      <point x="69" y="154" name="mh08"/>
      <point x="46" y="278"/>
    </contour>
    <contour>
      <point x="151" y="343" type="qcurve" name="mh09"/>
      <point x="151" y="289"/>
      <point x="167" y="193"/>
      <point x="201" y="123"/>
      <point x="254" y="82"/>
      <point x="291" y="82" type="qcurve" name="mv02"/>
      <point x="328" y="82"/>
      <point x="382" y="123"/>
      <point x="416" y="193"/>
      <point x="432" y="289"/>
      <point x="432" y="343" type="qcurve" name="mh10"/>
      <point x="432" y="397"/>
      <point x="416" y="493"/>
      <point x="382" y="563" name="mh11"/>
      <point x="328" y="604"/>
      <point x="291" y="604" type="qcurve" name="mh12"/>
      <point x="253" y="604"/>
      <point x="200" y="563"/>
      <point x="167" y="493" name="mh13"/>
      <point x="151" y="397"/>
    </contour>
  </outline>
</glyph>
<glyph name="two" format="1">
  <advance width="518"/>
  <unicode hex="0032"/>
  <outline>
    <contour>
      <point x="40" y="69" type="line" name="mh01"/>
      <point x="60" y="91"/>
      <point x="120" y="154"/>
      <point x="187" y="229"/>
      <point x="255" y="311" name="mh02"/>
      <point x="310" y="392"/>
      <point x="345" y="468" name="mh03"/>
      <point x="347" y="500" type="qcurve"/>
      <point x="347" y="507" type="line"/>
      <point x="347" y="533"/>
      <point x="328" y="570"/>
      <point x="299" y="593"/>
      <point x="263" y="604"/>
      <point x="245" y="604" type="qcurve"/>
      <point x="214" y="604"/>
      <point x="173" y="586"/>
      <point x="161" y="578" type="qcurve"/>
      <point x="134" y="494" type="line"/>
      <point x="22" y="554" type="line" name="mh04"/>
      <point x="57" y="618"/>
      <point x="172" y="690"/>
      <point x="244" y="690" type="qcurve" name="mh05"/>
      <point x="284" y="690"/>
      <point x="359" y="670"/>
      <point x="417" y="627"/>
      <point x="452" y="559"/>
      <point x="452" y="510" type="qcurve"/>
      <point x="452" y="474" name="mh06"/>
      <point x="422" y="395"/>
      <point x="373" y="316"/>
      <point x="312" y="238"/>
      <point x="250" y="167"/>
      <point x="193" y="108"/>
      <point x="174" y="86" type="qcurve" name="mv01"/>
      <point x="375" y="86" type="line"/>
      <point x="414" y="193" type="line"/>
      <point x="480" y="193" type="line"/>
      <point x="459" y="0" type="line"/>
      <point x="52" y="0" type="line"/>
    </contour>
  </outline>
</glyph>
<glyph name="three" format="1">
  <advance width="523"/>
  <unicode hex="0033"/>
  <outline>
    <contour>
      <point x="85" y="144" type="line" name="hr00"/>
      <point x="118" y="116"/>
      <point x="194" y="82"/>
      <point x="241" y="82" type="qcurve"/>
      <point x="307" y="82"/>
      <point x="370" y="144"/>
      <point x="370" y="189" type="qcurve"/>
      <point x="370" y="219"/>
      <point x="343" y="263"/>
      <point x="298" y="292"/>
      <point x="238" y="305"/>
      <point x="205" y="305" type="qcurve"/>
      <point x="154" y="305" type="line"/>
      <point x="154" y="391" type="line"/>
      <point x="200" y="391"/>
      <point x="276" y="399"/>
      <point x="331" y="423"/>
      <point x="362" y="469"/>
      <point x="362" y="507" type="qcurve"/>
      <point x="362" y="533"/>
      <point x="344" y="570"/>
      <point x="314" y="594"/>
      <point x="273" y="605"/>
      <point x="251" y="605" type="qcurve"/>
      <point x="222" y="605"/>
      <point x="179" y="588"/>
      <point x="165" y="580" type="qcurve"/>
      <point x="128" y="498" type="line"/>
      <point x="27" y="556" type="line"/>
      <point x="62" y="620"/>
      <point x="183" y="690"/>
      <point x="267" y="690" type="qcurve"/>
      <point x="304" y="690"/>
      <point x="375" y="668"/>
      <point x="432" y="624"/>
      <point x="467" y="558"/>
      <point x="467" y="513" type="qcurve"/>
      <point x="467" y="456"/>
      <point x="406" y="373"/>
      <point x="355" y="355" type="qcurve"/>
      <point x="373" y="349"/>
      <point x="415" y="323"/>
      <point x="451" y="283"/>
      <point x="475" y="229"/>
      <point x="475" y="195" type="qcurve"/>
      <point x="475" y="143"/>
      <point x="434" y="68"/>
      <point x="369" y="19"/>
      <point x="286" y="-4"/>
      <point x="244" y="-4" type="qcurve"/>
      <point x="172" y="-4"/>
      <point x="66" y="36"/>
      <point x="32" y="64" type="qcurve"/>
    </contour>
  </outline>
</glyph>
<glyph name="five" format="1">
  <advance width="502"/>
  <unicode hex="0035"/>
  <outline>
    <contour>
      <point x="430" y="690" type="line" name="hr00"/>
      <point x="430" y="604" type="line"/>
      <point x="174" y="604" type="line"/>
      <point x="174" y="460" type="line"/>
      <point x="198" y="460" type="line"/>
      <point x="215" y="460"/>
      <point x="235" y="459" type="qcurve"/>
      <point x="278" y="457"/>
      <point x="362" y="429"/>
      <point x="428" y="374"/>
      <point x="469" y="292"/>
      <point x="469" y="235" type="qcurve"/>
      <point x="469" y="182"/>
      <point x="427" y="94"/>
      <point x="355" y="31"/>
      <point x="261" y="-4"/>
      <point x="209" y="-4" type="qcurve"/>
      <point x="148" y="-4"/>
      <point x="51" y="36"/>
      <point x="19" y="65" type="qcurve"/>
      <point x="68" y="142" type="line"/>
      <point x="96" y="116"/>
      <point x="169" y="82"/>
      <point x="215" y="82" type="qcurve"/>
      <point x="248" y="82"/>
      <point x="302" y="104"/>
      <point x="342" y="143"/>
      <point x="364" y="196"/>
      <point x="364" y="228" type="qcurve"/>
      <point x="364" y="271"/>
      <point x="333" y="328"/>
      <point x="281" y="362"/>
      <point x="213" y="375"/>
      <point x="176" y="375" type="qcurve"/>
      <point x="165" y="375"/>
      <point x="137" y="374"/>
      <point x="110" y="372"/>
      <point x="86" y="370"/>
      <point x="79" y="369" type="qcurve"/>
      <point x="79" y="658" type="line"/>
      <point x="111" y="690" type="line"/>
    </contour>
  </outline>
</glyph>
<glyph name="six" format="1">
  <advance width="557"/>
  <unicode hex="0036"/>
  <outline>
    <contour>
      <point x="315" y="696" type="qcurve" name="hr00"/>
      <point x="356" y="696"/>
      <point x="421" y="675"/>
      <point x="469" y="645"/>
      <point x="500" y="611"/>
      <point x="509" y="598" type="qcurve"/>
      <point x="414" y="531" type="line"/>
      <point x="364" y="602" type="line"/>
      <point x="361" y="603" type="line"/>
      <point x="350" y="607"/>
      <point x="332" y="610"/>
      <point x="318" y="610" type="qcurve"/>
      <point x="283" y="610"/>
      <point x="224" y="573"/>
      <point x="180" y="508"/>
      <point x="152" y="421"/>
      <point x="149" y="372" type="qcurve"/>
      <point x="172" y="398"/>
      <point x="249" y="437"/>
      <point x="301" y="437" type="qcurve"/>
      <point x="347" y="437"/>
      <point x="427" y="408"/>
      <point x="485" y="352"/>
      <point x="518" y="271"/>
      <point x="518" y="220" type="qcurve" name="hr01"/>
      <point x="518" y="175"/>
      <point x="487" y="94"/>
      <point x="429" y="33"/>
      <point x="348" y="-4"/>
      <point x="299" y="-4" type="qcurve"/>
      <point x="228" y="-4"/>
      <point x="131" y="58"/>
      <point x="70" y="156"/>
      <point x="43" y="279"/>
      <point x="43" y="339" type="qcurve"/>
      <point x="43" y="412"/>
      <point x="80" y="542"/>
      <point x="150" y="639"/>
      <point x="251" y="696"/>
    </contour>
    <contour>
      <point x="294" y="352" type="qcurve"/>
      <point x="266" y="352"/>
      <point x="219" y="330"/>
      <point x="185" y="292"/>
      <point x="165" y="240"/>
      <point x="164" y="210" type="qcurve"/>
      <point x="171" y="184"/>
      <point x="193" y="137"/>
      <point x="225" y="102"/>
      <point x="267" y="82"/>
      <point x="294" y="82" type="qcurve"/>
      <point x="325" y="82"/>
      <point x="370" y="104"/>
      <point x="399" y="142"/>
      <point x="413" y="191"/>
      <point x="413" y="217" type="qcurve"/>
      <point x="413" y="246"/>
      <point x="395" y="296"/>
      <point x="363" y="332"/>
      <point x="319" y="352"/>
    </contour>
  </outline>
</glyph>
<glyph name="seven" format="1">
  <advance width="444"/>
  <unicode hex="0037"/>
  <outline>
    <contour>
      <point x="90" y="483" type="line" name="hr02"/>
      <point x="27" y="483" type="line" name="hr01"/>
      <point x="27" y="690" type="line" name="mh01"/>
      <point x="421" y="690" type="line"/>
      <point x="439" y="664" type="line"/>
      <point x="230" y="0" type="line"/>
      <point x="127" y="0" type="line"/>
      <point x="122" y="27" type="line"/>
      <point x="341" y="604" type="line"/>
      <point x="115" y="604" type="line"/>
    </contour>
  </outline>
</glyph>
<glyph name="eight" format="1">
  <advance width="532"/>
  <unicode hex="0038"/>
  <outline>
    <contour>
      <point x="72" y="526" type="qcurve" name="hr00"/>
      <point x="72" y="563"/>
      <point x="107" y="626"/>
      <point x="163" y="671"/>
      <point x="233" y="696"/>
      <point x="268" y="696" type="qcurve" name="mh01"/>
      <point x="304" y="696"/>
      <point x="374" y="673"/>
      <point x="429" y="630"/>
      <point x="463" y="568"/>
      <point x="463" y="528" type="qcurve"/>
      <point x="463" y="501"/>
      <point x="447" y="458"/>
      <point x="420" y="422"/>
      <point x="385" y="393"/>
      <point x="366" y="380" type="qcurve"/>
      <point x="391" y="365"/>
      <point x="437" y="331"/>
      <point x="471" y="287"/>
      <point x="491" y="230"/>
      <point x="491" y="194" type="qcurve"/>
      <point x="491" y="149"/>
      <point x="453" y="76"/>
      <point x="391" y="23"/>
      <point x="310" y="-5"/>
      <point x="267" y="-5" type="qcurve"/>
      <point x="224" y="-5"/>
      <point x="142" y="19"/>
      <point x="79" y="66"/>
      <point x="41" y="137"/>
      <point x="41" y="184" type="qcurve"/>
      <point x="41" y="216"/>
      <point x="60" y="272"/>
      <point x="93" y="319"/>
      <point x="138" y="356"/>
      <point x="163" y="370" type="qcurve"/>
      <point x="125" y="395"/>
      <point x="72" y="468"/>
    </contour>
    <contour>
      <point x="146" y="187" type="qcurve"/>
      <point x="146" y="159"/>
      <point x="170" y="119"/>
      <point x="206" y="93"/>
      <point x="248" y="81"/>
      <point x="267" y="81" type="qcurve"/>
      <point x="293" y="81"/>
      <point x="337" y="98"/>
      <point x="368" y="127"/>
      <point x="386" y="165"/>
      <point x="386" y="186" type="qcurve"/>
      <point x="386" y="213"/>
      <point x="362" y="254"/>
      <point x="322" y="287"/>
      <point x="271" y="313"/>
      <point x="243" y="327" type="qcurve"/>
      <point x="201" y="304"/>
      <point x="146" y="237"/>
    </contour>
    <contour>
      <point x="358" y="532" type="qcurve"/>
      <point x="358" y="562"/>
      <point x="308" y="610"/>
      <point x="267" y="610" type="qcurve"/>
      <point x="228" y="610"/>
      <point x="177" y="565"/>
      <point x="177" y="533" type="qcurve"/>
      <point x="177" y="510"/>
      <point x="196" y="476"/>
      <point x="226" y="451"/>
      <point x="264" y="431"/>
      <point x="284" y="422" type="qcurve"/>
      <point x="316" y="442"/>
      <point x="358" y="491"/>
    </contour>
  </outline>
</glyph>
<glyph name="nine" format="1">
  <advance width="543"/>
  <unicode hex="0039"/>
  <outline>
    <contour>
      <point x="243" y="82" type="qcurve" name="hr00"/>
      <point x="279" y="82"/>
      <point x="332" y="114"/>
      <point x="368" y="172"/>
      <point x="388" y="252"/>
      <point x="391" y="300" type="qcurve"/>
      <point x="361" y="271"/>
      <point x="284" y="245"/>
      <point x="255" y="245" type="qcurve"/>
      <point x="210" y="245"/>
      <point x="132" y="273"/>
      <point x="75" y="327"/>
      <point x="43" y="406"/>
      <point x="43" y="458" type="qcurve"/>
      <point x="43" y="505"/>
      <point x="72" y="591"/>
      <point x="128" y="656"/>
      <point x="212" y="694"/>
      <point x="268" y="694" type="qcurve" name="mh01"/>
      <point x="334" y="694"/>
      <point x="422" y="631"/>
      <point x="476" y="529"/>
      <point x="498" y="402"/>
      <point x="498" y="338" type="qcurve"/>
      <point x="498" y="271"/>
      <point x="467" y="147"/>
      <point x="406" y="53"/>
      <point x="312" y="-4"/>
      <point x="249" y="-4" type="qcurve"/>
      <point x="208" y="-4"/>
      <point x="142" y="11"/>
      <point x="91" y="32"/>
      <point x="54" y="56"/>
      <point x="42" y="65" type="qcurve"/>
      <point x="98" y="143" type="line"/>
      <point x="136" y="110"/>
      <point x="206" y="82"/>
    </contour>
    <contour>
      <point x="263" y="331" type="qcurve"/>
      <point x="283" y="331"/>
      <point x="325" y="346"/>
      <point x="359" y="376"/>
      <point x="383" y="419"/>
      <point x="385" y="447" type="qcurve"/>
      <point x="380" y="480"/>
      <point x="361" y="538"/>
      <point x="331" y="582"/>
      <point x="289" y="608"/>
      <point x="261" y="608" type="qcurve"/>
      <point x="212" y="608"/>
      <point x="148" y="536"/>
      <point x="148" y="467" type="qcurve"/>
      <point x="148" y="432"/>
      <point x="167" y="380"/>
      <point x="198" y="347"/>
      <point x="240" y="331"/>
    </contour>
  </outline>
</glyph>
<glyph name="colon" format="1">
  <advance width="235"/>
  <unicode hex="003A"/>
  <outline>
    <contour>
      <point x="58" y="432" type="qcurve" name="hr00"/>
      <point x="58" y="456"/>
      <point x="93" y="491"/>
      <point x="118" y="491" type="qcurve"/>
      <point x="142" y="491"/>
      <point x="177" y="455"/>
      <point x="177" y="432" type="qcurve"/>
      <point x="177" y="406"/>
      <point x="142" y="372"/>
      <point x="118" y="372" type="qcurve"/>
      <point x="92" y="372"/>
      <point x="58" y="407"/>
    </contour>
    <contour>
      <point x="58" y="196" type="qcurve"/>
      <point x="58" y="220"/>
      <point x="93" y="254"/>
      <point x="118" y="254" type="qcurve"/>
      <point x="142" y="254"/>
      <point x="177" y="219"/>
      <point x="177" y="196" type="qcurve"/>
      <point x="177" y="171"/>
      <point x="142" y="136"/>
      <point x="118" y="136" type="qcurve"/>
      <point x="93" y="136"/>
      <point x="58" y="170"/>
    </contour>
  </outline>
</glyph>
<glyph name="semicolon" format="1">
  <advance width="244"/>
  <unicode hex="003B"/>
  <outline>
    <contour>
      <point x="57" y="332" type="qcurve" name="hr00"/>
      <point x="57" y="356"/>
      <point x="92" y="391"/>
      <point x="117" y="391" type="qcurve" name="mh01"/>
      <point x="141" y="391"/>
      <point x="176" y="355"/>
      <point x="176" y="332" type="qcurve"/>
      <point x="176" y="306"/>
      <point x="141" y="272"/>
      <point x="117" y="272" type="qcurve"/>
      <point x="91" y="272"/>
      <point x="57" y="307"/>
    </contour>
    <contour>
      <point x="44" y="-103" type="line"/>
      <point x="94" y="-1" type="line"/>
      <point x="68" y="114" type="line"/>
      <point x="173" y="133" type="line"/>
      <point x="175" y="125"/>
      <point x="184" y="80"/>
      <point x="184" y="57" type="qcurve"/>
      <point x="184" y="24"/>
      <point x="167" y="-38"/>
      <point x="141" y="-91"/>
      <point x="110" y="-133"/>
      <point x="96" y="-147" type="qcurve"/>
      <point x="44" y="-117" type="line"/>
    </contour>
  </outline>
</glyph>
<glyph name="question" format="1">
  <advance width="408"/>
  <unicode hex="003F"/>
  <outline>
    <contour>
      <point x="94" y="56" type="qcurve" name="hr00"/>
      <point x="94" y="80"/>
      <point x="128" y="114"/>
      <point x="154" y="114" type="qcurve"/>
      <point x="177" y="114"/>
      <point x="213" y="79"/>
      <point x="213" y="56" type="qcurve"/>
      <point x="213" y="31"/>
      <point x="177" y="-4"/>
      <point x="154" y="-4" type="qcurve"/>
      <point x="128" y="-4"/>
      <point x="94" y="31"/>
    </contour>
    <contour>
      <point x="109" y="246" type="line"/>
      <point x="107" y="253"/>
      <point x="105" y="276"/>
      <point x="105" y="288" type="qcurve"/>
      <point x="105" y="319"/>
      <point x="130" y="363"/>
      <point x="168" y="397"/>
      <point x="212" y="427"/>
      <point x="250" y="460"/>
      <point x="275" y="502"/>
      <point x="275" y="532" type="qcurve"/>
      <point x="275" y="562"/>
      <point x="232" y="607"/>
      <point x="190" y="607" type="qcurve"/>
      <point x="176" y="607"/>
      <point x="136" y="602"/>
      <point x="127" y="598" type="qcurve"/>
      <point x="100" y="502" type="line"/>
      <point x="39" y="502" type="line"/>
      <point x="56" y="661" type="line"/>
      <point x="87" y="672"/>
      <point x="159" y="691"/>
      <point x="201" y="691" type="qcurve" name="mh01"/>
      <point x="247" y="691"/>
      <point x="314" y="666"/>
      <point x="358" y="624"/>
      <point x="379" y="570"/>
      <point x="379" y="540" type="qcurve"/>
      <point x="379" y="508"/>
      <point x="362" y="456"/>
      <point x="334" y="414"/>
      <point x="297" y="380"/>
      <point x="278" y="366" type="qcurve"/>
      <point x="241" y="340" type="line"/>
      <point x="223" y="327"/>
      <point x="202" y="298"/>
      <point x="192" y="271"/>
      <point x="190" y="246"/>
      <point x="190" y="237" type="qcurve"/>
      <point x="170" y="237"/>
      <point x="131" y="236"/>
      <point x="111" y="236" type="qcurve"/>
    </contour>
  </outline>
</glyph>
<glyph name="at" format="1">
  <advance width="831"/>
  <unicode hex="0040"/>
  <outline>
    <contour>
      <point x="604" y="48" type="qcurve" name="hr00"/>
      <point x="572" y="48"/>
      <point x="531" y="65"/>
      <point x="519" y="79" type="qcurve"/>
      <point x="502" y="68"/>
      <point x="446" y="48"/>
      <point x="411" y="48" type="qcurve"/>
      <point x="374" y="48"/>
      <point x="304" y="73"/>
      <point x="250" y="124"/>
      <point x="218" y="202"/>
      <point x="218" y="254" type="qcurve"/>
      <point x="218" y="317"/>
      <point x="261" y="400"/>
      <point x="324" y="448"/>
      <point x="396" y="467"/>
      <point x="425" y="467" type="qcurve"/>
      <point x="453" y="467"/>
      <point x="503" y="455"/>
      <point x="524" y="445" type="qcurve"/>
      <point x="560" y="459" type="line"/>
      <point x="587" y="450" type="line"/>
      <point x="587" y="164" type="line"/>
      <point x="587" y="143"/>
      <point x="603" y="131"/>
      <point x="614" y="131" type="qcurve"/>
      <point x="629" y="131"/>
      <point x="661" y="155"/>
      <point x="687" y="200"/>
      <point x="703" y="262"/>
      <point x="703" y="300" type="qcurve"/>
      <point x="703" y="358"/>
      <point x="665" y="457"/>
      <point x="594" y="528"/>
      <point x="492" y="568"/>
      <point x="428" y="568" type="qcurve"/>
      <point x="362" y="568"/>
      <point x="252" y="523"/>
      <point x="171" y="444"/>
      <point x="126" y="334"/>
      <point x="126" y="268" type="qcurve"/>
      <point x="126" y="188"/>
      <point x="174" y="70"/>
      <point x="257" y="-8"/>
      <point x="368" y="-47"/>
      <point x="432" y="-47" type="qcurve"/>
      <point x="461" y="-47"/>
      <point x="530" y="-38"/>
      <point x="555" y="-28" type="qcurve"/>
      <point x="573" y="-32" type="line"/>
      <point x="545" y="-118" type="line"/>
      <point x="519" y="-126"/>
      <point x="453" y="-133"/>
      <point x="423" y="-133" type="qcurve"/>
      <point x="339" y="-133"/>
      <point x="196" y="-78"/>
      <point x="91" y="25"/>
      <point x="31" y="175"/>
      <point x="31" y="270" type="qcurve"/>
      <point x="31" y="360"/>
      <point x="96" y="502"/>
      <point x="205" y="601"/>
      <point x="348" y="653"/>
      <point x="427" y="653" type="qcurve"/>
      <point x="506" y="653"/>
      <point x="641" y="600"/>
      <point x="740" y="505"/>
      <point x="797" y="375"/>
      <point x="797" y="299" type="qcurve"/>
      <point x="797" y="250"/>
      <point x="770" y="159"/>
      <point x="720" y="90"/>
      <point x="648" y="48"/>
    </contour>
    <contour>
      <point x="494" y="145" type="qcurve"/>
      <point x="493" y="155"/>
      <point x="493" y="164" type="qcurve"/>
      <point x="493" y="379" type="line"/>
      <point x="481" y="385"/>
      <point x="449" y="394"/>
      <point x="430" y="394" type="qcurve"/>
      <point x="407" y="394"/>
      <point x="365" y="378"/>
      <point x="333" y="345"/>
      <point x="314" y="294"/>
      <point x="314" y="258" type="qcurve"/>
      <point x="314" y="220"/>
      <point x="334" y="168"/>
      <point x="365" y="136"/>
      <point x="406" y="122"/>
      <point x="427" y="122" type="qcurve"/>
      <point x="449" y="122"/>
      <point x="482" y="135"/>
    </contour>
  </outline>
</glyph>
<glyph name="B" format="1">
  <advance width="577"/>
  <unicode hex="0042"/>
  <outline>
    <contour>
      <point x="49" y="70" type="line" name="hr00"/>
      <point x="110" y="84" type="line"/>
      <point x="110" y="610" type="line"/>
      <point x="46" y="616" type="line"/>
      <point x="46" y="691" type="line"/>
      <point x="277" y="691" type="line" name="mh01"/>
      <point x="332" y="691"/>
      <point x="419" y="664"/>
      <point x="479" y="616"/>
      <point x="510" y="550"/>
      <point x="510" y="510" type="qcurve"/>
      <point x="510" y="480"/>
      <point x="493" y="429"/>
      <point x="464" y="388"/>
      <point x="427" y="360"/>
      <point x="407" y="354" type="qcurve"/>
      <point x="432" y="349"/>
      <point x="479" y="324"/>
      <point x="516" y="285"/>
      <point x="538" y="231"/>
      <point x="538" y="197" type="qcurve"/>
      <point x="538" y="138"/>
      <point x="495" y="62"/>
      <point x="426" y="17"/>
      <point x="340" y="0"/>
      <point x="298" y="0" type="qcurve"/>
      <point x="59" y="0" type="line" name="hr01"/>
    </contour>
    <contour>
      <point x="405" y="500" type="qcurve"/>
      <point x="405" y="555"/>
      <point x="333" y="605"/>
      <point x="271" y="605" type="qcurve"/>
      <point x="210" y="605" type="line"/>
      <point x="210" y="390" type="line"/>
      <point x="254" y="390" type="line"/>
      <point x="331" y="390"/>
      <point x="405" y="443"/>
    </contour>
    <contour>
      <point x="210" y="86" type="line"/>
      <point x="288" y="86" type="line"/>
      <point x="313" y="86"/>
      <point x="365" y="96"/>
      <point x="407" y="121"/>
      <point x="433" y="164"/>
      <point x="433" y="197" type="qcurve"/>
      <point x="433" y="228"/>
      <point x="408" y="270"/>
      <point x="366" y="294"/>
      <point x="313" y="304"/>
      <point x="286" y="304" type="qcurve"/>
      <point x="210" y="304" type="line"/>
    </contour>
  </outline>
</glyph>
<glyph name="C" format="1">
  <advance width="582"/>
  <unicode hex="0043"/>
  <outline>
    <contour>
      <point x="139" y="348" type="qcurve" name="hr00"/>
      <point x="139" y="291"/>
      <point x="175" y="194"/>
      <point x="241" y="122"/>
      <point x="335" y="82"/>
      <point x="394" y="82" type="qcurve"/>
      <point x="437" y="82"/>
      <point x="509" y="108"/>
      <point x="525" y="120" type="qcurve"/>
      <point x="554" y="41" type="line"/>
      <point x="519" y="16"/>
      <point x="424" y="-4"/>
      <point x="377" y="-4" type="qcurve"/>
      <point x="312" y="-4"/>
      <point x="189" y="41"/>
      <point x="93" y="128"/>
      <point x="34" y="255"/>
      <point x="34" y="338" type="qcurve"/>
      <point x="34" y="425"/>
      <point x="89" y="557"/>
      <point x="182" y="646"/>
      <point x="305" y="691"/>
      <point x="372" y="691" type="qcurve" name="mh01"/>
      <point x="425" y="691"/>
      <point x="498" y="677"/>
      <point x="520" y="672" type="qcurve"/>
      <point x="539" y="490" type="line"/>
      <point x="471" y="490" type="line"/>
      <point x="432" y="598" type="line"/>
      <point x="413" y="605"/>
      <point x="375" y="605" type="qcurve"/>
      <point x="319" y="605"/>
      <point x="232" y="563"/>
      <point x="172" y="493"/>
      <point x="139" y="399"/>
    </contour>
  </outline>
</glyph>
<glyph name="D" format="1">
  <advance width="633"/>
  <unicode hex="0044"/>
  <outline>
    <contour>
      <point x="492" y="351" type="qcurve" name="hr00"/>
      <point x="492" y="412"/>
      <point x="454" y="507"/>
      <point x="386" y="572"/>
      <point x="291" y="606"/>
      <point x="233" y="606" type="qcurve"/>
      <point x="227" y="606"/>
      <point x="215" y="605"/>
      <point x="209" y="605" type="qcurve"/>
      <point x="209" y="86" type="line"/>
      <point x="211" y="86"/>
      <point x="215" y="85"/>
      <point x="217" y="85" type="qcurve"/>
      <point x="357" y="85"/>
      <point x="492" y="221"/>
    </contour>
    <contour>
      <point x="110" y="85" type="line"/>
      <point x="110" y="611" type="line"/>
      <point x="50" y="617" type="line"/>
      <point x="50" y="691" type="line"/>
      <point x="239" y="691" type="line" name="mh01"/>
      <point x="319" y="691"/>
      <point x="451" y="647"/>
      <point x="545" y="562"/>
      <point x="597" y="434"/>
      <point x="597" y="350" type="qcurve"/>
      <point x="597" y="267"/>
      <point x="548" y="137"/>
      <point x="456" y="47"/>
      <point x="325" y="0"/>
      <point x="243" y="0" type="qcurve"/>
      <point x="59" y="0" type="line"/>
      <point x="49" y="71" type="line"/>
    </contour>
  </outline>
</glyph>
<glyph name="G" format="1">
  <advance width="615"/>
  <unicode hex="0047"/>
  <outline>
    <contour>
      <point x="559" y="14" type="line" name="hr00"/>
      <point x="527" y="6"/>
      <point x="440" y="-4"/>
      <point x="394" y="-4" type="qcurve"/>
      <point x="317" y="-4"/>
      <point x="186" y="42"/>
      <point x="88" y="130"/>
      <point x="33" y="256"/>
      <point x="33" y="337" type="qcurve"/>
      <point x="33" y="418"/>
      <point x="84" y="548"/>
      <point x="177" y="641"/>
      <point x="304" y="691"/>
      <point x="381" y="691" type="qcurve" name="mh01"/>
      <point x="429" y="691"/>
      <point x="514" y="676"/>
      <point x="537" y="670" type="qcurve"/>
      <point x="552" y="489" type="line"/>
      <point x="479" y="489" type="line"/>
      <point x="443" y="600" type="line"/>
      <point x="431" y="602"/>
      <point x="400" y="605"/>
      <point x="378" y="605" type="qcurve"/>
      <point x="325" y="605"/>
      <point x="237" y="565"/>
      <point x="174" y="494"/>
      <point x="138" y="397"/>
      <point x="138" y="340" type="qcurve"/>
      <point x="138" y="282"/>
      <point x="175" y="187"/>
      <point x="245" y="119"/>
      <point x="343" y="82"/>
      <point x="405" y="82" type="qcurve"/>
      <point x="422" y="82"/>
      <point x="449" y="84"/>
      <point x="459" y="86" type="qcurve"/>
      <point x="459" y="123"/>
      <point x="460" y="196"/>
      <point x="460" y="233" type="qcurve"/>
      <point x="346" y="247" type="line"/>
      <point x="364" y="318" type="line"/>
      <point x="559" y="318" type="line"/>
    </contour>
  </outline>
</glyph>
<glyph name="H" format="1">
  <advance width="672"/>
  <unicode hex="0048"/>
  <outline>
    <contour>
      <point x="109" y="610" type="line" name="hr00"/>
      <point x="49" y="615" type="line"/>
      <point x="49" y="691" type="line" name="mh01"/>
      <point x="259" y="691" type="line"/>
      <point x="269" y="616" type="line"/>
      <point x="209" y="606" type="line"/>
      <point x="209" y="399" type="line"/>
      <point x="463" y="399" type="line"/>
      <point x="463" y="610" type="line"/>
      <point x="406" y="615" type="line"/>
      <point x="406" y="691" type="line"/>
      <point x="613" y="691" type="line"/>
      <point x="623" y="616" type="line"/>
      <point x="563" y="606" type="line" name="mh02"/>
      <point x="563" y="81" type="line"/>
      <point x="623" y="73" type="line"/>
      <point x="623" y="0" type="line"/>
      <point x="416" y="0" type="line"/>
      <point x="406" y="72" type="line"/>
      <point x="463" y="83" type="line"/>
      <point x="463" y="313" type="line"/>
      <point x="209" y="313" type="line" name="mv01"/>
      <point x="209" y="81" type="line"/>
      <point x="270" y="73" type="line"/>
      <point x="270" y="0" type="line"/>
      <point x="59" y="0" type="line"/>
      <point x="49" y="72" type="line"/>
      <point x="109" y="83" type="line"/>
    </contour>
  </outline>
</glyph>
<glyph name="J" format="1">
  <advance width="367"/>
  <unicode hex="004A"/>
  <outline>
    <contour>
      <point x="104" y="691" type="line" name="hr00"/>
      <point x="333" y="691" type="line"/>
      <point x="333" y="615" type="line"/>
      <point x="271" y="610" type="line"/>
      <point x="271" y="149" type="line"/>
      <point x="271" y="98"/>
      <point x="240" y="37"/>
      <point x="196" y="5"/>
      <point x="148" y="-4"/>
      <point x="131" y="-4" type="qcurve"/>
      <point x="94" y="-4"/>
      <point x="31" y="25"/>
      <point x="8" y="47" type="qcurve"/>
      <point x="61" y="126" type="line"/>
      <point x="74" y="114"/>
      <point x="114" y="85"/>
      <point x="134" y="85" type="qcurve"/>
      <point x="138" y="85"/>
      <point x="151" y="87"/>
      <point x="163" y="97"/>
      <point x="171" y="119"/>
      <point x="171" y="140" type="qcurve"/>
      <point x="171" y="606" type="line"/>
      <point x="94" y="616" type="line"/>
    </contour>
  </outline>
</glyph>
<glyph name="M" format="1">
  <advance width="854"/>
  <unicode hex="004D"/>
  <outline>
    <contour>
      <point x="426" y="131" type="line" name="hr00"/>
      <point x="594" y="691" type="line"/>
      <point x="789" y="691" type="line"/>
      <point x="799" y="614" type="line"/>
      <point x="747" y="606" type="line"/>
      <point x="747" y="81" type="line"/>
      <point x="771" y="77"/>
      <point x="792" y="72"/>
      <point x="802" y="70" type="qcurve"/>
      <point x="798" y="0" type="line"/>
      <point x="604" y="0" type="line"/>
      <point x="596" y="72" type="line"/>
      <point x="654" y="85" type="line"/>
      <point x="654" y="599" type="line"/>
      <point x="477" y="15" type="line"/>
      <point x="362" y="15" type="line" name="mh01"/>
      <point x="191" y="604" type="line"/>
      <point x="191" y="82" type="line"/>
      <point x="250" y="71" type="line"/>
      <point x="250" y="0" type="line"/>
      <point x="57" y="0" type="line"/>
      <point x="45" y="71" type="line"/>
      <point x="108" y="84" type="line"/>
      <point x="108" y="609" type="line"/>
      <point x="58" y="614" type="line"/>
      <point x="58" y="691" type="line" name="mh02"/>
      <point x="264" y="691" type="line"/>
    </contour>
  </outline>
</glyph>
<glyph name="P" format="1">
  <advance width="553"/>
  <unicode hex="0050"/>
  <outline>
    <contour>
      <point x="110" y="84" type="line" name="hr00"/>
      <point x="110" y="610" type="line" name="mh01"/>
      <point x="47" y="615" type="line"/>
      <point x="47" y="691" type="line"/>
      <point x="258" y="691" type="line" name="mh02"/>
      <point x="331" y="691"/>
      <point x="435" y="657" name="mh03"/>
      <point x="501" y="598"/>
      <point x="532" y="517"/>
      <point x="532" y="470" type="qcurve"/>
      <point x="532" y="408"/>
      <point x="490" y="322"/>
      <point x="416" y="268"/>
      <point x="315" y="244"/>
      <point x="256" y="244" type="qcurve"/>
      <point x="210" y="244" type="line" name="mh04"/>
      <point x="210" y="87" type="line"/>
      <point x="220" y="85"/>
      <point x="256" y="80"/>
      <point x="298" y="75"/>
      <point x="339" y="69"/>
      <point x="355" y="67" type="qcurve"/>
      <point x="352" y="0" type="line"/>
      <point x="56" y="0" type="line"/>
      <point x="46" y="70" type="line"/>
    </contour>
    <contour>
      <point x="252" y="330" type="line"/>
      <point x="301" y="330"/>
      <point x="368" y="353"/>
      <point x="409" y="392"/>
      <point x="427" y="443"/>
      <point x="427" y="471" type="qcurve" name="mh05"/>
      <point x="427" y="539"/>
      <point x="334" y="605"/>
      <point x="245" y="605" type="qcurve"/>
      <point x="210" y="605" type="line" name="mh06"/>
      <point x="210" y="330" type="line"/>
    </contour>
  </outline>
</glyph>
<glyph name="R" format="1">
  <advance width="584"/>
  <unicode hex="0052"/>
  <outline>
    <contour>
      <point x="110" y="84" type="line" name="hr00"/>
      <point x="110" y="610" type="line"/>
      <point x="47" y="615" type="line"/>
      <point x="47" y="691" type="line"/>
      <point x="258" y="691" type="line" name="mh01"/>
      <point x="331" y="691"/>
      <point x="435" y="657"/>
      <point x="501" y="598"/>
      <point x="532" y="517"/>
      <point x="532" y="470" type="qcurve"/>
      <point x="532" y="401"/>
      <point x="462" y="305"/>
      <point x="402" y="280" type="qcurve"/>
      <point x="499" y="81" type="line"/>
      <point x="556" y="69" type="line"/>
      <point x="556" y="0" type="line"/>
      <point x="417" y="0" type="line"/>
      <point x="305" y="256" type="line"/>
      <point x="281" y="253"/>
      <point x="256" y="253" type="qcurve"/>
      <point x="210" y="253" type="line"/>
      <point x="210" y="83" type="line"/>
      <point x="289" y="69" type="line"/>
      <point x="289" y="0" type="line"/>
      <point x="56" y="0" type="line"/>
      <point x="46" y="70" type="line"/>
    </contour>
    <contour>
      <point x="252" y="339" type="line"/>
      <point x="301" y="339"/>
      <point x="368" y="363"/>
      <point x="409" y="400"/>
      <point x="427" y="447"/>
      <point x="427" y="471" type="qcurve"/>
      <point x="427" y="539"/>
      <point x="334" y="605"/>
      <point x="245" y="605" type="qcurve"/>
      <point x="210" y="605" type="line"/>
      <point x="210" y="339" type="line"/>
    </contour>
  </outline>
</glyph>
<glyph name="S" format="1">
  <advance width="507"/>
  <unicode hex="0053"/>
  <outline>
    <contour>
      <point x="147" y="96" type="line" name="hr01"/>
      <point x="163" y="90"/>
      <point x="208" y="80"/>
      <point x="233" y="80" type="qcurve"/>
      <point x="258" y="80"/>
      <point x="304" y="92"/>
      <point x="340" y="117"/>
      <point x="362" y="155"/>
      <point x="362" y="182" type="qcurve"/>
      <point x="362" y="216"/>
      <point x="325" y="265"/>
      <point x="280" y="288" type="qcurve"/>
      <point x="240" y="307"/>
      <point x="157" y="341"/>
      <point x="90" y="388"/>
      <point x="47" y="457"/>
      <point x="47" y="513" type="qcurve"/>
      <point x="47" y="554"/>
      <point x="82" y="620"/>
      <point x="142" y="666"/>
      <point x="222" y="691"/>
      <point x="266" y="691" type="qcurve" name="mh01"/>
      <point x="314" y="691"/>
      <point x="397" y="675"/>
      <point x="435" y="661" type="qcurve"/>
      <point x="449" y="489" type="line"/>
      <point x="380" y="489" type="line"/>
      <point x="336" y="597" type="line"/>
      <point x="321" y="602"/>
      <point x="285" y="607"/>
      <point x="265" y="607" type="qcurve"/>
      <point x="215" y="607"/>
      <point x="152" y="565"/>
      <point x="152" y="522" type="qcurve"/>
      <point x="152" y="494"/>
      <point x="180" y="454"/>
      <point x="224" y="425"/>
      <point x="278" y="402"/>
      <point x="304" y="390" type="qcurve"/>
      <point x="349" y="370"/>
      <point x="411" y="326"/>
      <point x="449" y="278"/>
      <point x="466" y="225"/>
      <point x="466" y="195" type="qcurve"/>
      <point x="466" y="141"/>
      <point x="427" y="66"/>
      <point x="362" y="18"/>
      <point x="279" y="-4"/>
      <point x="236" y="-4" type="qcurve"/>
      <point x="185" y="-4"/>
      <point x="88" y="16"/>
      <point x="52" y="34" type="qcurve"/>
      <point x="59" y="203" type="line"/>
      <point x="129" y="203" type="line"/>
    </contour>
  </outline>
</glyph>
<glyph name="Z" format="1">
  <advance width="553"/>
  <unicode hex="005A"/>
  <outline>
    <contour>
      <point x="504" y="598" type="line" name="hr00"/>
      <point x="472" y="549"/>
      <point x="388" y="419"/>
      <point x="297" y="280"/>
      <point x="206" y="143"/>
      <point x="169" y="86" type="qcurve"/>
      <point x="424" y="86" type="line"/>
      <point x="443" y="192" type="line"/>
      <point x="507" y="192" type="line"/>
      <point x="507" y="0" type="line"/>
      <point x="53" y="0" type="line"/>
      <point x="37" y="77" type="line" name="hr01"/>
      <point x="392" y="605" type="line"/>
      <point x="133" y="605" type="line"/>
      <point x="113" y="498" type="line"/>
      <point x="50" y="498" type="line"/>
      <point x="50" y="691" type="line"/>
      <point x="492" y="691" type="line"/>
    </contour>
  </outline>
</glyph>
<glyph name="bracketright" format="1">
  <advance width="321"/>
  <unicode hex="005D"/>
  <outline>
    <contour>
      <point x="243" y="-165" type="line" name="hr00"/>
      <point x="232" y="-179" type="line"/>
      <point x="3" y="-179" type="line"/>
      <point x="-3" y="-179"/>
      <point x="-3" y="-171" type="qcurve"/>
      <point x="-3" y="-105" type="line"/>
      <point x="148" y="-105" type="line" name="hr02"/>
      <point x="148" y="628" type="line"/>
      <point x="-3" y="628" type="line" name="hr01"/>
      <point x="-3" y="695" type="line" name="mh01"/>
      <point x="-3" y="702"/>
      <point x="3" y="702" type="qcurve"/>
      <point x="235" y="702" type="line"/>
      <point x="243" y="690" type="line"/>
    </contour>
  </outline>
</glyph>
<glyph name="b" format="1">
  <advance width="490"/>
  <unicode hex="0062"/>
  <outline>
    <contour>
      <point x="159" y="459" type="line" name="hr00"/>
      <point x="176" y="470"/>
      <point x="226" y="486"/>
      <point x="258" y="486" type="qcurve" name="mh01"/>
      <point x="301" y="486"/>
      <point x="373" y="452"/>
      <point x="425" y="390"/>
      <point x="454" y="301"/>
      <point x="454" y="247" type="qcurve"/>
      <point x="454" y="172"/>
      <point x="412" y="74"/>
      <point x="348" y="18"/>
      <point x="273" y="-4"/>
      <point x="240" y="-4" type="qcurve"/>
      <point x="185" y="-4"/>
      <point x="144" y="19" type="qcurve"/>
      <point x="140" y="17" type="line"/>
      <point x="129" y="12"/>
      <point x="100" y="-4"/>
      <point x="92" y="-6" type="qcurve"/>
      <point x="69" y="8" type="line"/>
      <point x="69" y="656" type="line"/>
      <point x="11" y="652" type="line"/>
      <point x="2" y="712" type="line"/>
      <point x="129" y="731" type="line"/>
      <point x="159" y="699" type="line"/>
    </contour>
    <contour>
      <point x="243" y="410" type="qcurve" name="hr01"/>
      <point x="216" y="410"/>
      <point x="171" y="391"/>
      <point x="159" y="377" type="qcurve"/>
      <point x="159" y="97" type="line"/>
      <point x="167" y="87"/>
      <point x="212" y="71"/>
      <point x="238" y="71" type="qcurve"/>
      <point x="256" y="71"/>
      <point x="298" y="86"/>
      <point x="335" y="125"/>
      <point x="359" y="191"/>
      <point x="359" y="241" type="qcurve"/>
      <point x="359" y="286"/>
      <point x="339" y="351"/>
      <point x="306" y="391"/>
      <point x="265" y="410"/>
    </contour>
  </outline>
</glyph>
<glyph name="c" format="1">
  <advance width="432"/>
  <unicode hex="0063"/>
  <outline>
    <contour>
      <point x="285" y="406" type="line" name="hr00"/>
      <point x="281" y="407"/>
      <point x="276" y="408" type="qcurve"/>
      <point x="271" y="409" name="mh01"/>
      <point x="260" y="411" name="mh02"/>
      <point x="252" y="411" type="qcurve"/>
      <point x="192" y="411"/>
      <point x="131" y="321"/>
      <point x="131" y="235" type="qcurve"/>
      <point x="131" y="160"/>
      <point x="204" y="71"/>
      <point x="264" y="71" type="qcurve"/>
      <point x="292" y="71"/>
      <point x="354" y="92"/>
      <point x="374" y="112" type="qcurve"/>
      <point x="379" y="98"/>
      <point x="391" y="55"/>
      <point x="396" y="42" type="qcurve"/>
      <point x="370" y="22"/>
      <point x="298" y="-4"/>
      <point x="250" y="-4" type="qcurve"/>
      <point x="209" y="-4"/>
      <point x="132" y="24"/>
      <point x="72" y="83"/>
      <point x="36" y="172"/>
      <point x="36" y="233" type="qcurve"/>
      <point x="36" y="305"/>
      <point x="75" y="402"/>
      <point x="136" y="461"/>
      <point x="213" y="486"/>
      <point x="251" y="486" type="qcurve" name="mv01"/>
      <point x="287" y="486"/>
      <point x="344" y="466"/>
      <point x="385" y="437"/>
      <point x="411" y="406"/>
      <point x="416" y="395" type="qcurve"/>
      <point x="317" y="348" type="line"/>
    </contour>
  </outline>
</glyph>
<glyph name="d" format="1">
  <advance width="502"/>
  <unicode hex="0064"/>
  <outline>
    <contour>
      <point x="420" y="89" type="line" name="hr00"/>
      <point x="420" y="77"/>
      <point x="429" y="68"/>
      <point x="434" y="68" type="qcurve"/>
      <point x="440" y="68"/>
      <point x="451" y="73"/>
      <point x="455" y="75" type="qcurve"/>
      <point x="477" y="22" type="line"/>
      <point x="471" y="17"/>
      <point x="434" y="-4"/>
      <point x="408" y="-4" type="qcurve"/>
      <point x="358" y="-4"/>
      <point x="341" y="29" type="qcurve"/>
      <point x="324" y="17"/>
      <point x="268" y="-4"/>
      <point x="232" y="-4" type="qcurve"/>
      <point x="189" y="-4"/>
      <point x="117" y="30"/>
      <point x="65" y="92"/>
      <point x="36" y="181"/>
      <point x="36" y="235" type="qcurve"/>
      <point x="36" y="310"/>
      <point x="78" y="408"/>
      <point x="142" y="464"/>
      <point x="217" y="486"/>
      <point x="250" y="486" type="qcurve" name="mh01"/>
      <point x="292" y="486"/>
      <point x="330" y="470" type="qcurve"/>
      <point x="330" y="656" type="line"/>
      <point x="273" y="652" type="line"/>
      <point x="264" y="712" type="line"/>
      <point x="389" y="733" type="line"/>
      <point x="420" y="699" type="line"/>
    </contour>
    <contour>
      <point x="247" y="72" type="qcurve"/>
      <point x="273" y="72"/>
      <point x="317" y="90"/>
      <point x="330" y="104" type="qcurve"/>
      <point x="330" y="386" type="line"/>
      <point x="321" y="395"/>
      <point x="278" y="411"/>
      <point x="252" y="411" type="qcurve"/>
      <point x="234" y="411"/>
      <point x="192" y="396"/>
      <point x="155" y="357"/>
      <point x="131" y="291"/>
      <point x="131" y="241" type="qcurve"/>
      <point x="131" y="196"/>
      <point x="151" y="131"/>
      <point x="184" y="91"/>
      <point x="225" y="72"/>
    </contour>
  </outline>
</glyph>
<glyph name="e" format="1">
  <advance width="444"/>
  <unicode hex="0065"/>
  <outline>
    <contour>
      <point x="408" y="352" type="qcurve" name="hr00"/>
      <point x="408" y="323"/>
      <point x="387" y="264"/>
      <point x="327" y="216"/>
      <point x="220" y="185"/>
      <point x="135" y="184" type="qcurve"/>
      <point x="140" y="160"/>
      <point x="160" y="119"/>
      <point x="193" y="89"/>
      <point x="239" y="71"/>
      <point x="271" y="71" type="qcurve"/>
      <point x="293" y="71"/>
      <point x="331" y="80"/>
      <point x="359" y="93"/>
      <point x="379" y="106"/>
      <point x="383" y="110" type="qcurve"/>
      <point x="405" y="40" type="line"/>
      <point x="401" y="36"/>
      <point x="377" y="22"/>
      <point x="341" y="7"/>
      <point x="292" y="-4"/>
      <point x="263" y="-4" type="qcurve"/>
      <point x="214" y="-4"/>
      <point x="130" y="26"/>
      <point x="69" y="86"/>
      <point x="35" y="177"/>
      <point x="35" y="237" type="qcurve"/>
      <point x="35" y="298"/>
      <point x="71" y="391"/>
      <point x="131" y="454"/>
      <point x="209" y="486"/>
      <point x="251" y="486" type="qcurve"/>
      <point x="283" y="486" name="mh01"/>
      <point x="340" y="468"/>
      <point x="383" y="434"/>
      <point x="408" y="384"/>
    </contour>
    <contour>
      <point x="245" y="410" type="qcurve"/>
      <point x="226" y="410"/>
      <point x="187" y="392"/>
      <point x="155" y="355"/>
      <point x="133" y="298"/>
      <point x="130" y="258" type="qcurve"/>
      <point x="155" y="258"/>
      <point x="219" y="263"/>
      <point x="275" y="281"/>
      <point x="313" y="318"/>
      <point x="313" y="351" type="qcurve"/>
      <point x="313" y="374"/>
      <point x="283" y="410"/>
    </contour>
  </outline>
</glyph>
<glyph name="f" format="1">
  <advance width="337"/>
  <unicode hex="0066"/>
  <outline>
    <contour>
      <point x="17" y="476" type="line" name="hr00"/>
      <point x="24" y="486" type="line"/>
      <point x="99" y="486" type="line"/>
      <point x="99" y="577" type="line"/>
      <point x="99" y="617"/>
      <point x="121" y="675"/>
      <point x="158" y="712"/>
      <point x="208" y="730"/>
      <point x="236" y="730" type="qcurve" name="mh01"/>
      <point x="265" y="730"/>
      <point x="315" y="716"/>
      <point x="352" y="697"/>
      <point x="376" y="680"/>
      <point x="379" y="677" type="qcurve"/>
      <point x="308" y="594" type="line"/>
      <point x="244" y="653" type="line"/>
      <point x="238" y="655"/>
      <point x="230" y="655" type="qcurve"/>
      <point x="190" y="655"/>
      <point x="190" y="589" type="qcurve"/>
      <point x="190" y="486" type="line"/>
      <point x="303" y="486" type="line"/>
      <point x="308" y="486"/>
      <point x="308" y="480" type="qcurve"/>
      <point x="308" y="411" type="line"/>
      <point x="190" y="411" type="line"/>
      <point x="190" y="71" type="line"/>
      <point x="304" y="54" type="line"/>
      <point x="304" y="0" type="line"/>
      <point x="54" y="0" type="line"/>
      <point x="42" y="54" type="line"/>
      <point x="99" y="66" type="line"/>
      <point x="99" y="411" type="line"/>
      <point x="31" y="411" type="line"/>
    </contour>
  </outline>
</glyph>
<glyph name="g" format="1">
  <advance width="488"/>
  <unicode hex="0067"/>
  <outline>
    <contour>
      <point x="228" y="486" type="qcurve" name="hr02"/>
      <point x="263" y="486"/>
      <point x="328" y="463"/>
      <point x="354" y="442" type="qcurve"/>
      <point x="453" y="492" type="line"/>
      <point x="474" y="489" type="line"/>
      <point x="484" y="406" type="line"/>
      <point x="394" y="395" type="line"/>
      <point x="405" y="375"/>
      <point x="418" y="329"/>
      <point x="418" y="303" type="qcurve"/>
      <point x="418" y="258"/>
      <point x="385" y="192"/>
      <point x="332" y="148"/>
      <point x="264" y="126"/>
      <point x="228" y="126" type="qcurve"/>
      <point x="203" y="126"/>
      <point x="184" y="130" type="qcurve"/>
      <point x="159" y="91" type="line"/>
      <point x="163" y="74" type="line" name="hr01"/>
      <point x="173" y="72"/>
      <point x="239" y="63"/>
      <point x="277" y="54" type="qcurve"/>
      <point x="325" y="43"/>
      <point x="386" y="12"/>
      <point x="421" y="-25"/>
      <point x="434" y="-69"/>
      <point x="434" y="-94" type="qcurve"/>
      <point x="434" y="-139"/>
      <point x="398" y="-207"/>
      <point x="340" y="-252"/>
      <point x="265" y="-275"/>
      <point x="225" y="-275" type="qcurve"/>
      <point x="183" y="-275"/>
      <point x="107" y="-256"/>
      <point x="51" y="-218"/>
      <point x="18" y="-162"/>
      <point x="18" y="-126" type="qcurve"/>
      <point x="18" y="-99"/>
      <point x="32" y="-56"/>
      <point x="55" y="-23"/>
      <point x="85" y="1"/>
      <point x="101" y="9" type="qcurve"/>
      <point x="77" y="29"/>
      <point x="77" y="72" type="qcurve"/>
      <point x="77" y="97"/>
      <point x="100" y="139"/>
      <point x="116" y="155" type="qcurve"/>
      <point x="81" y="178"/>
      <point x="39" y="252"/>
      <point x="39" y="302" type="qcurve"/>
      <point x="39" y="342"/>
      <point x="68" y="410"/>
      <point x="119" y="459"/>
      <point x="188" y="486"/>
    </contour>
    <contour>
      <point x="224" y="411" type="line"/>
      <point x="183" y="409"/>
      <point x="134" y="351"/>
      <point x="134" y="306" type="qcurve"/>
      <point x="134" y="278"/>
      <point x="150" y="238"/>
      <point x="176" y="213"/>
      <point x="210" y="201"/>
      <point x="228" y="201" type="qcurve"/>
      <point x="269" y="201"/>
      <point x="323" y="255"/>
      <point x="323" y="306" type="qcurve"/>
      <point x="323" y="357"/>
      <point x="266" y="411"/>
      <point x="228" y="411" type="qcurve"/>
    </contour>
    <contour>
      <point x="240" y="-39" type="qcurve"/>
      <point x="204" y="-32"/>
      <point x="177" y="-24" type="qcurve"/>
      <point x="106" y="-53"/>
      <point x="106" y="-112" type="qcurve"/>
      <point x="106" y="-130"/>
      <point x="126" y="-157"/>
      <point x="160" y="-177"/>
      <point x="205" y="-187"/>
      <point x="231" y="-187" type="qcurve"/>
      <point x="256" y="-187"/>
      <point x="303" y="-175"/>
      <point x="337" y="-154"/>
      <point x="358" y="-125"/>
      <point x="358" y="-107" type="qcurve"/>
      <point x="358" y="-78"/>
      <point x="303" y="-53"/>
    </contour>
  </outline>
</glyph>
<glyph name="h" format="1">
  <advance width="521"/>
  <unicode hex="0068"/>
  <outline>
    <contour>
      <point x="440" y="70" type="line" name="hr00"/>
      <point x="500" y="54" type="line"/>
      <point x="500" y="0" type="line"/>
      <point x="301" y="0" type="line"/>
      <point x="289" y="54" type="line"/>
      <point x="350" y="68" type="line"/>
      <point x="350" y="331" type="line" name="mh01"/>
      <point x="350" y="376"/>
      <point x="308" y="409"/>
      <point x="276" y="409" type="qcurve"/>
      <point x="261" y="409"/>
      <point x="230" y="401"/>
      <point x="202" y="389"/>
      <point x="180" y="375"/>
      <point x="174" y="369" type="qcurve"/>
      <point x="174" y="70" type="line"/>
      <point x="233" y="54" type="line"/>
      <point x="233" y="0" type="line"/>
      <point x="34" y="0" type="line"/>
      <point x="22" y="54" type="line"/>
      <point x="84" y="68" type="line"/>
      <point x="84" y="656" type="line" name="mh02"/>
      <point x="27" y="652" type="line"/>
      <point x="18" y="712" type="line"/>
      <point x="143" y="733" type="line"/>
      <point x="174" y="699" type="line"/>
      <point x="174" y="450" type="line"/>
      <point x="192" y="463"/>
      <point x="253" y="486"/>
      <point x="292" y="486" type="qcurve" name="mh03"/>
      <point x="323" y="486"/>
      <point x="378" y="471"/>
      <point x="417" y="437"/>
      <point x="440" y="384"/>
      <point x="440" y="346" type="qcurve" name="mh04"/>
    </contour>
  </outline>
</glyph>
<glyph name="i" format="1">
  <advance width="268"/>
  <unicode hex="0069"/>
  <outline>
    <contour>
      <point x="184" y="70" type="line" name="hr00"/>
      <point x="243" y="54" type="line"/>
      <point x="243" y="0" type="line"/>
      <point x="43" y="0" type="line"/>
      <point x="32" y="54" type="line"/>
      <point x="94" y="68" type="line"/>
      <point x="94" y="408" type="line"/>
      <point x="39" y="404" type="line"/>
      <point x="29" y="464" type="line"/>
      <point x="152" y="486" type="line"/>
      <point x="184" y="454" type="line"/>
    </contour>
    <contour>
      <point x="62" y="666" type="qcurve" name="hr01"/>
      <point x="62" y="692"/>
      <point x="98" y="728"/>
      <point x="124" y="728" type="qcurve" name="mh01"/>
      <point x="150" y="728"/>
      <point x="186" y="690"/>
      <point x="186" y="666" type="qcurve"/>
      <point x="186" y="640"/>
      <point x="150" y="604"/>
      <point x="124" y="604" type="qcurve"/>
      <point x="98" y="604"/>
      <point x="62" y="640"/>
    </contour>
  </outline>
</glyph>
<glyph name="j" format="1">
  <advance width="243"/>
  <unicode hex="006A"/>
  <outline>
    <contour>
      <point x="23" y="464" type="line" name="hr00"/>
      <point x="144" y="486" type="line" name="mh01"/>
      <point x="175" y="454" type="line"/>
      <point x="175" y="-124" type="line"/>
      <point x="175" y="-203"/>
      <point x="110" y="-272"/>
      <point x="55" y="-272" type="qcurve"/>
      <point x="32" y="-272"/>
      <point x="-15" y="-260"/>
      <point x="-37" y="-246" type="qcurve"/>
      <point x="1" y="-173" type="line"/>
      <point x="8" y="-178"/>
      <point x="33" y="-196"/>
      <point x="50" y="-196" type="qcurve"/>
      <point x="65" y="-196"/>
      <point x="85" y="-169"/>
      <point x="85" y="-135" type="qcurve"/>
      <point x="85" y="408" type="line"/>
      <point x="32" y="404" type="line"/>
    </contour>
    <contour>
      <point x="52" y="666" type="qcurve"/>
      <point x="52" y="692"/>
      <point x="88" y="728"/>
      <point x="114" y="728" type="qcurve" name="mh02"/>
      <point x="140" y="728"/>
      <point x="176" y="690"/>
      <point x="176" y="666" type="qcurve"/>
      <point x="176" y="640"/>
      <point x="140" y="604"/>
      <point x="114" y="604" type="qcurve"/>
      <point x="87" y="604"/>
      <point x="52" y="640"/>
    </contour>
  </outline>
</glyph>
<glyph name="m" format="1">
  <advance width="797"/>
  <unicode hex="006D"/>
  <outline>
    <contour>
      <point x="449" y="70" type="line" name="hr00"/>
      <point x="509" y="54" type="line"/>
      <point x="509" y="0" type="line"/>
      <point x="310" y="0" type="line"/>
      <point x="298" y="54" type="line"/>
      <point x="359" y="68" type="line"/>
      <point x="359" y="331" type="line"/>
      <point x="359" y="376"/>
      <point x="317" y="409"/>
      <point x="285" y="409" type="qcurve"/>
      <point x="255" y="409"/>
      <point x="197" y="383"/>
      <point x="184" y="370" type="qcurve"/>
      <point x="184" y="70" type="line"/>
      <point x="242" y="54" type="line"/>
      <point x="242" y="0" type="line"/>
      <point x="43" y="0" type="line"/>
      <point x="31" y="54" type="line"/>
      <point x="94" y="68" type="line"/>
      <point x="94" y="408" type="line"/>
      <point x="39" y="404" type="line"/>
      <point x="29" y="464" type="line"/>
      <point x="42" y="466"/>
      <point x="76" y="473"/>
      <point x="110" y="479"/>
      <point x="142" y="484"/>
      <point x="152" y="486" type="qcurve"/>
      <point x="181" y="449" type="line"/>
      <point x="199" y="463"/>
      <point x="261" y="486"/>
      <point x="301" y="486" type="qcurve"/>
      <point x="339" y="486"/>
      <point x="401" y="464"/>
      <point x="421" y="438" type="qcurve"/>
      <point x="452" y="461"/>
      <point x="523" y="486"/>
      <point x="567" y="486" type="qcurve"/>
      <point x="598" y="486"/>
      <point x="652" y="471"/>
      <point x="693" y="437"/>
      <point x="717" y="384"/>
      <point x="717" y="346" type="qcurve"/>
      <point x="717" y="70" type="line"/>
      <point x="776" y="54" type="line"/>
      <point x="776" y="0" type="line"/>
      <point x="576" y="0" type="line"/>
      <point x="565" y="54" type="line"/>
      <point x="627" y="68" type="line"/>
      <point x="627" y="331" type="line"/>
      <point x="627" y="354"/>
      <point x="613" y="384"/>
      <point x="590" y="402"/>
      <point x="561" y="409"/>
      <point x="545" y="409" type="qcurve"/>
      <point x="517" y="409"/>
      <point x="462" y="385"/>
      <point x="448" y="373" type="qcurve"/>
      <point x="448" y="363" type="line"/>
      <point x="448" y="356"/>
      <point x="449" y="341"/>
      <point x="449" y="334" type="qcurve"/>
    </contour>
  </outline>
</glyph>
<glyph name="p" format="1">
  <advance width="505"/>
  <unicode hex="0070"/>
  <outline>
    <contour>
      <point x="144" y="486" type="line" name="hr00"/>
      <point x="171" y="457" type="line"/>
      <point x="188" y="468"/>
      <point x="240" y="486"/>
      <point x="273" y="486" type="qcurve" name="mh01"/>
      <point x="316" y="486"/>
      <point x="388" y="452"/>
      <point x="440" y="390"/>
      <point x="469" y="301"/>
      <point x="469" y="247" type="qcurve"/>
      <point x="469" y="172"/>
      <point x="427" y="74"/>
      <point x="363" y="18"/>
      <point x="288" y="-4"/>
      <point x="255" y="-4" type="qcurve"/>
      <point x="209" y="-4"/>
      <point x="175" y="11" type="qcurve"/>
      <point x="175" y="-199" type="line"/>
      <point x="297" y="-221" type="line"/>
      <point x="297" y="-274" type="line"/>
      <point x="35" y="-274" type="line"/>
      <point x="23" y="-221" type="line"/>
      <point x="85" y="-206" type="line"/>
      <point x="85" y="409" type="line"/>
      <point x="28" y="405" type="line"/>
      <point x="19" y="465" type="line"/>
    </contour>
    <contour>
      <point x="258" y="410" type="qcurve"/>
      <point x="232" y="410"/>
      <point x="188" y="391"/>
      <point x="175" y="378" type="qcurve"/>
      <point x="175" y="96" type="line"/>
      <point x="184" y="86"/>
      <point x="227" y="71"/>
      <point x="253" y="71" type="qcurve"/>
      <point x="271" y="71"/>
      <point x="313" y="86"/>
      <point x="350" y="125"/>
      <point x="374" y="191"/>
      <point x="374" y="241" type="qcurve"/>
      <point x="374" y="286"/>
      <point x="354" y="351"/>
      <point x="321" y="391"/>
      <point x="280" y="410"/>
    </contour>
  </outline>
</glyph>
<glyph name="q" format="1">
  <advance width="489"/>
  <unicode hex="0071"/>
  <outline>
    <contour>
      <point x="420" y="-182" type="line" name="hr00"/>
      <point x="475" y="-201" type="line"/>
      <point x="475" y="-274" type="line"/>
      <point x="218" y="-274" type="line"/>
      <point x="207" y="-211" type="line"/>
      <point x="330" y="-187" type="line"/>
      <point x="330" y="22" type="line"/>
      <point x="313" y="11"/>
      <point x="263" y="-4"/>
      <point x="232" y="-4" type="qcurve"/>
      <point x="189" y="-4"/>
      <point x="117" y="30"/>
      <point x="65" y="92"/>
      <point x="36" y="181"/>
      <point x="36" y="235" type="qcurve"/>
      <point x="36" y="310"/>
      <point x="78" y="408"/>
      <point x="142" y="464"/>
      <point x="217" y="486"/>
      <point x="250" y="486" type="qcurve" name="mh01"/>
      <point x="300" y="486"/>
      <point x="340" y="466" type="qcurve"/>
      <point x="397" y="487" type="line"/>
      <point x="420" y="468" type="line"/>
    </contour>
    <contour>
      <point x="247" y="72" type="qcurve"/>
      <point x="273" y="72"/>
      <point x="317" y="90"/>
      <point x="330" y="104" type="qcurve"/>
      <point x="330" y="386" type="line"/>
      <point x="321" y="395"/>
      <point x="278" y="411"/>
      <point x="252" y="411" type="qcurve"/>
      <point x="234" y="411"/>
      <point x="192" y="396"/>
      <point x="155" y="357"/>
      <point x="131" y="291"/>
      <point x="131" y="241" type="qcurve"/>
      <point x="131" y="196"/>
      <point x="151" y="131"/>
      <point x="184" y="91"/>
      <point x="225" y="72"/>
    </contour>
  </outline>
</glyph>
<glyph name="r" format="1">
  <advance width="405"/>
  <unicode hex="0072"/>
  <outline>
    <contour>
      <point x="29" y="464" type="line" name="hr00"/>
      <point x="42" y="466"/>
      <point x="74" y="472"/>
      <point x="107" y="478"/>
      <point x="137" y="483"/>
      <point x="147" y="485" type="qcurve"/>
      <point x="178" y="439" type="line"/>
      <point x="198" y="462"/>
      <point x="254" y="485"/>
      <point x="282" y="485" type="qcurve"/>
      <point x="326" y="485"/>
      <point x="387" y="441"/>
      <point x="402" y="409" type="qcurve"/>
      <point x="303" y="359" type="line"/>
      <point x="272" y="407" type="line"/>
      <point x="255" y="407"/>
      <point x="224" y="392"/>
      <point x="198" y="365"/>
      <point x="183" y="326"/>
      <point x="183" y="301" type="qcurve"/>
      <point x="183" y="85" type="line"/>
      <point x="183" y="81"/>
      <point x="200" y="78" type="qcurve"/>
      <point x="313" y="54" type="line"/>
      <point x="313" y="0" type="line"/>
      <point x="43" y="0" type="line"/>
      <point x="31" y="54" type="line"/>
      <point x="93" y="68" type="line"/>
      <point x="93" y="405" type="line"/>
      <point x="38" y="405" type="line"/>
    </contour>
  </outline>
</glyph>
<glyph name="s" format="1">
  <advance width="404"/>
  <unicode hex="0073"/>
  <outline>
    <contour>
      <point x="205" y="486" type="qcurve" name="hr00"/>
      <point x="238" y="486"/>
      <point x="292" y="468"/>
      <point x="333" y="440"/>
      <point x="362" y="405"/>
      <point x="371" y="387" type="qcurve"/>
      <point x="269" y="348" type="line"/>
      <point x="246" y="399" type="line"/>
      <point x="242" y="401"/>
      <point x="222" y="409"/>
      <point x="203" y="409" type="qcurve"/>
      <point x="180" y="409"/>
      <point x="142" y="382"/>
      <point x="142" y="356" type="qcurve"/>
      <point x="142" y="330"/>
      <point x="192" y="297"/>
      <point x="244" y="276" type="qcurve"/>
      <point x="280" y="261"/>
      <point x="327" y="229"/>
      <point x="354" y="193"/>
      <point x="365" y="154"/>
      <point x="365" y="134" type="qcurve"/>
      <point x="365" y="97"/>
      <point x="335" y="45"/>
      <point x="287" y="12"/>
      <point x="227" y="-4"/>
      <point x="197" y="-4" type="qcurve"/>
      <point x="168" y="-4"/>
      <point x="112" y="13"/>
      <point x="65" y="41"/>
      <point x="31" y="80"/>
      <point x="24" y="101" type="qcurve"/>
      <point x="127" y="140" type="line"/>
      <point x="151" y="82" type="line"/>
      <point x="158" y="79"/>
      <point x="182" y="72"/>
      <point x="203" y="72" type="qcurve"/>
      <point x="213" y="72"/>
      <point x="237" y="78"/>
      <point x="257" y="91"/>
      <point x="270" y="113"/>
      <point x="270" y="128" type="qcurve"/>
      <point x="270" y="165"/>
      <point x="221" y="186" type="qcurve"/>
      <point x="179" y="204"/>
      <point x="114" y="236"/>
      <point x="70" y="273"/>
      <point x="47" y="320"/>
      <point x="47" y="354" type="qcurve"/>
      <point x="47" y="385"/>
      <point x="74" y="435"/>
      <point x="118" y="468"/>
      <point x="175" y="486"/>
    </contour>
  </outline>
</glyph>
<glyph name="t" format="1">
  <advance width="325"/>
  <unicode hex="0074"/>
  <outline>
    <contour>
      <point x="4" y="476" type="line" name="hr00"/>
      <point x="11" y="486" type="line"/>
      <point x="100" y="486" type="line"/>
      <point x="100" y="653" type="line"/>
      <point x="180" y="672" type="line" name="mh01"/>
      <point x="185" y="657" type="line"/>
      <point x="185" y="486" type="line"/>
      <point x="289" y="486" type="line"/>
      <point x="294" y="486"/>
      <point x="294" y="480" type="qcurve"/>
      <point x="294" y="411" type="line"/>
      <point x="185" y="411" type="line"/>
      <point x="185" y="124" type="line"/>
      <point x="185" y="92"/>
      <point x="204" y="73"/>
      <point x="224" y="73" type="qcurve"/>
      <point x="233" y="73"/>
      <point x="253" y="79"/>
      <point x="272" y="88"/>
      <point x="287" y="97"/>
      <point x="292" y="101" type="qcurve"/>
      <point x="293" y="96"/>
      <point x="299" y="78"/>
      <point x="306" y="59"/>
      <point x="311" y="41"/>
      <point x="313" y="35" type="qcurve"/>
      <point x="299" y="22"/>
      <point x="245" y="-4"/>
      <point x="207" y="-4" type="qcurve"/>
      <point x="159" y="-4"/>
      <point x="100" y="48"/>
      <point x="100" y="107" type="qcurve"/>
      <point x="100" y="411" type="line"/>
      <point x="18" y="411" type="line"/>
    </contour>
  </outline>
</glyph>
<glyph name="u" format="1">
  <advance width="510"/>
  <unicode hex="0075"/>
  <outline>
    <contour>
      <point x="22" y="406" type="line" name="hr00"/>
      <point x="12" y="464" type="line"/>
      <point x="136" y="486" type="line" name="mh01"/>
      <point x="167" y="453" type="line"/>
      <point x="167" y="182" type="line"/>
      <point x="167" y="145"/>
      <point x="182" y="102"/>
      <point x="206" y="79"/>
      <point x="237" y="72"/>
      <point x="254" y="72" type="qcurve"/>
      <point x="264" y="72"/>
      <point x="291" y="79"/>
      <point x="316" y="93"/>
      <point x="337" y="113"/>
      <point x="342" y="125" type="qcurve"/>
      <point x="342" y="406" type="line"/>
      <point x="290" y="406" type="line"/>
      <point x="281" y="464" type="line"/>
      <point x="403" y="487" type="line"/>
      <point x="432" y="453" type="line"/>
      <point x="432" y="100" type="line"/>
      <point x="432" y="79"/>
      <point x="442" y="67"/>
      <point x="450" y="67" type="qcurve"/>
      <point x="456" y="67"/>
      <point x="465" y="69"/>
      <point x="468" y="69" type="qcurve"/>
      <point x="482" y="24" type="line"/>
      <point x="474" y="16"/>
      <point x="442" y="-4"/>
      <point x="417" y="-4" type="qcurve"/>
      <point x="365" y="-4"/>
      <point x="349" y="41" type="qcurve"/>
      <point x="327" y="20"/>
      <point x="269" y="-4"/>
      <point x="237" y="-4" type="qcurve"/>
      <point x="205" y="-4"/>
      <point x="147" y="14"/>
      <point x="103" y="54"/>
      <point x="77" y="117"/>
      <point x="77" y="161" type="qcurve"/>
      <point x="77" y="406" type="line"/>
    </contour>
  </outline>
</glyph>
<glyph name="braceleft" format="1">
  <advance width="337"/>
  <unicode hex="007B"/>
  <outline>
    <contour>
      <point x="7" y="316" type="line" name="hr00"/>
      <point x="55" y="316"/>
      <point x="118" y="372"/>
      <point x="118" y="426" type="qcurve"/>
      <point x="118" y="432"/>
      <point x="117" y="452"/>
      <point x="117" y="476"/>
      <point x="116" y="500"/>
      <point x="116" y="509" type="qcurve" name="hr01"/>
      <point x="116" y="553"/>
      <point x="126" y="626"/>
      <point x="157" y="678"/>
      <point x="216" y="706"/>
      <point x="265" y="706" type="qcurve"/>
      <point x="284" y="706"/>
      <point x="321" y="700"/>
      <point x="336" y="697" type="qcurve"/>
      <point x="338" y="697"/>
      <point x="340" y="696"/>
      <point x="342" y="696" type="qcurve"/>
      <point x="312" y="600" type="line"/>
      <point x="241" y="624" type="line"/>
      <point x="223" y="614"/>
      <point x="210" y="559"/>
      <point x="210" y="526" type="qcurve"/>
      <point x="210" y="489"/>
      <point x="211" y="447"/>
      <point x="211" y="426" type="qcurve"/>
      <point x="211" y="393"/>
      <point x="199" y="338"/>
      <point x="174" y="298"/>
      <point x="153" y="286" type="qcurve"/>
      <point x="133" y="275"/>
      <point x="106" y="273" type="qcurve"/>
      <point x="160" y="271"/>
      <point x="185" y="234" type="qcurve"/>
      <point x="211" y="195"/>
      <point x="211" y="121" type="qcurve"/>
      <point x="211" y="98"/>
      <point x="210" y="55"/>
      <point x="210" y="33" type="qcurve"/>
      <point x="210" y="14"/>
      <point x="212" y="-22"/>
      <point x="218" y="-52"/>
      <point x="230" y="-74"/>
      <point x="241" y="-79" type="qcurve"/>
      <point x="312" y="-55" type="line" name="hr02"/>
      <point x="342" y="-151" type="line"/>
      <point x="326" y="-154"/>
      <point x="286" y="-162"/>
      <point x="265" y="-162" type="qcurve" name="hr03"/>
      <point x="215" y="-162"/>
      <point x="157" y="-128"/>
      <point x="125" y="-72"/>
      <point x="116" y="0"/>
      <point x="116" y="38" type="qcurve"/>
      <point x="116" y="61"/>
      <point x="118" y="116"/>
      <point x="118" y="135" type="qcurve"/>
      <point x="118" y="159"/>
      <point x="100" y="196"/>
      <point x="69" y="220"/>
      <point x="29" y="233"/>
      <point x="7" y="233" type="qcurve"/>
    </contour>
  </outline>
</glyph>
<glyph name="braceright" format="1">
  <advance width="337"/>
  <unicode hex="007D"/>
  <outline>
    <contour>
      <point x="330" y="233" type="line" name="hr00"/>
      <point x="308" y="233"/>
      <point x="268" y="220"/>
      <point x="237" y="196"/>
      <point x="219" y="159"/>
      <point x="219" y="135" type="qcurve"/>
      <point x="219" y="116"/>
      <point x="221" y="61"/>
      <point x="221" y="38" type="qcurve"/>
      <point x="221" y="0"/>
      <point x="212" y="-72"/>
      <point x="180" y="-128"/>
      <point x="121" y="-162"/>
      <point x="72" y="-162" type="qcurve"/>
      <point x="51" y="-162"/>
      <point x="11" y="-154"/>
      <point x="-5" y="-151" type="qcurve"/>
      <point x="25" y="-55" type="line"/>
      <point x="96" y="-79" type="line"/>
      <point x="107" y="-74"/>
      <point x="119" y="-52"/>
      <point x="125" y="-22"/>
      <point x="127" y="14"/>
      <point x="127" y="33" type="qcurve" name="hr01"/>
      <point x="127" y="55"/>
      <point x="126" y="98"/>
      <point x="126" y="121" type="qcurve"/>
      <point x="126" y="195"/>
      <point x="152" y="234" type="qcurve"/>
      <point x="177" y="273"/>
      <point x="232" y="276" type="qcurve"/>
      <point x="204" y="276"/>
      <point x="184" y="287" type="qcurve"/>
      <point x="163" y="298"/>
      <point x="138" y="338"/>
      <point x="126" y="393"/>
      <point x="126" y="426" type="qcurve"/>
      <point x="126" y="447"/>
      <point x="127" y="489"/>
      <point x="127" y="526" type="qcurve"/>
      <point x="127" y="559"/>
      <point x="114" y="614"/>
      <point x="96" y="624" type="qcurve"/>
      <point x="25" y="600" type="line"/>
      <point x="-5" y="696" type="line"/>
      <point x="-3" y="696"/>
      <point x="-1" y="697"/>
      <point x="1" y="697" type="qcurve"/>
      <point x="16" y="700"/>
      <point x="53" y="706"/>
      <point x="72" y="706" type="qcurve"/>
      <point x="121" y="706"/>
      <point x="179" y="678"/>
      <point x="211" y="626"/>
      <point x="221" y="553"/>
      <point x="221" y="509" type="qcurve"/>
      <point x="221" y="500"/>
      <point x="220" y="476"/>
      <point x="220" y="452"/>
      <point x="219" y="432"/>
      <point x="219" y="426" type="qcurve"/>
      <point x="219" y="372"/>
      <point x="282" y="316"/>
      <point x="330" y="316" type="qcurve"/>
    </contour>
  </outline>
</glyph>
<glyph name="asciitilde" format="1">
  <advance width="410"/>
  <unicode hex="007E"/>
  <outline>
    <contour>
      <point x="332" y="679" type="line" name="hr00"/>
      <point x="391" y="611" type="line"/>
      <point x="372" y="590"/>
      <point x="317" y="552"/>
      <point x="287" y="552" type="qcurve"/>
      <point x="266" y="552"/>
      <point x="232" y="565"/>
      <point x="200" y="580"/>
      <point x="166" y="593"/>
      <point x="146" y="593" type="qcurve" name="hr01"/>
      <point x="122" y="593"/>
      <point x="91" y="562"/>
      <point x="84" y="544" type="qcurve"/>
      <point x="25" y="579" type="line"/>
      <point x="26" y="592" type="line" name="hr02"/>
      <point x="33" y="607"/>
      <point x="54" y="637"/>
      <point x="83" y="660"/>
      <point x="120" y="675"/>
      <point x="143" y="675" type="qcurve"/>
      <point x="164" y="675"/>
      <point x="203" y="661"/>
      <point x="220" y="652" type="qcurve"/>
      <point x="251" y="637" type="line"/>
      <point x="265" y="630"/>
      <point x="277" y="630" type="qcurve"/>
    </contour>
  </outline>
</glyph>
<glyph name="exclamdown" format="1">
  <advance width="254"/>
  <unicode hex="00A1"/>
  <outline>
    <contour>
      <point x="67" y="432" type="qcurve" name="hr00"/>
      <point x="67" y="458"/>
      <point x="101" y="492"/>
      <point x="127" y="492" type="qcurve" name="mh01"/>
      <point x="150" y="492"/>
      <point x="186" y="457"/>
      <point x="186" y="432" type="qcurve"/>
      <point x="186" y="409"/>
      <point x="150" y="374"/>
      <point x="127" y="374" type="qcurve"/>
      <point x="101" y="374"/>
      <point x="67" y="408"/>
    </contour>
    <contour>
      <point x="91" y="251" type="line"/>
      <point x="160" y="251" type="line"/>
      <point x="197" y="-164" type="line"/>
      <point x="176" y="-202" type="line"/>
      <point x="59" y="-189" type="line"/>
    </contour>
  </outline>
</glyph>
<glyph name="cent" format="1">
  <advance width="437"/>
  <unicode hex="00A2"/>
  <outline>
    <contour>
      <point x="200" y="-210" type="line" name="hr00"/>
      <point x="200" y="0" type="line"/>
      <point x="166" y="7"/>
      <point x="105" y="42"/>
      <point x="58" y="100"/>
      <point x="31" y="180"/>
      <point x="31" y="233" type="qcurve"/>
      <point x="31" y="294"/>
      <point x="59" y="382"/>
      <point x="106" y="441"/>
      <point x="167" y="475"/>
      <point x="200" y="481" type="qcurve"/>
      <point x="200" y="686" type="line" name="ah01"/>
      <point x="290" y="686" type="line"/>
      <point x="290" y="481" type="line"/>
      <point x="316" y="476"/>
      <point x="357" y="455"/>
      <point x="387" y="430"/>
      <point x="406" y="404"/>
      <point x="411" y="395" type="qcurve"/>
      <point x="312" y="348" type="line"/>
      <point x="280" y="406" type="line"/>
      <point x="276" y="407"/>
      <point x="271" y="408" type="qcurve"/>
      <point x="266" y="409"/>
      <point x="255" y="411"/>
      <point x="247" y="411" type="qcurve"/>
      <point x="187" y="411"/>
      <point x="126" y="321"/>
      <point x="126" y="235" type="qcurve"/>
      <point x="126" y="160"/>
      <point x="199" y="71"/>
      <point x="259" y="71" type="qcurve"/>
      <point x="287" y="71"/>
      <point x="349" y="92"/>
      <point x="369" y="112" type="qcurve"/>
      <point x="374" y="98"/>
      <point x="386" y="55"/>
      <point x="391" y="42" type="qcurve"/>
      <point x="371" y="27"/>
      <point x="322" y="5"/>
      <point x="290" y="0" type="qcurve"/>
      <point x="290" y="-210" type="line"/>
    </contour>
  </outline>
</glyph>
<glyph name="sterling" format="1">
  <advance width="527"/>
  <unicode hex="00A3"/>
  <outline>
    <contour>
      <point x="241" y="338" type="line" name="hr00"/>
      <point x="238" y="283"/>
      <point x="221" y="177"/>
      <point x="201" y="136" type="qcurve"/>
      <point x="231" y="134"/>
      <point x="287" y="119"/>
      <point x="336" y="103"/>
      <point x="374" y="89"/>
      <point x="385" y="89" type="qcurve"/>
      <point x="461" y="140" type="line"/>
      <point x="500" y="34" type="line"/>
      <point x="480" y="12"/>
      <point x="416" y="-4"/>
      <point x="387" y="-4" type="qcurve"/>
      <point x="354" y="-4"/>
      <point x="295" y="10"/>
      <point x="243" y="27"/>
      <point x="197" y="41"/>
      <point x="178" y="41" type="qcurve"/>
      <point x="143" y="41"/>
      <point x="110" y="13"/>
      <point x="105" y="-3" type="qcurve"/>
      <point x="32" y="-3" type="line"/>
      <point x="31" y="-1"/>
      <point x="31" y="2" type="qcurve"/>
      <point x="30" y="5"/>
      <point x="30" y="16" type="qcurve"/>
      <point x="30" y="36"/>
      <point x="51" y="81"/>
      <point x="72" y="99" type="qcurve"/>
      <point x="112" y="139"/>
      <point x="143" y="267"/>
      <point x="147" y="338" type="qcurve"/>
      <point x="58" y="338" type="line"/>
      <point x="58" y="404" type="line" name="hr01"/>
      <point x="66" y="413" type="line"/>
      <point x="150" y="413" type="line"/>
      <point x="150" y="438"/>
      <point x="148" y="485"/>
      <point x="148" y="507" type="qcurve"/>
      <point x="148" y="558"/>
      <point x="173" y="628"/>
      <point x="218" y="671"/>
      <point x="277" y="690"/>
      <point x="312" y="690" type="qcurve" name="ah01"/>
      <point x="340" y="690"/>
      <point x="389" y="678"/>
      <point x="429" y="661"/>
      <point x="457" y="644"/>
      <point x="465" y="638" type="qcurve"/>
      <point x="394" y="547" type="line"/>
      <point x="314" y="615" type="line"/>
      <point x="288" y="614"/>
      <point x="260" y="594"/>
      <point x="246" y="556"/>
      <point x="244" y="501"/>
      <point x="244" y="465" type="qcurve"/>
      <point x="244" y="413" type="line"/>
      <point x="384" y="413" type="line"/>
      <point x="391" y="413"/>
      <point x="391" y="405" type="qcurve"/>
      <point x="391" y="338" type="line"/>
    </contour>
  </outline>
</glyph>
<glyph name="currency" format="1">
  <advance width="602"/>
  <unicode hex="00A4"/>
  <outline>
    <contour>
      <point x="80" y="346" type="qcurve" name="hr00"/>
      <point x="80" y="381"/>
      <point x="101" y="446"/>
      <point x="120" y="473" type="qcurve"/>
      <point x="51" y="543" type="line"/>
      <point x="120" y="614" type="line"/>
      <point x="195" y="539" type="line"/>
      <point x="218" y="552"/>
      <point x="271" y="566"/>
      <point x="300" y="566" type="qcurve" name="mh01"/>
      <point x="358" y="566"/>
      <point x="406" y="538" type="qcurve"/>
      <point x="482" y="614" type="line"/>
      <point x="552" y="543" type="line"/>
      <point x="480" y="472" type="line"/>
      <point x="499" y="445"/>
      <point x="520" y="381"/>
      <point x="520" y="346" type="qcurve"/>
      <point x="520" y="311"/>
      <point x="500" y="249"/>
      <point x="482" y="223" type="qcurve"/>
      <point x="552" y="155" type="line"/>
      <point x="482" y="84" type="line"/>
      <point x="409" y="156" type="line"/>
      <point x="385" y="142"/>
      <point x="330" y="127"/>
      <point x="300" y="127" type="qcurve"/>
      <point x="242" y="127"/>
      <point x="192" y="155" type="qcurve"/>
      <point x="120" y="84" type="line"/>
      <point x="51" y="155" type="line"/>
      <point x="118" y="222" type="line"/>
      <point x="100" y="248"/>
      <point x="80" y="311"/>
    </contour>
    <contour>
      <point x="175" y="346" type="qcurve"/>
      <point x="175" y="291"/>
      <point x="245" y="219"/>
      <point x="300" y="219" type="qcurve"/>
      <point x="355" y="219"/>
      <point x="425" y="291"/>
      <point x="425" y="346" type="qcurve"/>
      <point x="425" y="401"/>
      <point x="355" y="473"/>
      <point x="300" y="473" type="qcurve"/>
      <point x="245" y="473"/>
      <point x="175" y="401"/>
    </contour>
  </outline>
</glyph>
<glyph name="brokenbar" format="1">
  <advance width="258"/>
  <unicode hex="00A6"/>
  <outline>
    <contour>
      <point x="177" y="194" type="line" name="hr00"/>
      <point x="177" y="-186" type="line"/>
      <point x="81" y="-186" type="line"/>
      <point x="81" y="194" type="line" name="ah02"/>
    </contour>
    <contour>
      <point x="177" y="690" type="line"/>
      <point x="177" y="310" type="line"/>
      <point x="81" y="310" type="line"/>
      <point x="81" y="690" type="line" name="ah01"/>
    </contour>
  </outline>
</glyph>
<glyph name="section" format="1">
  <advance width="503"/>
  <unicode hex="00A7"/>
  <outline>
    <contour>
      <point x="459" y="241" type="qcurve" name="hr00"/>
      <point x="459" y="206"/>
      <point x="428" y="147"/>
      <point x="405" y="124" type="qcurve"/>
      <point x="427" y="103"/>
      <point x="451" y="51"/>
      <point x="451" y="17" type="qcurve"/>
      <point x="451" y="-30"/>
      <point x="413" y="-97"/>
      <point x="350" y="-141"/>
      <point x="268" y="-161"/>
      <point x="225" y="-161" type="qcurve"/>
      <point x="170" y="-161"/>
      <point x="89" y="-140"/>
      <point x="48" y="-124" type="qcurve"/>
      <point x="56" y="45" type="line"/>
      <point x="124" y="45" type="line"/>
      <point x="138" y="-68" type="line"/>
      <point x="155" y="-73"/>
      <point x="202" y="-82"/>
      <point x="229" y="-82" type="qcurve"/>
      <point x="252" y="-82"/>
      <point x="294" y="-73"/>
      <point x="327" y="-52"/>
      <point x="347" y="-20"/>
      <point x="347" y="3" type="qcurve"/>
      <point x="347" y="34"/>
      <point x="304" y="76"/>
      <point x="238" y="111"/>
      <point x="163" y="144"/>
      <point x="97" y="187"/>
      <point x="54" y="247"/>
      <point x="54" y="291" type="qcurve"/>
      <point x="54" y="326"/>
      <point x="85" y="384"/>
      <point x="109" y="406" type="qcurve"/>
      <point x="83" y="428"/>
      <point x="52" y="485"/>
      <point x="52" y="523" type="qcurve"/>
      <point x="52" y="559"/>
      <point x="83" y="620"/>
      <point x="138" y="665"/>
      <point x="214" y="691"/>
      <point x="259" y="691" type="qcurve" name="ah01"/>
      <point x="313" y="691"/>
      <point x="395" y="674"/>
      <point x="433" y="661" type="qcurve"/>
      <point x="446" y="489" type="line"/>
      <point x="377" y="489" type="line" name="hr01"/>
      <point x="334" y="602" type="line"/>
      <point x="320" y="607"/>
      <point x="284" y="612"/>
      <point x="261" y="612" type="qcurve"/>
      <point x="215" y="612"/>
      <point x="156" y="568"/>
      <point x="156" y="535" type="qcurve"/>
      <point x="156" y="510"/>
      <point x="187" y="474"/>
      <point x="234" y="445"/>
      <point x="289" y="423"/>
      <point x="313" y="411" type="qcurve"/>
      <point x="354" y="391"/>
      <point x="410" y="352"/>
      <point x="444" y="311"/>
      <point x="459" y="266"/>
    </contour>
    <contour>
      <point x="354" y="232" type="qcurve"/>
      <point x="354" y="254"/>
      <point x="323" y="289"/>
      <point x="274" y="318"/>
      <point x="213" y="345"/>
      <point x="183" y="360" type="qcurve"/>
      <point x="172" y="349"/>
      <point x="158" y="322"/>
      <point x="158" y="306" type="qcurve"/>
      <point x="158" y="273"/>
      <point x="218" y="231"/>
      <point x="269" y="208" type="qcurve"/>
      <point x="286" y="200"/>
      <point x="317" y="185"/>
      <point x="331" y="177" type="qcurve"/>
      <point x="340" y="189"/>
      <point x="354" y="218"/>
    </contour>
  </outline>
</glyph>
<glyph name="dieresis" format="1">
  <advance width="386"/>
  <unicode hex="00A8"/>
  <outline>
    <contour>
      <point x="216" y="609" type="qcurve" name="hr00"/>
      <point x="216" y="632"/>
      <point x="251" y="668"/>
      <point x="276" y="668" type="qcurve"/>
      <point x="300" y="668"/>
      <point x="334" y="632"/>
      <point x="334" y="609" type="qcurve"/>
      <point x="334" y="585"/>
      <point x="299" y="550"/>
      <point x="276" y="550" type="qcurve"/>
      <point x="252" y="550"/>
      <point x="216" y="586"/>
    </contour>
    <contour>
      <point x="52" y="609" type="qcurve"/>
      <point x="52" y="632"/>
      <point x="85" y="668"/>
      <point x="110" y="668" type="qcurve" name="mh01"/>
      <point x="134" y="668"/>
      <point x="169" y="632"/>
      <point x="169" y="609" type="qcurve"/>
      <point x="169" y="584"/>
      <point x="133" y="550"/>
      <point x="110" y="550" type="qcurve"/>
      <point x="86" y="550"/>
      <point x="52" y="585"/>
    </contour>
  </outline>
</glyph>
<glyph name="copyright" format="1">
  <advance width="716"/>
  <unicode hex="00A9"/>
  <outline>
    <contour>
      <point x="471" y="216" type="line" name="hr00"/>
      <point x="454" y="205"/>
      <point x="403" y="185"/>
      <point x="370" y="185" type="qcurve"/>
      <point x="331" y="185"/>
      <point x="263" y="211"/>
      <point x="212" y="258"/>
      <point x="183" y="325"/>
      <point x="183" y="367" type="qcurve"/>
      <point x="183" y="412"/>
      <point x="212" y="484"/>
      <point x="263" y="534"/>
      <point x="332" y="560"/>
      <point x="371" y="560" type="qcurve"/>
      <point x="385" y="560"/>
      <point x="408" y="559"/>
      <point x="417" y="558" type="qcurve"/>
      <point x="443" y="553" type="line"/>
      <point x="452" y="432" type="line"/>
      <point x="405" y="432" type="line"/>
      <point x="391" y="483" type="line"/>
      <point x="387" y="483"/>
      <point x="378" y="484"/>
      <point x="373" y="484" type="qcurve"/>
      <point x="322" y="484"/>
      <point x="260" y="428"/>
      <point x="260" y="370" type="qcurve"/>
      <point x="260" y="322"/>
      <point x="320" y="259"/>
      <point x="370" y="259" type="qcurve"/>
      <point x="391" y="259"/>
      <point x="432" y="273"/>
      <point x="445" y="281" type="qcurve"/>
    </contour>
    <contour>
      <point x="120" y="374" type="qcurve"/>
      <point x="120" y="324"/>
      <point x="157" y="238"/>
      <point x="222" y="173"/>
      <point x="308" y="136"/>
      <point x="358" y="136" type="qcurve"/>
      <point x="407" y="136"/>
      <point x="494" y="173"/>
      <point x="559" y="238"/>
      <point x="596" y="324"/>
      <point x="596" y="374" type="qcurve"/>
      <point x="596" y="423"/>
      <point x="559" y="510"/>
      <point x="494" y="575"/>
      <point x="407" y="612"/>
      <point x="358" y="612" type="qcurve"/>
      <point x="308" y="612"/>
      <point x="222" y="575"/>
      <point x="157" y="510"/>
      <point x="120" y="423"/>
    </contour>
    <contour>
      <point x="32" y="374" type="qcurve"/>
      <point x="32" y="441"/>
      <point x="83" y="560"/>
      <point x="171" y="649"/>
      <point x="290" y="700"/>
      <point x="358" y="700" type="qcurve" name="mh01"/>
      <point x="425" y="700"/>
      <point x="544" y="649"/>
      <point x="633" y="560"/>
      <point x="684" y="441"/>
      <point x="684" y="374" type="qcurve"/>
      <point x="684" y="306"/>
      <point x="633" y="187"/>
      <point x="544" y="99"/>
      <point x="425" y="48"/>
      <point x="358" y="48" type="qcurve"/>
      <point x="290" y="48"/>
      <point x="171" y="99"/>
      <point x="83" y="187"/>
      <point x="32" y="306"/>
    </contour>
  </outline>
</glyph>
<glyph name="ordfeminine" format="1">
  <advance width="342"/>
  <unicode hex="00AA"/>
  <outline>
    <contour>
      <point x="275" y="541" type="qcurve" name="hr00"/>
      <point x="275" y="502"/>
      <point x="278" y="484"/>
      <point x="283" y="484" type="qcurve"/>
      <point x="286" y="484"/>
      <point x="294" y="487"/>
      <point x="296" y="487" type="qcurve"/>
      <point x="311" y="441" type="line"/>
      <point x="303" y="435"/>
      <point x="274" y="419"/>
      <point x="255" y="419" type="qcurve"/>
      <point x="237" y="419"/>
      <point x="213" y="432"/>
      <point x="206" y="443" type="qcurve"/>
      <point x="192" y="429"/>
      <point x="154" y="417"/>
      <point x="132" y="417" type="qcurve"/>
      <point x="92" y="417"/>
      <point x="38" y="465"/>
      <point x="38" y="500" type="qcurve"/>
      <point x="38" y="531"/>
      <point x="65" y="569"/>
      <point x="109" y="589"/>
      <point x="165" y="596"/>
      <point x="194" y="596" type="qcurve"/>
      <point x="194" y="605" type="line"/>
      <point x="194" y="628"/>
      <point x="171" y="642"/>
      <point x="154" y="642" type="qcurve"/>
      <point x="150" y="642"/>
      <point x="135" y="640"/>
      <point x="130" y="639" type="qcurve"/>
      <point x="126" y="615" type="line"/>
      <point x="39" y="632" type="line"/>
      <point x="44" y="653"/>
      <point x="68" y="682"/>
      <point x="100" y="701"/>
      <point x="137" y="710"/>
      <point x="155" y="710" type="qcurve" name="mh01"/>
      <point x="200" y="710"/>
      <point x="249" y="683"/>
      <point x="271" y="637"/>
      <point x="275" y="575"/>
    </contour>
    <contour>
      <point x="149" y="478" type="qcurve"/>
      <point x="165" y="478"/>
      <point x="189" y="492"/>
      <point x="194" y="503" type="qcurve"/>
      <point x="194" y="546" type="line"/>
      <point x="181" y="546"/>
      <point x="154" y="543"/>
      <point x="132" y="534"/>
      <point x="118" y="519"/>
      <point x="118" y="507" type="qcurve"/>
      <point x="118" y="497"/>
      <point x="131" y="478"/>
    </contour>
  </outline>
</glyph>
<glyph name="registered" format="1">
  <advance width="716"/>
  <unicode hex="00AE"/>
  <outline>
    <contour>
      <point x="32" y="374" type="qcurve" name="hr00"/>
      <point x="32" y="441"/>
      <point x="83" y="560"/>
      <point x="171" y="649"/>
      <point x="290" y="700"/>
      <point x="358" y="700" type="qcurve"/>
      <point x="425" y="700"/>
      <point x="544" y="649"/>
      <point x="633" y="560"/>
      <point x="684" y="441"/>
      <point x="684" y="374" type="qcurve"/>
      <point x="684" y="306"/>
      <point x="633" y="187"/>
      <point x="544" y="99"/>
      <point x="425" y="48"/>
      <point x="358" y="48" type="qcurve"/>
      <point x="290" y="48"/>
      <point x="171" y="99"/>
      <point x="83" y="187"/>
      <point x="32" y="306"/>
    </contour>
    <contour>
      <point x="120" y="374" type="qcurve"/>
      <point x="120" y="324"/>
      <point x="157" y="238"/>
      <point x="222" y="173"/>
      <point x="308" y="136"/>
      <point x="358" y="136" type="qcurve"/>
      <point x="407" y="136"/>
      <point x="494" y="173"/>
      <point x="559" y="238"/>
      <point x="596" y="324"/>
      <point x="596" y="374" type="qcurve"/>
      <point x="596" y="423"/>
      <point x="559" y="510"/>
      <point x="494" y="575"/>
      <point x="407" y="612"/>
      <point x="358" y="612" type="qcurve"/>
      <point x="308" y="612"/>
      <point x="222" y="575"/>
      <point x="157" y="510"/>
      <point x="120" y="423"/>
    </contour>
    <contour>
      <point x="507" y="243" type="line"/>
      <point x="507" y="193" type="line"/>
      <point x="419" y="193" type="line"/>
      <point x="362" y="316" type="line"/>
      <point x="351" y="314"/>
      <point x="341" y="314" type="qcurve"/>
      <point x="321" y="314" type="line"/>
      <point x="321" y="250" type="line"/>
      <point x="367" y="239" type="line"/>
      <point x="367" y="193" type="line"/>
      <point x="233" y="193" type="line"/>
      <point x="229" y="241" type="line"/>
      <point x="252" y="249" type="line"/>
      <point x="252" y="496" type="line"/>
      <point x="244" y="497"/>
      <point x="234" y="500"/>
      <point x="228" y="501" type="qcurve"/>
      <point x="228" y="559" type="line"/>
      <point x="328" y="559" type="line"/>
      <point x="373" y="559"/>
      <point x="436" y="540"/>
      <point x="477" y="506"/>
      <point x="495" y="461"/>
      <point x="495" y="436" type="qcurve"/>
      <point x="495" y="396"/>
      <point x="459" y="347"/>
      <point x="430" y="333" type="qcurve"/>
      <point x="476" y="249" type="line"/>
    </contour>
    <contour>
      <point x="335" y="379" type="line"/>
      <point x="382" y="379"/>
      <point x="422" y="409"/>
      <point x="422" y="436" type="qcurve"/>
      <point x="422" y="465"/>
      <point x="377" y="492"/>
      <point x="339" y="492" type="qcurve"/>
      <point x="321" y="492" type="line"/>
      <point x="321" y="379" type="line"/>
    </contour>
  </outline>
</glyph>
<glyph name="degree" format="1">
  <advance width="305"/>
  <unicode hex="00B0"/>
  <outline>
    <contour>
      <point x="112" y="596" type="qcurve" name="hr00"/>
      <point x="112" y="587"/>
      <point x="115" y="564"/>
      <point x="124" y="545"/>
      <point x="139" y="531"/>
      <point x="152" y="531" type="qcurve"/>
      <point x="164" y="531"/>
      <point x="179" y="544"/>
      <point x="189" y="564"/>
      <point x="193" y="587"/>
      <point x="193" y="596" type="qcurve"/>
      <point x="193" y="605"/>
      <point x="189" y="626"/>
      <point x="179" y="646"/>
      <point x="164" y="659"/>
      <point x="152" y="659" type="qcurve"/>
      <point x="139" y="659"/>
      <point x="124" y="646"/>
      <point x="115" y="626"/>
      <point x="112" y="605"/>
    </contour>
    <contour>
      <point x="33" y="596" type="qcurve"/>
      <point x="33" y="624"/>
      <point x="49" y="673"/>
      <point x="79" y="709"/>
      <point x="123" y="729"/>
      <point x="152" y="729" type="qcurve"/>
      <point x="179" y="729"/>
      <point x="224" y="709"/>
      <point x="255" y="673"/>
      <point x="272" y="624"/>
      <point x="272" y="596" type="qcurve"/>
      <point x="272" y="538"/>
      <point x="209" y="463"/>
      <point x="152" y="463" type="qcurve"/>
      <point x="94" y="463"/>
      <point x="33" y="538"/>
    </contour>
  </outline>
</glyph>
<glyph name="twosuperior" format="1">
  <advance width="300"/>
  <unicode hex="00B2"/>
  <outline>
    <contour>
      <point x="46" y="461" type="line" name="hr00"/>
      <point x="81" y="492" type="line"/>
      <point x="93" y="503"/>
      <point x="124" y="532"/>
      <point x="153" y="565"/>
      <point x="172" y="599"/>
      <point x="172" y="614" type="qcurve"/>
      <point x="172" y="632"/>
      <point x="155" y="647"/>
      <point x="139" y="647" type="qcurve" name="ah02"/>
      <point x="134" y="647"/>
      <point x="123" y="645"/>
      <point x="118" y="643" type="qcurve"/>
      <point x="103" y="607" type="line"/>
      <point x="35" y="628" type="line"/>
      <point x="49" y="670"/>
      <point x="115" y="709"/>
      <point x="152" y="709" type="qcurve" name="ah01"/>
      <point x="170" y="709"/>
      <point x="205" y="698"/>
      <point x="233" y="676"/>
      <point x="251" y="643"/>
      <point x="251" y="621" type="qcurve"/>
      <point x="251" y="592"/>
      <point x="227" y="546"/>
      <point x="194" y="511"/>
      <point x="159" y="485"/>
      <point x="149" y="476" type="qcurve"/>
      <point x="201" y="476" type="line"/>
      <point x="216" y="510" type="line"/>
      <point x="258" y="510" type="line"/>
      <point x="247" y="418" type="line"/>
      <point x="56" y="418" type="line"/>
    </contour>
  </outline>
</glyph>
<glyph name="threesuperior" format="1">
  <advance width="295"/>
  <unicode hex="00B3"/>
  <outline>
    <contour>
      <point x="66" y="509" type="line" name="hr00"/>
      <point x="83" y="495"/>
      <point x="115" y="474"/>
      <point x="139" y="474" type="qcurve"/>
      <point x="159" y="474"/>
      <point x="180" y="495"/>
      <point x="180" y="510" type="qcurve"/>
      <point x="180" y="528"/>
      <point x="142" y="541"/>
      <point x="109" y="541" type="qcurve"/>
      <point x="109" y="589" type="line"/>
      <point x="145" y="589"/>
      <point x="170" y="610"/>
      <point x="170" y="624" type="qcurve"/>
      <point x="170" y="632"/>
      <point x="156" y="648"/>
      <point x="141" y="648" type="qcurve"/>
      <point x="136" y="648"/>
      <point x="120" y="647"/>
      <point x="118" y="643" type="qcurve"/>
      <point x="104" y="613" type="line"/>
      <point x="38" y="635" type="line"/>
      <point x="67" y="709"/>
      <point x="152" y="709" type="qcurve" name="hr01"/>
      <point x="167" y="709"/>
      <point x="201" y="699"/>
      <point x="229" y="679"/>
      <point x="248" y="650"/>
      <point x="248" y="632" type="qcurve"/>
      <point x="248" y="605"/>
      <point x="221" y="574"/>
      <point x="199" y="569" type="qcurve"/>
      <point x="221" y="564"/>
      <point x="258" y="534"/>
      <point x="258" y="502" type="qcurve"/>
      <point x="258" y="479"/>
      <point x="238" y="446"/>
      <point x="205" y="424"/>
      <point x="162" y="414"/>
      <point x="139" y="414" type="qcurve"/>
      <point x="104" y="414"/>
      <point x="49" y="442"/>
      <point x="35" y="456" type="qcurve"/>
    </contour>
  </outline>
</glyph>
<glyph name="acute" format="1">
  <advance width="313"/>
  <unicode hex="00B4"/>
  <outline>
    <contour>
      <point x="168" y="700" type="line" name="hr00"/>
      <point x="200" y="708" type="line" name="mh01"/>
      <point x="261" y="627" type="line"/>
      <point x="93" y="505" type="line"/>
      <point x="52" y="549" type="line"/>
    </contour>
  </outline>
</glyph>
<glyph name="mu" format="1">
  <advance width="536"/>
  <unicode hex="00B5"/>
  <unicode hex="03BC"/>
  <outline>
    <contour>
      <point x="296" y="464" type="line" name="hr00"/>
      <point x="418" y="487" type="line"/>
      <point x="447" y="453" type="line"/>
      <point x="447" y="100" type="line"/>
      <point x="447" y="79"/>
      <point x="456" y="67"/>
      <point x="466" y="67" type="qcurve"/>
      <point x="471" y="67"/>
      <point x="480" y="69"/>
      <point x="483" y="69" type="qcurve"/>
      <point x="497" y="24" type="line"/>
      <point x="489" y="16"/>
      <point x="454" y="-4"/>
      <point x="430" y="-4" type="qcurve"/>
      <point x="381" y="-4"/>
      <point x="363" y="39" type="qcurve"/>
      <point x="320" y="-4"/>
      <point x="256" y="-4" type="qcurve"/>
      <point x="213" y="-4"/>
      <point x="179" y="10" type="qcurve"/>
      <point x="182" y="-5" type="line"/>
      <point x="182" y="-274" type="line"/>
      <point x="90" y="-274" type="line"/>
      <point x="90" y="406" type="line"/>
      <point x="36" y="406" type="line"/>
      <point x="27" y="464" type="line"/>
      <point x="151" y="486" type="line"/>
      <point x="182" y="454" type="line"/>
      <point x="182" y="416" type="line"/>
      <point x="182" y="393"/>
      <point x="183" y="335"/>
      <point x="183" y="302" type="qcurve"/>
      <point x="183" y="147" type="line"/>
      <point x="186" y="121"/>
      <point x="206" y="91"/>
      <point x="233" y="76"/>
      <point x="259" y="72"/>
      <point x="268" y="72" type="qcurve"/>
      <point x="276" y="72"/>
      <point x="300" y="78"/>
      <point x="326" y="90"/>
      <point x="349" y="108"/>
      <point x="355" y="120" type="qcurve"/>
      <point x="355" y="405" type="line"/>
      <point x="306" y="405" type="line"/>
    </contour>
  </outline>
</glyph>
<glyph name="paragraph" format="1">
  <advance width="584"/>
  <unicode hex="00B6"/>
  <outline>
    <contour>
      <point x="192" y="77" type="line" name="hr00"/>
      <point x="258" y="-13" type="line"/>
      <point x="298" y="18"/>
      <point x="348" y="68"/>
      <point x="349" y="100" type="curve"/>
      <point x="349" y="109"/>
      <point x="350" y="121"/>
      <point x="350" y="133" type="curve" smooth="yes"/>
      <point x="350" y="611" type="line"/>
      <point x="395" y="611" type="line"/>
      <point x="395" y="0" type="line" name="hr01"/>
      <point x="480" y="0" type="line"/>
      <point x="480" y="611" type="line"/>
      <point x="528" y="611" type="line"/>
      <point x="528" y="691" type="line"/>
      <point x="247" y="691" type="line" smooth="yes"/>
      <point x="80" y="691"/>
      <point x="28" y="582"/>
      <point x="28" y="500" type="curve" smooth="yes"/>
      <point x="28" y="383"/>
      <point x="114" y="305"/>
      <point x="260" y="299" type="curve"/>
      <point x="260" y="120" type="line"/>
    </contour>
  </outline>
</glyph>
<glyph name="cedilla" format="1">
  <advance width="406"/>
  <unicode hex="00B8"/>
  <outline>
    <contour>
      <point x="141" y="-82" type="line" name="hr00"/>
      <point x="176" y="15" type="line" name="mh01"/>
      <point x="275" y="15" type="line"/>
      <point x="252" y="-43" type="line"/>
      <point x="289" y="-53"/>
      <point x="344" y="-106"/>
      <point x="344" y="-156" type="qcurve"/>
      <point x="344" y="-207"/>
      <point x="263" y="-276"/>
      <point x="192" y="-276" type="qcurve"/>
      <point x="154" y="-276"/>
      <point x="97" y="-263"/>
      <point x="72" y="-249" type="qcurve"/>
      <point x="115" y="-163" type="line"/>
      <point x="186" y="-210" type="line"/>
      <point x="193" y="-210"/>
      <point x="215" y="-205"/>
      <point x="236" y="-193"/>
      <point x="250" y="-173"/>
      <point x="250" y="-159" type="qcurve"/>
      <point x="250" y="-136"/>
      <point x="214" y="-102"/>
      <point x="171" y="-102" type="qcurve"/>
      <point x="158" y="-101" type="line"/>
    </contour>
  </outline>
</glyph>
<glyph name="ordmasculine" format="1">
  <advance width="334"/>
  <unicode hex="00BA"/>
  <outline>
    <contour>
      <point x="114" y="561" type="qcurve" name="hr00"/>
      <point x="114" y="528"/>
      <point x="141" y="488"/>
      <point x="167" y="488" type="qcurve"/>
      <point x="193" y="488"/>
      <point x="221" y="527"/>
      <point x="221" y="561" type="qcurve"/>
      <point x="221" y="593"/>
      <point x="194" y="636"/>
      <point x="167" y="636" type="qcurve"/>
      <point x="141" y="636"/>
      <point x="114" y="592"/>
    </contour>
    <contour>
      <point x="34" y="563" type="qcurve"/>
      <point x="34" y="600"/>
      <point x="55" y="656"/>
      <point x="91" y="693"/>
      <point x="139" y="711"/>
      <point x="167" y="711" type="qcurve" name="mh01"/>
      <point x="195" y="711"/>
      <point x="244" y="692"/>
      <point x="280" y="655"/>
      <point x="300" y="600"/>
      <point x="300" y="563" type="qcurve"/>
      <point x="300" y="526"/>
      <point x="280" y="470"/>
      <point x="244" y="433"/>
      <point x="195" y="414"/>
      <point x="167" y="414" type="qcurve"/>
      <point x="139" y="414"/>
      <point x="91" y="432"/>
      <point x="55" y="469"/>
      <point x="34" y="525"/>
    </contour>
  </outline>
</glyph>
<glyph name="onequarter" format="1">
  <advance width="656"/>
  <unicode hex="00BC"/>
  <outline>
    <contour>
      <point x="578" y="108" type="line" name="hr00"/>
      <point x="578" y="55" type="line"/>
      <point x="620" y="49" type="line"/>
      <point x="620" y="0" type="line" name="hr01"/>
      <point x="414" y="0" type="line"/>
      <point x="410" y="44" type="line"/>
      <point x="494" y="56" type="line"/>
      <point x="494" y="108" type="line" name="hr02"/>
      <point x="335" y="108" type="line" name="hr03"/>
      <point x="335" y="181" type="line"/>
      <point x="490" y="386" type="line"/>
      <point x="578" y="386" type="line"/>
      <point x="578" y="174" type="line"/>
      <point x="625" y="174" type="line"/>
      <point x="625" y="108" type="line"/>
    </contour>
    <contour>
      <point x="97" y="0" type="line" name="hr04"/>
      <point x="94" y="2" type="line"/>
      <point x="428" y="691" type="line"/>
      <point x="517" y="691" type="line"/>
      <point x="517" y="688"/>
      <point x="516" y="680"/>
      <point x="516" y="677" type="qcurve"/>
      <point x="183" y="-11" type="line"/>
    </contour>
    <contour>
      <point x="91" y="367" type="line" name="hr06"/>
      <point x="91" y="622" type="line" name="hr05"/>
      <point x="39" y="614" type="line"/>
      <point x="31" y="665" type="line"/>
      <point x="164" y="703" type="line"/>
      <point x="176" y="695" type="line"/>
      <point x="176" y="639" type="line"/>
      <point x="176" y="633"/>
      <point x="175" y="627" type="qcurve"/>
      <point x="175" y="371" type="line"/>
      <point x="175" y="368"/>
      <point x="183" y="365"/>
      <point x="195" y="363"/>
      <point x="207" y="362"/>
      <point x="211" y="362" type="qcurve"/>
      <point x="211" y="315" type="line"/>
      <point x="46" y="315" type="line"/>
      <point x="46" y="360" type="line"/>
    </contour>
    <contour>
      <point x="494" y="174" type="line"/>
      <point x="494" y="290" type="line"/>
      <point x="404" y="174" type="line"/>
    </contour>
  </outline>
</glyph>
<glyph name="onehalf" format="1">
  <advance width="701"/>
  <unicode hex="00BD"/>
  <outline>
    <contour>
      <point x="99" y="0" type="line" name="hr00"/>
      <point x="96" y="2" type="line"/>
      <point x="430" y="691" type="line"/>
      <point x="519" y="691" type="line"/>
      <point x="519" y="688"/>
      <point x="518" y="680"/>
      <point x="518" y="677" type="qcurve"/>
      <point x="185" y="-11" type="line"/>
    </contour>
    <contour>
      <point x="395" y="49" type="line" name="hr02"/>
      <point x="413" y="68"/>
      <point x="468" y="121"/>
      <point x="519" y="183"/>
      <point x="556" y="249"/>
      <point x="556" y="281" type="qcurve" name="hr01"/>
      <point x="556" y="304"/>
      <point x="528" y="320"/>
      <point x="515" y="320" type="qcurve"/>
      <point x="505" y="320"/>
      <point x="493" y="316"/>
      <point x="488" y="314" type="qcurve"/>
      <point x="464" y="257" type="line"/>
      <point x="379" y="297" type="line"/>
      <point x="401" y="342"/>
      <point x="465" y="388"/>
      <point x="517" y="388" type="qcurve"/>
      <point x="549" y="388"/>
      <point x="597" y="370"/>
      <point x="628" y="338"/>
      <point x="643" y="297"/>
      <point x="643" y="274" type="qcurve"/>
      <point x="643" y="247"/>
      <point x="622" y="195"/>
      <point x="589" y="145"/>
      <point x="547" y="98"/>
      <point x="527" y="76" type="qcurve"/>
      <point x="517" y="65" type="line"/>
      <point x="606" y="65" type="line"/>
      <point x="627" y="121" type="line"/>
      <point x="672" y="121" type="line"/>
      <point x="659" y="0" type="line"/>
      <point x="408" y="0" type="line"/>
    </contour>
    <contour>
      <point x="93" y="367" type="line"/>
      <point x="93" y="622" type="line"/>
      <point x="41" y="614" type="line"/>
      <point x="33" y="665" type="line"/>
      <point x="166" y="703" type="line"/>
      <point x="178" y="695" type="line"/>
      <point x="178" y="639" type="line"/>
      <point x="178" y="633"/>
      <point x="177" y="627" type="qcurve"/>
      <point x="177" y="371" type="line"/>
      <point x="177" y="368"/>
      <point x="185" y="365"/>
      <point x="197" y="363"/>
      <point x="209" y="362"/>
      <point x="213" y="362" type="qcurve"/>
      <point x="213" y="315" type="line"/>
      <point x="48" y="315" type="line"/>
      <point x="48" y="360" type="line"/>
    </contour>
  </outline>
</glyph>
<glyph name="threequarters" format="1">
  <advance width="706"/>
  <unicode hex="00BE"/>
  <outline>
    <contour>
      <point x="626" y="108" type="line" name="hr04"/>
      <point x="626" y="55" type="line"/>
      <point x="668" y="49" type="line"/>
      <point x="668" y="0" type="line"/>
      <point x="462" y="0" type="line" name="hr03"/>
      <point x="458" y="44" type="line"/>
      <point x="542" y="56" type="line"/>
      <point x="542" y="108" type="line" name="hr02"/>
      <point x="383" y="108" type="line" name="hr01"/>
      <point x="383" y="181" type="line"/>
      <point x="538" y="386" type="line" name="ah02"/>
      <point x="626" y="386" type="line"/>
      <point x="626" y="174" type="line"/>
      <point x="673" y="174" type="line"/>
      <point x="673" y="108" type="line" name="hr06"/>
    </contour>
    <contour>
      <point x="152" y="0" type="line" name="hr05"/>
      <point x="149" y="2" type="line"/>
      <point x="482" y="691" type="line"/>
      <point x="572" y="691" type="line"/>
      <point x="572" y="688"/>
      <point x="571" y="680"/>
      <point x="571" y="677" type="qcurve"/>
      <point x="238" y="-11" type="line"/>
    </contour>
    <contour>
      <point x="94" y="400" type="line"/>
      <point x="108" y="389"/>
      <point x="143" y="377"/>
      <point x="159" y="377" type="qcurve"/>
      <point x="168" y="377"/>
      <point x="189" y="382"/>
      <point x="207" y="394"/>
      <point x="220" y="413"/>
      <point x="220" y="427" type="qcurve"/>
      <point x="220" y="456"/>
      <point x="176" y="482"/>
      <point x="136" y="482" type="qcurve"/>
      <point x="123" y="482" type="line"/>
      <point x="123" y="540" type="line"/>
      <point x="136" y="540" type="line"/>
      <point x="151" y="540"/>
      <point x="181" y="543"/>
      <point x="203" y="554"/>
      <point x="217" y="573"/>
      <point x="217" y="590" type="qcurve"/>
      <point x="217" y="610"/>
      <point x="181" y="633"/>
      <point x="164" y="633" type="qcurve"/>
      <point x="149" y="633"/>
      <point x="133" y="627"/>
      <point x="128" y="625" type="qcurve"/>
      <point x="105" y="576" type="line"/>
      <point x="29" y="611" type="line"/>
      <point x="35" y="627"/>
      <point x="60" y="660"/>
      <point x="96" y="685"/>
      <point x="144" y="701"/>
      <point x="174" y="701" type="qcurve" name="ah01"/>
      <point x="199" y="701"/>
      <point x="245" y="688"/>
      <point x="280" y="663"/>
      <point x="300" y="624"/>
      <point x="300" y="598" type="qcurve"/>
      <point x="300" y="568"/>
      <point x="268" y="521"/>
      <point x="239" y="512" type="qcurve"/>
      <point x="271" y="503"/>
      <point x="306" y="459"/>
      <point x="306" y="428" type="qcurve"/>
      <point x="306" y="397"/>
      <point x="280" y="352"/>
      <point x="238" y="323"/>
      <point x="184" y="309"/>
      <point x="157" y="309" type="qcurve"/>
      <point x="119" y="309"/>
      <point x="60" y="329"/>
      <point x="40" y="344" type="qcurve"/>
    </contour>
    <contour>
      <point x="542" y="174" type="line"/>
      <point x="542" y="290" type="line"/>
      <point x="452" y="174" type="line" name="ah03"/>
    </contour>
  </outline>
</glyph>
<glyph name="questiondown" format="1">
  <advance width="391"/>
  <unicode hex="00BF"/>
  <outline>
    <contour>
      <point x="307" y="427" type="qcurve" name="hr00"/>
      <point x="307" y="403"/>
      <point x="271" y="369"/>
      <point x="247" y="369" type="qcurve"/>
      <point x="221" y="369"/>
      <point x="188" y="403"/>
      <point x="188" y="427" type="qcurve"/>
      <point x="188" y="453"/>
      <point x="222" y="487"/>
      <point x="247" y="487" type="qcurve" name="mh01"/>
      <point x="272" y="487"/>
      <point x="307" y="452"/>
    </contour>
    <contour>
      <point x="292" y="238" type="line"/>
      <point x="295" y="223"/>
      <point x="295" y="201" type="qcurve"/>
      <point x="295" y="167"/>
      <point x="270" y="119"/>
      <point x="233" y="82"/>
      <point x="190" y="53"/>
      <point x="153" y="20"/>
      <point x="128" y="-20"/>
      <point x="128" y="-48" type="qcurve"/>
      <point x="128" y="-61"/>
      <point x="136" y="-88"/>
      <point x="155" y="-109"/>
      <point x="185" y="-123"/>
      <point x="207" y="-123" type="qcurve"/>
      <point x="224" y="-123"/>
      <point x="259" y="-118"/>
      <point x="270" y="-114" type="qcurve"/>
      <point x="296" y="-19" type="line"/>
      <point x="357" y="-19" type="line"/>
      <point x="340" y="-177" type="line"/>
      <point x="308" y="-188"/>
      <point x="239" y="-206"/>
      <point x="195" y="-206" type="qcurve"/>
      <point x="112" y="-206"/>
      <point x="23" y="-124"/>
      <point x="23" y="-59" type="qcurve"/>
      <point x="23" y="1"/>
      <point x="79" y="83"/>
      <point x="118" y="112" type="qcurve"/>
      <point x="164" y="146"/>
      <point x="211" y="197"/>
      <point x="211" y="235" type="qcurve"/>
      <point x="211" y="247" type="line"/>
      <point x="231" y="247"/>
      <point x="270" y="248"/>
      <point x="290" y="248" type="qcurve"/>
    </contour>
  </outline>
</glyph>
<glyph name="Atilde" format="1">
  <advance width="608"/>
  <unicode hex="00C3"/>
  <outline>
    <contour>
      <point x="-1" y="62" type="line" name="hr00"/>
      <point x="51" y="80" type="line"/>
      <point x="253" y="691" type="line" name="mh01"/>
      <point x="349" y="691" type="line"/>
      <point x="562" y="80" type="line"/>
      <point x="608" y="62" type="line"/>
      <point x="597" y="0" type="line"/>
      <point x="362" y="0" type="line"/>
      <point x="362" y="59" type="line"/>
      <point x="450" y="80" type="line"/>
      <point x="402" y="228" type="line"/>
      <point x="188" y="228" type="line"/>
      <point x="142" y="80" type="line"/>
      <point x="228" y="60" type="line"/>
      <point x="228" y="0" type="line"/>
      <point x="12" y="0" type="line"/>
    </contour>
    <contour>
      <point x="445" y="858" type="line" name="hr02"/>
      <point x="504" y="791" type="line"/>
      <point x="495" y="781"/>
      <point x="472" y="759"/>
      <point x="446" y="741"/>
      <point x="417" y="730"/>
      <point x="404" y="730" type="qcurve"/>
      <point x="380" y="730"/>
      <point x="346" y="745"/>
      <point x="315" y="763"/>
      <point x="283" y="778"/>
      <point x="261" y="778" type="qcurve"/>
      <point x="230" y="778"/>
      <point x="198" y="744"/>
      <point x="190" y="727" type="qcurve"/>
      <point x="134" y="761" type="line"/>
      <point x="134" y="778" type="line" name="hr01"/>
      <point x="138" y="787"/>
      <point x="156" y="813"/>
      <point x="185" y="839"/>
      <point x="228" y="857"/>
      <point x="257" y="857" type="qcurve" name="mh02"/>
      <point x="295" y="857"/>
      <point x="352" y="825"/>
      <point x="375" y="808" type="qcurve"/>
      <point x="384" y="802" type="line"/>
    </contour>
    <contour>
      <point x="214" y="314" type="line"/>
      <point x="374" y="314" type="line"/>
      <point x="292" y="565" type="line"/>
    </contour>
  </outline>
</glyph>
<glyph name="Adieresis" format="1">
  <advance width="608"/>
  <unicode hex="00C4"/>
  <outline>
    <contour>
      <point x="-1" y="62" type="line" name="hr00"/>
      <point x="51" y="80" type="line"/>
      <point x="253" y="691" type="line" name="mh01"/>
      <point x="349" y="691" type="line"/>
      <point x="562" y="80" type="line"/>
      <point x="608" y="62" type="line"/>
      <point x="597" y="0" type="line"/>
      <point x="362" y="0" type="line"/>
      <point x="362" y="59" type="line"/>
      <point x="450" y="80" type="line"/>
      <point x="402" y="228" type="line"/>
      <point x="188" y="228" type="line"/>
      <point x="142" y="80" type="line"/>
      <point x="228" y="60" type="line"/>
      <point x="228" y="0" type="line"/>
      <point x="12" y="0" type="line"/>
    </contour>
    <contour>
      <point x="214" y="314" type="line"/>
      <point x="374" y="314" type="line"/>
      <point x="292" y="565" type="line"/>
    </contour>
    <contour>
      <point x="329" y="873" type="qcurve"/>
      <point x="329" y="899"/>
      <point x="367" y="937"/>
      <point x="394" y="937" type="qcurve"/>
      <point x="420" y="937"/>
      <point x="457" y="899"/>
      <point x="457" y="873" type="qcurve"/>
      <point x="457" y="847"/>
      <point x="419" y="809"/>
      <point x="394" y="809" type="qcurve"/>
      <point x="368" y="809"/>
      <point x="329" y="848"/>
    </contour>
    <contour>
      <point x="152" y="873" type="qcurve"/>
      <point x="152" y="899"/>
      <point x="188" y="937"/>
      <point x="215" y="937" type="qcurve" name="mh02"/>
      <point x="241" y="937"/>
      <point x="278" y="899"/>
      <point x="278" y="873" type="qcurve"/>
      <point x="278" y="846"/>
      <point x="239" y="809"/>
      <point x="215" y="809" type="qcurve"/>
      <point x="189" y="809"/>
      <point x="152" y="847"/>
    </contour>
  </outline>
</glyph>
<glyph name="Aring" format="1">
  <advance width="604"/>
  <unicode hex="00C5"/>
  <outline>
    <contour>
      <point x="-3" y="62" type="line" name="hr00"/>
      <point x="49" y="80" type="line"/>
      <point x="241" y="662" type="line"/>
      <point x="221" y="676"/>
      <point x="199" y="719"/>
      <point x="199" y="745" type="qcurve"/>
      <point x="199" y="766"/>
      <point x="214" y="802"/>
      <point x="241" y="829"/>
      <point x="278" y="845"/>
      <point x="299" y="845" type="qcurve"/>
      <point x="320" y="845"/>
      <point x="357" y="829"/>
      <point x="384" y="802"/>
      <point x="400" y="766"/>
      <point x="400" y="745" type="qcurve"/>
      <point x="400" y="719"/>
      <point x="377" y="676"/>
      <point x="357" y="662" type="qcurve"/>
      <point x="560" y="80" type="line"/>
      <point x="606" y="62" type="line"/>
      <point x="595" y="0" type="line"/>
      <point x="360" y="0" type="line"/>
      <point x="360" y="59" type="line"/>
      <point x="448" y="80" type="line"/>
      <point x="400" y="228" type="line"/>
      <point x="186" y="228" type="line"/>
      <point x="140" y="80" type="line"/>
      <point x="226" y="60" type="line"/>
      <point x="226" y="0" type="line"/>
      <point x="10" y="0" type="line"/>
    </contour>
    <contour>
      <point x="212" y="314" type="line"/>
      <point x="372" y="314" type="line"/>
      <point x="290" y="565" type="line"/>
    </contour>
    <contour>
      <point x="261" y="745" type="qcurve"/>
      <point x="261" y="727"/>
      <point x="282" y="707"/>
      <point x="299" y="707" type="qcurve"/>
      <point x="317" y="707"/>
      <point x="338" y="727"/>
      <point x="338" y="745" type="qcurve"/>
      <point x="338" y="763"/>
      <point x="317" y="783"/>
      <point x="299" y="783" type="qcurve"/>
      <point x="282" y="783"/>
      <point x="261" y="763"/>
    </contour>
  </outline>
</glyph>
<glyph name="Ccedilla" format="1">
  <advance width="583"/>
  <unicode hex="00C7"/>
  <outline>
    <contour>
      <point x="281" y="-76" type="line" name="hr00"/>
      <point x="309" y="2" type="line"/>
      <point x="254" y="12"/>
      <point x="155" y="66"/>
      <point x="80" y="151"/>
      <point x="35" y="266"/>
      <point x="35" y="338" type="qcurve"/>
      <point x="35" y="425"/>
      <point x="90" y="557"/>
      <point x="183" y="646"/>
      <point x="306" y="691"/>
      <point x="373" y="691" type="qcurve" name="mh01"/>
      <point x="426" y="691"/>
      <point x="499" y="677"/>
      <point x="521" y="672" type="qcurve"/>
      <point x="540" y="490" type="line"/>
      <point x="472" y="490" type="line"/>
      <point x="433" y="598" type="line"/>
      <point x="414" y="605"/>
      <point x="376" y="605" type="qcurve"/>
      <point x="321" y="605"/>
      <point x="233" y="563"/>
      <point x="172" y="493"/>
      <point x="140" y="399"/>
      <point x="140" y="348" type="qcurve"/>
      <point x="140" y="291"/>
      <point x="176" y="194"/>
      <point x="242" y="122"/>
      <point x="336" y="82"/>
      <point x="395" y="82" type="qcurve"/>
      <point x="438" y="82"/>
      <point x="510" y="108"/>
      <point x="526" y="120" type="qcurve"/>
      <point x="555" y="41" type="line"/>
      <point x="524" y="19"/>
      <point x="441" y="-1"/>
      <point x="399" y="-3" type="qcurve"/>
      <point x="385" y="-39" type="line"/>
      <point x="420" y="-48"/>
      <point x="471" y="-98"/>
      <point x="471" y="-145" type="qcurve"/>
      <point x="471" y="-193"/>
      <point x="395" y="-258"/>
      <point x="329" y="-258" type="qcurve" name="hr01"/>
      <point x="294" y="-258"/>
      <point x="246" y="-244"/>
      <point x="222" y="-234" type="qcurve"/>
      <point x="216" y="-232" type="line"/>
      <point x="257" y="-152" type="line"/>
      <point x="323" y="-195" type="line"/>
      <point x="330" y="-195"/>
      <point x="351" y="-190"/>
      <point x="370" y="-179"/>
      <point x="383" y="-161"/>
      <point x="383" y="-148" type="qcurve"/>
      <point x="383" y="-127"/>
      <point x="350" y="-94"/>
      <point x="309" y="-94" type="qcurve"/>
      <point x="297" y="-93" type="line"/>
    </contour>
  </outline>
</glyph>
<glyph name="Igrave" format="1">
  <advance width="320"/>
  <unicode hex="00CC"/>
  <outline>
    <contour>
      <point x="38" y="843" type="line" name="hr00"/>
      <point x="95" y="925" type="line" name="mh01"/>
      <point x="127" y="919" type="line"/>
      <point x="267" y="764" type="line"/>
      <point x="231" y="720" type="line"/>
    </contour>
    <contour>
      <point x="110" y="610" type="line"/>
      <point x="47" y="615" type="line"/>
      <point x="47" y="691" type="line" name="mh02"/>
      <point x="265" y="691" type="line"/>
      <point x="275" y="616" type="line"/>
      <point x="210" y="606" type="line"/>
      <point x="210" y="81" type="line"/>
      <point x="275" y="73" type="line"/>
      <point x="275" y="0" type="line"/>
      <point x="56" y="0" type="line"/>
      <point x="38" y="72" type="line"/>
      <point x="110" y="83" type="line"/>
    </contour>
  </outline>
</glyph>
<glyph name="Idieresis" format="1">
  <advance width="319"/>
  <unicode hex="00CF"/>
  <outline>
    <contour>
      <point x="109" y="610" type="line" name="hr00"/>
      <point x="46" y="615" type="line"/>
      <point x="46" y="691" type="line" name="mh01"/>
      <point x="264" y="691" type="line"/>
      <point x="274" y="616" type="line"/>
      <point x="209" y="606" type="line"/>
      <point x="209" y="81" type="line"/>
      <point x="274" y="73" type="line"/>
      <point x="274" y="0" type="line"/>
      <point x="55" y="0" type="line"/>
      <point x="46" y="72" type="line"/>
      <point x="109" y="83" type="line"/>
    </contour>
    <contour>
      <point x="181" y="798" type="qcurve"/>
      <point x="181" y="824"/>
      <point x="219" y="861"/>
      <point x="245" y="861" type="qcurve"/>
      <point x="271" y="861"/>
      <point x="306" y="823"/>
      <point x="306" y="798" type="qcurve"/>
      <point x="306" y="772"/>
      <point x="270" y="735"/>
      <point x="245" y="735" type="qcurve"/>
      <point x="219" y="735"/>
      <point x="181" y="771"/>
    </contour>
    <contour>
      <point x="21" y="798" type="qcurve"/>
      <point x="21" y="824"/>
      <point x="57" y="861"/>
      <point x="83" y="861" type="qcurve" name="mh02"/>
      <point x="107" y="861"/>
      <point x="146" y="824"/>
      <point x="146" y="798" type="qcurve"/>
      <point x="146" y="772"/>
      <point x="107" y="735"/>
      <point x="83" y="735" type="qcurve"/>
      <point x="57" y="735"/>
      <point x="21" y="772"/>
    </contour>
  </outline>
</glyph>
<glyph name="Eth" format="1">
  <advance width="632"/>
  <unicode hex="00D0"/>
  <outline>
    <contour>
      <point x="37" y="379" type="line" name="hr00"/>
      <point x="47" y="390" type="line"/>
      <point x="109" y="390" type="line"/>
      <point x="109" y="611" type="line" name="mh01"/>
      <point x="49" y="617" type="line"/>
      <point x="49" y="691" type="line" name="ah01"/>
      <point x="238" y="691" type="line"/>
      <point x="318" y="691"/>
      <point x="450" y="647"/>
      <point x="544" y="562"/>
      <point x="596" y="434"/>
      <point x="596" y="350" type="qcurve" name="mh02"/>
      <point x="596" y="267"/>
      <point x="547" y="137"/>
      <point x="455" y="47"/>
      <point x="324" y="0"/>
      <point x="242" y="0" type="qcurve"/>
      <point x="58" y="0" type="line"/>
      <point x="48" y="71" type="line" name="mh03"/>
      <point x="109" y="85" type="line"/>
      <point x="109" y="311" type="line"/>
      <point x="37" y="311" type="line"/>
    </contour>
    <contour>
      <point x="491" y="351" type="qcurve" name="mh04"/>
      <point x="491" y="417"/>
      <point x="450" y="513"/>
      <point x="375" y="576" name="mv01"/>
      <point x="271" y="607"/>
      <point x="208" y="607" type="qcurve"/>
      <point x="208" y="390" type="line"/>
      <point x="374" y="390" type="line"/>
      <point x="381" y="390"/>
      <point x="381" y="382" type="qcurve"/>
      <point x="381" y="311" type="line"/>
      <point x="208" y="311" type="line"/>
      <point x="208" y="86" type="line"/>
      <point x="232" y="86" type="line"/>
      <point x="298" y="86"/>
      <point x="395" y="123"/>
      <point x="459" y="192"/>
      <point x="491" y="290"/>
    </contour>
  </outline>
</glyph>
<glyph name="Ntilde" format="1">
  <advance width="696"/>
  <unicode hex="00D1"/>
  <outline>
    <contour>
      <point x="194" y="597" type="line" name="hr00"/>
      <point x="194" y="161" type="line"/>
      <point x="194" y="129"/>
      <point x="195" y="95"/>
      <point x="195" y="84"/>
      <point x="196" y="81" type="qcurve"/>
      <point x="253" y="71" type="line"/>
      <point x="253" y="0" type="line"/>
      <point x="59" y="0" type="line"/>
      <point x="47" y="71" type="line"/>
      <point x="110" y="84" type="line"/>
      <point x="110" y="609" type="line"/>
      <point x="50" y="615" type="line"/>
      <point x="50" y="691" type="line"/>
      <point x="259" y="691" type="line"/>
      <point x="511" y="96" type="line"/>
      <point x="511" y="609" type="line"/>
      <point x="449" y="617" type="line"/>
      <point x="449" y="691" type="line"/>
      <point x="646" y="691" type="line"/>
      <point x="659" y="616" type="line"/>
      <point x="595" y="604" type="line"/>
      <point x="595" y="0" type="line"/>
      <point x="478" y="0" type="line"/>
    </contour>
    <contour>
      <point x="478" y="858" type="line"/>
      <point x="537" y="791" type="line"/>
      <point x="528" y="781"/>
      <point x="505" y="759"/>
      <point x="479" y="741"/>
      <point x="450" y="730"/>
      <point x="437" y="730" type="qcurve"/>
      <point x="413" y="730"/>
      <point x="379" y="745"/>
      <point x="348" y="763"/>
      <point x="316" y="778"/>
      <point x="294" y="778" type="qcurve"/>
      <point x="263" y="778"/>
      <point x="231" y="744"/>
      <point x="223" y="727" type="qcurve"/>
      <point x="167" y="761" type="line"/>
      <point x="167" y="778" type="line"/>
      <point x="171" y="787"/>
      <point x="189" y="813"/>
      <point x="218" y="839"/>
      <point x="261" y="857"/>
      <point x="290" y="857" type="qcurve"/>
      <point x="328" y="857"/>
      <point x="385" y="825"/>
      <point x="408" y="808" type="qcurve" name="hr01"/>
      <point x="417" y="802" type="line"/>
    </contour>
  </outline>
</glyph>
<glyph name="Oacute" format="1">
  <advance width="651"/>
  <unicode hex="00D3"/>
  <outline>
    <contour>
      <point x="148" y="342" type="qcurve" name="hr00"/>
      <point x="148" y="291"/>
      <point x="170" y="197"/>
      <point x="213" y="125"/>
      <point x="280" y="82"/>
      <point x="325" y="82" type="qcurve"/>
      <point x="370" y="82"/>
      <point x="438" y="125"/>
      <point x="482" y="197"/>
      <point x="504" y="291"/>
      <point x="504" y="342" type="qcurve"/>
      <point x="504" y="393"/>
      <point x="482" y="489"/>
      <point x="438" y="562"/>
      <point x="370" y="606"/>
      <point x="325" y="606" type="qcurve"/>
      <point x="280" y="606"/>
      <point x="213" y="562"/>
      <point x="170" y="489"/>
      <point x="148" y="393"/>
    </contour>
    <contour>
      <point x="325" y="-4" type="qcurve"/>
      <point x="254" y="-4"/>
      <point x="148" y="52"/>
      <point x="78" y="148"/>
      <point x="43" y="274"/>
      <point x="43" y="344" type="qcurve"/>
      <point x="43" y="414"/>
      <point x="78" y="540"/>
      <point x="148" y="636"/>
      <point x="254" y="692"/>
      <point x="325" y="692" type="qcurve" name="mh01"/>
      <point x="396" y="692"/>
      <point x="502" y="636"/>
      <point x="573" y="540"/>
      <point x="609" y="414"/>
      <point x="609" y="344" type="qcurve"/>
      <point x="609" y="274"/>
      <point x="573" y="148"/>
      <point x="502" y="52"/>
      <point x="396" y="-4"/>
    </contour>
    <contour>
      <point x="362" y="928" type="line" name="mh02"/>
      <point x="396" y="932" type="line"/>
      <point x="453" y="841" type="line"/>
      <point x="258" y="729" type="line"/>
      <point x="219" y="780" type="line"/>
    </contour>
  </outline>
</glyph>
<glyph name="Otilde" format="1">
  <advance width="651"/>
  <unicode hex="00D5"/>
  <outline>
    <contour>
      <point x="148" y="342" type="qcurve" name="hr00"/>
      <point x="148" y="291"/>
      <point x="170" y="197"/>
      <point x="213" y="125"/>
      <point x="280" y="82"/>
      <point x="325" y="82" type="qcurve"/>
      <point x="370" y="82"/>
      <point x="438" y="125"/>
      <point x="482" y="197"/>
      <point x="504" y="291"/>
      <point x="504" y="342" type="qcurve"/>
      <point x="504" y="393"/>
      <point x="482" y="489"/>
      <point x="438" y="562"/>
      <point x="370" y="606"/>
      <point x="325" y="606" type="qcurve"/>
      <point x="280" y="606"/>
      <point x="213" y="562"/>
      <point x="170" y="489"/>
      <point x="148" y="393"/>
    </contour>
    <contour>
      <point x="325" y="-4" type="qcurve"/>
      <point x="254" y="-4"/>
      <point x="148" y="52"/>
      <point x="78" y="148"/>
      <point x="43" y="274"/>
      <point x="43" y="344" type="qcurve"/>
      <point x="43" y="414"/>
      <point x="78" y="540"/>
      <point x="148" y="636"/>
      <point x="254" y="692"/>
      <point x="325" y="692" type="qcurve" name="mh01"/>
      <point x="396" y="692"/>
      <point x="502" y="636"/>
      <point x="573" y="540"/>
      <point x="609" y="414"/>
      <point x="609" y="344" type="qcurve"/>
      <point x="609" y="274"/>
      <point x="573" y="148"/>
      <point x="502" y="52"/>
      <point x="396" y="-4"/>
    </contour>
    <contour>
      <point x="454" y="858" type="line"/>
      <point x="513" y="791" type="line"/>
      <point x="505" y="781"/>
      <point x="482" y="759"/>
      <point x="455" y="741"/>
      <point x="427" y="730"/>
      <point x="414" y="730" type="qcurve"/>
      <point x="390" y="730"/>
      <point x="355" y="745"/>
      <point x="325" y="763"/>
      <point x="293" y="778"/>
      <point x="271" y="778" type="qcurve"/>
      <point x="241" y="778"/>
      <point x="208" y="744"/>
      <point x="199" y="727" type="qcurve"/>
      <point x="145" y="761" type="line"/>
      <point x="145" y="778" type="line"/>
      <point x="149" y="787"/>
      <point x="166" y="813"/>
      <point x="195" y="839"/>
      <point x="238" y="857"/>
      <point x="267" y="857" type="qcurve" name="mh02"/>
      <point x="308" y="857"/>
      <point x="370" y="820"/>
      <point x="393" y="802" type="qcurve"/>
    </contour>
  </outline>
</glyph>
<glyph name="Odieresis" format="1">
  <advance width="651"/>
  <unicode hex="00D6"/>
  <outline>
    <contour>
      <point x="148" y="342" type="qcurve" name="hr00"/>
      <point x="148" y="291"/>
      <point x="170" y="197"/>
      <point x="213" y="125"/>
      <point x="280" y="82"/>
      <point x="325" y="82" type="qcurve"/>
      <point x="370" y="82"/>
      <point x="438" y="125"/>
      <point x="482" y="197"/>
      <point x="504" y="291"/>
      <point x="504" y="342" type="qcurve"/>
      <point x="504" y="393"/>
      <point x="482" y="489"/>
      <point x="438" y="562"/>
      <point x="370" y="606"/>
      <point x="325" y="606" type="qcurve"/>
      <point x="280" y="606"/>
      <point x="213" y="562"/>
      <point x="170" y="489"/>
      <point x="148" y="393"/>
    </contour>
    <contour>
      <point x="325" y="-4" type="qcurve"/>
      <point x="254" y="-4"/>
      <point x="148" y="52"/>
      <point x="78" y="148"/>
      <point x="43" y="274"/>
      <point x="43" y="344" type="qcurve"/>
      <point x="43" y="414"/>
      <point x="78" y="540"/>
      <point x="148" y="636"/>
      <point x="254" y="692"/>
      <point x="325" y="692" type="qcurve" name="mh01"/>
      <point x="396" y="692"/>
      <point x="502" y="636"/>
      <point x="573" y="540"/>
      <point x="609" y="414"/>
      <point x="609" y="344" type="qcurve"/>
      <point x="609" y="274"/>
      <point x="573" y="148"/>
      <point x="502" y="52"/>
      <point x="396" y="-4"/>
    </contour>
    <contour>
      <point x="358" y="884" type="qcurve"/>
      <point x="358" y="910"/>
      <point x="396" y="948"/>
      <point x="423" y="948" type="qcurve"/>
      <point x="449" y="948"/>
      <point x="486" y="910"/>
      <point x="486" y="884" type="qcurve"/>
      <point x="486" y="858"/>
      <point x="448" y="820"/>
      <point x="423" y="820" type="qcurve"/>
      <point x="397" y="820"/>
      <point x="358" y="859"/>
    </contour>
    <contour>
      <point x="181" y="884" type="qcurve"/>
      <point x="181" y="910"/>
      <point x="217" y="948"/>
      <point x="244" y="948" type="qcurve" name="mh02"/>
      <point x="270" y="948"/>
      <point x="307" y="910"/>
      <point x="307" y="884" type="qcurve"/>
      <point x="307" y="857"/>
      <point x="268" y="820"/>
      <point x="244" y="820" type="qcurve"/>
      <point x="218" y="820"/>
      <point x="181" y="858"/>
    </contour>
  </outline>
</glyph>
<glyph name="Oslash" format="1">
  <advance width="651"/>
  <unicode hex="00D8"/>
  <outline>
    <contour>
      <point x="95" y="-53" type="line" name="hr00"/>
      <point x="92" y="-35" type="line"/>
      <point x="140" y="69" type="line"/>
      <point x="91" y="117"/>
      <point x="43" y="261"/>
      <point x="43" y="344" type="qcurve"/>
      <point x="43" y="414"/>
      <point x="78" y="540"/>
      <point x="148" y="636"/>
      <point x="254" y="692"/>
      <point x="325" y="692" type="qcurve" name="mh01"/>
      <point x="351" y="692"/>
      <point x="398" y="684"/>
      <point x="420" y="676" type="qcurve"/>
      <point x="454" y="751" type="line"/>
      <point x="552" y="751" type="line"/>
      <point x="552" y="746"/>
      <point x="551" y="737"/>
      <point x="551" y="732" type="qcurve"/>
      <point x="502" y="626" type="line"/>
      <point x="556" y="578"/>
      <point x="609" y="429"/>
      <point x="609" y="344" type="qcurve"/>
      <point x="609" y="274"/>
      <point x="573" y="148"/>
      <point x="502" y="52"/>
      <point x="396" y="-4"/>
      <point x="325" y="-4" type="qcurve"/>
      <point x="265" y="-4"/>
      <point x="220" y="15" type="qcurve"/>
      <point x="189" y="-53" type="line"/>
    </contour>
    <contour>
      <point x="504" y="342" type="qcurve"/>
      <point x="504" y="395"/>
      <point x="480" y="492"/>
      <point x="457" y="529" type="qcurve"/>
      <point x="258" y="97" type="line"/>
      <point x="288" y="82"/>
      <point x="325" y="82" type="qcurve"/>
      <point x="370" y="82"/>
      <point x="438" y="125"/>
      <point x="482" y="197"/>
      <point x="504" y="291"/>
    </contour>
    <contour>
      <point x="148" y="342" type="qcurve"/>
      <point x="148" y="294"/>
      <point x="166" y="204"/>
      <point x="186" y="169" type="qcurve"/>
      <point x="382" y="595" type="line"/>
      <point x="355" y="606"/>
      <point x="325" y="606" type="qcurve"/>
      <point x="280" y="606"/>
      <point x="213" y="562"/>
      <point x="170" y="489"/>
      <point x="148" y="393"/>
    </contour>
  </outline>
</glyph>
<glyph name="Ugrave" format="1">
  <advance width="638"/>
  <unicode hex="00D9"/>
  <outline>
    <contour>
      <point x="205" y="843" type="line" name="hr00"/>
      <point x="261" y="925" type="line" name="mh01"/>
      <point x="295" y="919" type="line"/>
      <point x="435" y="764" type="line"/>
      <point x="398" y="720" type="line"/>
    </contour>
    <contour>
      <point x="402" y="691" type="line"/>
      <point x="604" y="691" type="line"/>
      <point x="604" y="617" type="line" name="hr01"/>
      <point x="547" y="607" type="line"/>
      <point x="547" y="230" type="line"/>
      <point x="547" y="169"/>
      <point x="511" y="80"/>
      <point x="450" y="23"/>
      <point x="370" y="-4"/>
      <point x="327" y="-4" type="qcurve"/>
      <point x="212" y="-4"/>
      <point x="92" y="119"/>
      <point x="92" y="230" type="qcurve"/>
      <point x="92" y="610" type="line"/>
      <point x="30" y="616" type="line"/>
      <point x="30" y="691" type="line" name="mh02"/>
      <point x="261" y="691" type="line"/>
      <point x="261" y="617" type="line"/>
      <point x="192" y="608" type="line"/>
      <point x="192" y="233" type="line"/>
      <point x="192" y="162"/>
      <point x="258" y="82"/>
      <point x="330" y="82" type="qcurve"/>
      <point x="355" y="82"/>
      <point x="403" y="97"/>
      <point x="441" y="133"/>
      <point x="463" y="191"/>
      <point x="463" y="234" type="qcurve"/>
      <point x="463" y="609" type="line"/>
      <point x="402" y="618" type="line"/>
    </contour>
  </outline>
</glyph>
<glyph name="Udieresis" format="1">
  <advance width="647"/>
  <unicode hex="00DC"/>
  <outline>
    <contour>
      <point x="411" y="691" type="line" name="hr00"/>
      <point x="613" y="691" type="line"/>
      <point x="613" y="617" type="line" name="hr01"/>
      <point x="556" y="607" type="line"/>
      <point x="556" y="230" type="line"/>
      <point x="556" y="169"/>
      <point x="518" y="80"/>
      <point x="455" y="23"/>
      <point x="374" y="-4"/>
      <point x="331" y="-4" type="qcurve"/>
      <point x="216" y="-4"/>
      <point x="92" y="119"/>
      <point x="92" y="230" type="qcurve"/>
      <point x="92" y="610" type="line"/>
      <point x="30" y="616" type="line"/>
      <point x="30" y="691" type="line" name="mh01"/>
      <point x="261" y="691" type="line"/>
      <point x="261" y="617" type="line"/>
      <point x="192" y="608" type="line"/>
      <point x="192" y="233" type="line"/>
      <point x="192" y="162"/>
      <point x="262" y="82"/>
      <point x="334" y="82" type="qcurve"/>
      <point x="359" y="82"/>
      <point x="409" y="97"/>
      <point x="448" y="133"/>
      <point x="472" y="191"/>
      <point x="472" y="234" type="qcurve"/>
      <point x="472" y="609" type="line"/>
      <point x="411" y="618" type="line"/>
    </contour>
    <contour>
      <point x="370" y="884" type="qcurve"/>
      <point x="370" y="910"/>
      <point x="408" y="948"/>
      <point x="435" y="948" type="qcurve"/>
      <point x="461" y="948"/>
      <point x="498" y="910"/>
      <point x="498" y="884" type="qcurve"/>
      <point x="498" y="858"/>
      <point x="460" y="820"/>
      <point x="435" y="820" type="qcurve"/>
      <point x="409" y="820"/>
      <point x="370" y="859"/>
    </contour>
    <contour>
      <point x="193" y="884" type="qcurve"/>
      <point x="193" y="910"/>
      <point x="229" y="948"/>
      <point x="256" y="948" type="qcurve" name="mh02"/>
      <point x="282" y="948"/>
      <point x="319" y="910"/>
      <point x="319" y="884" type="qcurve"/>
      <point x="319" y="857"/>
      <point x="280" y="820"/>
      <point x="256" y="820" type="qcurve"/>
      <point x="230" y="820"/>
      <point x="193" y="858"/>
    </contour>
  </outline>
</glyph>
<glyph name="Thorn" format="1">
  <advance width="525"/>
  <unicode hex="00DE"/>
  <outline>
    <contour>
      <point x="109" y="610" type="line" name="hr00"/>
      <point x="46" y="615" type="line"/>
      <point x="46" y="691" type="line" name="ah01"/>
      <point x="264" y="691" type="line"/>
      <point x="274" y="616" type="line"/>
      <point x="209" y="606" type="line"/>
      <point x="211" y="569" type="line"/>
      <point x="358" y="569"/>
      <point x="505" y="468"/>
      <point x="505" y="362" type="qcurve"/>
      <point x="505" y="306"/>
      <point x="463" y="226"/>
      <point x="389" y="175"/>
      <point x="288" y="152"/>
      <point x="229" y="152" type="qcurve"/>
      <point x="209" y="152" type="line"/>
      <point x="209" y="81" type="line"/>
      <point x="324" y="63" type="line"/>
      <point x="324" y="0" type="line"/>
      <point x="55" y="0" type="line"/>
      <point x="46" y="72" type="line"/>
      <point x="109" y="83" type="line" name="hr01"/>
    </contour>
    <contour>
      <point x="209" y="478" type="line"/>
      <point x="209" y="238" type="line"/>
      <point x="225" y="238" type="line"/>
      <point x="322" y="238"/>
      <point x="400" y="301"/>
      <point x="400" y="354" type="qcurve"/>
      <point x="400" y="423"/>
      <point x="308" y="478"/>
      <point x="217" y="478" type="qcurve"/>
    </contour>
  </outline>
</glyph>
<glyph name="germandbls" format="1">
  <advance width="527"/>
  <unicode hex="00DF"/>
  <outline>
    <contour>
      <point x="273" y="110" type="line" name="hr00"/>
      <point x="286" y="99"/>
      <point x="312" y="74"/>
      <point x="323" y="67" type="qcurve"/>
      <point x="358" y="67"/>
      <point x="411" y="119"/>
      <point x="411" y="165" type="qcurve"/>
      <point x="411" y="191"/>
      <point x="386" y="228"/>
      <point x="348" y="259"/>
      <point x="304" y="286"/>
      <point x="266" y="317"/>
      <point x="241" y="354"/>
      <point x="241" y="379" type="qcurve"/>
      <point x="241" y="408"/>
      <point x="273" y="448"/>
      <point x="312" y="488"/>
      <point x="344" y="538"/>
      <point x="344" y="578" type="qcurve"/>
      <point x="342" y="610"/>
      <point x="295" y="656"/>
      <point x="261" y="656" type="qcurve"/>
      <point x="234" y="656"/>
      <point x="200" y="636"/>
      <point x="181" y="605"/>
      <point x="175" y="568"/>
      <point x="175" y="550" type="qcurve" name="hr01"/>
      <point x="175" y="0" type="line"/>
      <point x="32" y="0" type="line"/>
      <point x="32" y="58" type="line"/>
      <point x="83" y="68" type="line"/>
      <point x="83" y="531" type="line"/>
      <point x="83" y="583"/>
      <point x="111" y="659"/>
      <point x="159" y="708"/>
      <point x="225" y="731"/>
      <point x="263" y="731" type="qcurve" name="ah01"/>
      <point x="296" y="731"/>
      <point x="358" y="711"/>
      <point x="407" y="672"/>
      <point x="436" y="615"/>
      <point x="436" y="578" type="qcurve"/>
      <point x="436" y="532"/>
      <point x="403" y="473"/>
      <point x="363" y="431"/>
      <point x="330" y="399"/>
      <point x="330" y="381" type="qcurve"/>
      <point x="332" y="369"/>
      <point x="353" y="349"/>
      <point x="375" y="338" type="qcurve"/>
      <point x="442" y="303"/>
      <point x="506" y="217"/>
      <point x="506" y="163" type="qcurve"/>
      <point x="506" y="121"/>
      <point x="475" y="58"/>
      <point x="425" y="14"/>
      <point x="362" y="-8"/>
      <point x="331" y="-8" type="qcurve"/>
      <point x="305" y="-8"/>
      <point x="248" y="3"/>
      <point x="219" y="16" type="qcurve"/>
    </contour>
  </outline>
</glyph>
<glyph name="aacute" format="1">
  <advance width="460"/>
  <unicode hex="00E1"/>
  <outline>
    <contour>
      <point x="383" y="89" type="line" name="hr00"/>
      <point x="383" y="77"/>
      <point x="392" y="68"/>
      <point x="397" y="68" type="qcurve"/>
      <point x="403" y="68"/>
      <point x="414" y="73"/>
      <point x="418" y="75" type="qcurve"/>
      <point x="440" y="22" type="line"/>
      <point x="434" y="17"/>
      <point x="397" y="-4"/>
      <point x="371" y="-4" type="qcurve"/>
      <point x="340" y="-4"/>
      <point x="306" y="20"/>
      <point x="299" y="41" type="qcurve"/>
      <point x="280" y="21"/>
      <point x="227" y="-5"/>
      <point x="189" y="-5" type="qcurve"/>
      <point x="119" y="-5"/>
      <point x="36" y="71"/>
      <point x="36" y="129" type="qcurve"/>
      <point x="36" y="177"/>
      <point x="79" y="239"/>
      <point x="150" y="275"/>
      <point x="243" y="289"/>
      <point x="293" y="290" type="qcurve"/>
      <point x="293" y="361" type="line"/>
      <point x="293" y="381"/>
      <point x="256" y="414"/>
      <point x="217" y="414" type="qcurve" name="hr01"/>
      <point x="203" y="414"/>
      <point x="172" y="407"/>
      <point x="162" y="398" type="qcurve"/>
      <point x="142" y="333" type="line"/>
      <point x="37" y="364" type="line"/>
      <point x="44" y="389"/>
      <point x="74" y="433"/>
      <point x="119" y="466"/>
      <point x="182" y="486"/>
      <point x="222" y="486" type="qcurve" name="mh01"/>
      <point x="300" y="486"/>
      <point x="383" y="408"/>
      <point x="383" y="345" type="qcurve"/>
    </contour>
    <contour>
      <point x="202" y="69" type="qcurve"/>
      <point x="222" y="69"/>
      <point x="253" y="82"/>
      <point x="276" y="100"/>
      <point x="290" y="122"/>
      <point x="293" y="131" type="qcurve"/>
      <point x="293" y="217" type="line"/>
      <point x="271" y="217"/>
      <point x="215" y="213"/>
      <point x="165" y="196"/>
      <point x="131" y="163"/>
      <point x="131" y="134" type="qcurve"/>
      <point x="131" y="114"/>
      <point x="146" y="89"/>
      <point x="168" y="74"/>
      <point x="192" y="69"/>
    </contour>
    <contour>
      <point x="247" y="722" type="line" name="mh02"/>
      <point x="279" y="730" type="line"/>
      <point x="339" y="650" type="line"/>
      <point x="173" y="529" type="line"/>
      <point x="132" y="573" type="line"/>
    </contour>
  </outline>
</glyph>
<glyph name="adieresis" format="1">
  <advance width="460"/>
  <unicode hex="00E4"/>
  <outline>
    <contour>
      <point x="69" y="624" type="qcurve" name="hr04"/>
      <point x="69" y="650"/>
      <point x="105" y="686"/>
      <point x="131" y="686" type="qcurve"/>
      <point x="157" y="686"/>
      <point x="193" y="650"/>
      <point x="193" y="624" type="qcurve"/>
      <point x="193" y="598"/>
      <point x="157" y="562"/>
      <point x="131" y="562" type="qcurve" name="hr03"/>
      <point x="105" y="562"/>
      <point x="69" y="598"/>
    </contour>
    <contour>
      <point x="230" y="624" type="qcurve"/>
      <point x="230" y="650"/>
      <point x="266" y="686"/>
      <point x="292" y="686" type="qcurve"/>
      <point x="318" y="686"/>
      <point x="354" y="650"/>
      <point x="354" y="624" type="qcurve" name="hr02"/>
      <point x="354" y="598"/>
      <point x="318" y="562"/>
      <point x="292" y="562" type="qcurve"/>
      <point x="266" y="562"/>
      <point x="230" y="598"/>
    </contour>
    <contour>
      <point x="383" y="89" type="line"/>
      <point x="383" y="77"/>
      <point x="392" y="68"/>
      <point x="397" y="68" type="qcurve" name="hr01"/>
      <point x="403" y="68"/>
      <point x="414" y="73"/>
      <point x="418" y="75" type="qcurve"/>
      <point x="440" y="22" type="line"/>
      <point x="434" y="17"/>
      <point x="397" y="-4"/>
      <point x="371" y="-4" type="qcurve"/>
      <point x="340" y="-4"/>
      <point x="306" y="20"/>
      <point x="299" y="41" type="qcurve"/>
      <point x="280" y="21"/>
      <point x="227" y="-5"/>
      <point x="189" y="-5" type="qcurve"/>
      <point x="119" y="-5"/>
      <point x="36" y="71"/>
      <point x="36" y="129" type="qcurve"/>
      <point x="36" y="177"/>
      <point x="79" y="239"/>
      <point x="150" y="275"/>
      <point x="243" y="289"/>
      <point x="293" y="290" type="qcurve"/>
      <point x="293" y="361" type="line"/>
      <point x="293" y="381"/>
      <point x="256" y="414"/>
      <point x="217" y="414" type="qcurve"/>
      <point x="203" y="414"/>
      <point x="172" y="407"/>
      <point x="162" y="398" type="qcurve"/>
      <point x="142" y="333" type="line"/>
      <point x="37" y="364" type="line"/>
      <point x="44" y="389"/>
      <point x="74" y="433"/>
      <point x="119" y="466"/>
      <point x="182" y="486"/>
      <point x="222" y="486" type="qcurve" name="mh01"/>
      <point x="300" y="486"/>
      <point x="383" y="408"/>
      <point x="383" y="345" type="qcurve"/>
    </contour>
    <contour>
      <point x="202" y="69" type="qcurve"/>
      <point x="222" y="69"/>
      <point x="253" y="82"/>
      <point x="276" y="100"/>
      <point x="290" y="122"/>
      <point x="293" y="131" type="qcurve"/>
      <point x="293" y="217" type="line"/>
      <point x="271" y="217"/>
      <point x="215" y="213"/>
      <point x="165" y="196"/>
      <point x="131" y="163"/>
      <point x="131" y="134" type="qcurve"/>
      <point x="131" y="114"/>
      <point x="146" y="89"/>
      <point x="168" y="74"/>
      <point x="192" y="69"/>
    </contour>
  </outline>
</glyph>
<glyph name="ae" format="1">
  <advance width="704"/>
  <unicode hex="00E6"/>
  <outline>
    <contour>
      <point x="36" y="129" type="qcurve" name="hr00"/>
      <point x="36" y="176"/>
      <point x="81" y="238"/>
      <point x="154" y="275"/>
      <point x="246" y="290"/>
      <point x="293" y="290" type="qcurve"/>
      <point x="293" y="361" type="line"/>
      <point x="293" y="381"/>
      <point x="256" y="414"/>
      <point x="217" y="414" type="qcurve"/>
      <point x="203" y="414"/>
      <point x="172" y="407"/>
      <point x="162" y="398" type="qcurve"/>
      <point x="142" y="333" type="line"/>
      <point x="37" y="364" type="line"/>
      <point x="44" y="389"/>
      <point x="74" y="433"/>
      <point x="119" y="466"/>
      <point x="182" y="486"/>
      <point x="222" y="486" type="qcurve"/>
      <point x="273" y="486"/>
      <point x="342" y="452"/>
      <point x="362" y="422" type="qcurve"/>
      <point x="394" y="454"/>
      <point x="475" y="486"/>
      <point x="517" y="486" type="qcurve"/>
      <point x="550" y="486"/>
      <point x="607" y="469"/>
      <point x="651" y="436"/>
      <point x="676" y="387"/>
      <point x="676" y="355" type="qcurve"/>
      <point x="676" y="324"/>
      <point x="648" y="269"/>
      <point x="588" y="229"/>
      <point x="492" y="205"/>
      <point x="425" y="205" type="qcurve"/>
      <point x="407" y="205" type="line"/>
      <point x="398" y="205"/>
      <point x="388" y="206" type="qcurve"/>
      <point x="391" y="177"/>
      <point x="410" y="128"/>
      <point x="444" y="92"/>
      <point x="493" y="71"/>
      <point x="527" y="71" type="qcurve"/>
      <point x="564" y="71"/>
      <point x="621" y="99"/>
      <point x="632" y="108" type="qcurve"/>
      <point x="651" y="40" type="line"/>
      <point x="639" y="27"/>
      <point x="567" y="-4"/>
      <point x="516" y="-4" type="qcurve"/>
      <point x="461" y="-4"/>
      <point x="362" y="41"/>
      <point x="330" y="89" type="qcurve"/>
      <point x="323" y="72"/>
      <point x="299" y="39"/>
      <point x="264" y="12"/>
      <point x="218" y="-5"/>
      <point x="189" y="-5" type="qcurve"/>
      <point x="119" y="-5"/>
      <point x="36" y="71"/>
    </contour>
    <contour>
      <point x="202" y="69" type="qcurve"/>
      <point x="222" y="69"/>
      <point x="253" y="82"/>
      <point x="276" y="100"/>
      <point x="290" y="122"/>
      <point x="293" y="131" type="qcurve"/>
      <point x="293" y="217" type="line"/>
      <point x="271" y="217"/>
      <point x="215" y="212"/>
      <point x="165" y="196"/>
      <point x="131" y="162"/>
      <point x="131" y="134" type="qcurve"/>
      <point x="131" y="114"/>
      <point x="146" y="89"/>
      <point x="168" y="74"/>
      <point x="192" y="69"/>
    </contour>
    <contour>
      <point x="512" y="411" type="qcurve"/>
      <point x="493" y="411"/>
      <point x="452" y="395"/>
      <point x="418" y="362"/>
      <point x="392" y="313"/>
      <point x="388" y="280" type="qcurve"/>
      <point x="425" y="280" type="line"/>
      <point x="449" y="280"/>
      <point x="504" y="284"/>
      <point x="551" y="299"/>
      <point x="581" y="328"/>
      <point x="581" y="352" type="qcurve"/>
      <point x="581" y="361"/>
      <point x="575" y="382"/>
      <point x="560" y="399"/>
      <point x="533" y="411"/>
    </contour>
  </outline>
</glyph>
<glyph name="ccedilla" format="1">
  <advance width="431"/>
  <unicode hex="00E7"/>
  <outline>
    <contour>
      <point x="225" y="-160" type="line" name="hr00"/>
      <point x="231" y="-160"/>
      <point x="248" y="-156"/>
      <point x="264" y="-147"/>
      <point x="275" y="-131"/>
      <point x="275" y="-120" type="qcurve"/>
      <point x="275" y="-76"/>
      <point x="204" y="-76" type="qcurve"/>
      <point x="192" y="-61" type="line"/>
      <point x="213" y="-1" type="line"/>
      <point x="178" y="5"/>
      <point x="114" y="39"/>
      <point x="65" y="97"/>
      <point x="36" y="179"/>
      <point x="36" y="233" type="qcurve"/>
      <point x="36" y="305"/>
      <point x="75" y="402"/>
      <point x="136" y="461"/>
      <point x="213" y="486"/>
      <point x="251" y="486" type="qcurve" name="mh01"/>
      <point x="287" y="486"/>
      <point x="344" y="466"/>
      <point x="385" y="437"/>
      <point x="411" y="406"/>
      <point x="416" y="395" type="qcurve"/>
      <point x="317" y="348" type="line"/>
      <point x="285" y="406" type="line"/>
      <point x="281" y="407"/>
      <point x="276" y="408" type="qcurve"/>
      <point x="271" y="409"/>
      <point x="260" y="411"/>
      <point x="252" y="411" type="qcurve"/>
      <point x="192" y="411"/>
      <point x="131" y="321"/>
      <point x="131" y="235" type="qcurve"/>
      <point x="131" y="160"/>
      <point x="204" y="71"/>
      <point x="264" y="71" type="qcurve"/>
      <point x="292" y="71"/>
      <point x="354" y="92"/>
      <point x="374" y="112" type="qcurve"/>
      <point x="379" y="98"/>
      <point x="391" y="55"/>
      <point x="396" y="42" type="qcurve"/>
      <point x="375" y="25"/>
      <point x="320" y="2"/>
      <point x="285" y="-2" type="qcurve"/>
      <point x="273" y="-37" type="line"/>
      <point x="299" y="-44"/>
      <point x="341" y="-81"/>
      <point x="341" y="-119" type="qcurve"/>
      <point x="341" y="-157"/>
      <point x="280" y="-208"/>
      <point x="226" y="-208" type="qcurve"/>
      <point x="200" y="-208"/>
      <point x="158" y="-197"/>
      <point x="138" y="-189" type="qcurve"/>
      <point x="171" y="-123" type="line"/>
    </contour>
  </outline>
</glyph>
<glyph name="egrave" format="1">
  <advance width="453"/>
  <unicode hex="00E8"/>
  <outline>
    <contour>
      <point x="360" y="596" type="line" name="hr00"/>
      <point x="319" y="553" type="line"/>
      <point x="155" y="673" type="line"/>
      <point x="214" y="752" type="line" name="mh01"/>
      <point x="246" y="744" type="line"/>
    </contour>
    <contour>
      <point x="408" y="352" type="qcurve"/>
      <point x="408" y="384"/>
      <point x="383" y="434"/>
      <point x="340" y="468"/>
      <point x="283" y="486"/>
      <point x="251" y="486" type="qcurve" name="mh02"/>
      <point x="209" y="486"/>
      <point x="131" y="454"/>
      <point x="71" y="391"/>
      <point x="35" y="298"/>
      <point x="35" y="237" type="qcurve"/>
      <point x="35" y="177"/>
      <point x="69" y="86"/>
      <point x="130" y="26"/>
      <point x="214" y="-4"/>
      <point x="263" y="-4" type="qcurve"/>
      <point x="292" y="-4"/>
      <point x="341" y="7"/>
      <point x="377" y="22"/>
      <point x="401" y="36"/>
      <point x="405" y="40" type="qcurve"/>
      <point x="383" y="110" type="line"/>
      <point x="379" y="106"/>
      <point x="359" y="93"/>
      <point x="331" y="80"/>
      <point x="293" y="71"/>
      <point x="271" y="71" type="qcurve"/>
      <point x="239" y="71"/>
      <point x="193" y="89"/>
      <point x="160" y="119"/>
      <point x="140" y="160"/>
      <point x="135" y="184" type="qcurve"/>
      <point x="220" y="185"/>
      <point x="327" y="216"/>
      <point x="387" y="264"/>
      <point x="408" y="323"/>
    </contour>
    <contour>
      <point x="245" y="410" type="qcurve"/>
      <point x="283" y="410"/>
      <point x="313" y="374"/>
      <point x="313" y="351" type="qcurve"/>
      <point x="313" y="318"/>
      <point x="275" y="281"/>
      <point x="219" y="263"/>
      <point x="155" y="258"/>
      <point x="130" y="258" type="qcurve"/>
      <point x="133" y="298"/>
      <point x="155" y="355"/>
      <point x="187" y="392"/>
      <point x="226" y="410"/>
    </contour>
  </outline>
</glyph>
<glyph name="edieresis" format="1">
  <advance width="453"/>
  <unicode hex="00EB"/>
  <outline>
    <contour>
      <point x="106" y="627" type="qcurve" name="hr00"/>
      <point x="106" y="649"/>
      <point x="137" y="681"/>
      <point x="161" y="681" type="qcurve" name="mh01"/>
      <point x="184" y="681"/>
      <point x="216" y="648"/>
      <point x="216" y="627" type="qcurve"/>
      <point x="216" y="603"/>
      <point x="183" y="571"/>
      <point x="161" y="571" type="qcurve"/>
      <point x="137" y="571"/>
      <point x="106" y="603"/>
    </contour>
    <contour>
      <point x="256" y="627" type="qcurve"/>
      <point x="256" y="649"/>
      <point x="287" y="681"/>
      <point x="311" y="681" type="qcurve"/>
      <point x="334" y="681"/>
      <point x="366" y="648"/>
      <point x="366" y="627" type="qcurve"/>
      <point x="366" y="603"/>
      <point x="333" y="571"/>
      <point x="311" y="571" type="qcurve"/>
      <point x="287" y="571"/>
      <point x="256" y="604"/>
    </contour>
    <contour>
      <point x="408" y="352" type="qcurve"/>
      <point x="408" y="323"/>
      <point x="387" y="264"/>
      <point x="327" y="216"/>
      <point x="220" y="185"/>
      <point x="135" y="184" type="qcurve"/>
      <point x="140" y="160"/>
      <point x="160" y="119"/>
      <point x="193" y="89"/>
      <point x="239" y="71"/>
      <point x="271" y="71" type="qcurve"/>
      <point x="293" y="71"/>
      <point x="331" y="80"/>
      <point x="359" y="93"/>
      <point x="379" y="106"/>
      <point x="383" y="110" type="qcurve"/>
      <point x="405" y="40" type="line" name="hr01"/>
      <point x="401" y="36"/>
      <point x="377" y="22"/>
      <point x="341" y="7"/>
      <point x="292" y="-4"/>
      <point x="263" y="-4" type="qcurve"/>
      <point x="214" y="-4"/>
      <point x="130" y="26"/>
      <point x="69" y="86"/>
      <point x="35" y="177"/>
      <point x="35" y="237" type="qcurve"/>
      <point x="35" y="298"/>
      <point x="71" y="391"/>
      <point x="131" y="454"/>
      <point x="209" y="486"/>
      <point x="251" y="486" type="qcurve" name="mh02"/>
      <point x="283" y="486"/>
      <point x="340" y="468"/>
      <point x="383" y="434"/>
      <point x="408" y="384"/>
    </contour>
    <contour>
      <point x="245" y="410" type="qcurve"/>
      <point x="226" y="410"/>
      <point x="187" y="392"/>
      <point x="155" y="355"/>
      <point x="133" y="298"/>
      <point x="130" y="258" type="qcurve"/>
      <point x="155" y="258"/>
      <point x="219" y="263"/>
      <point x="275" y="281"/>
      <point x="313" y="318"/>
      <point x="313" y="351" type="qcurve"/>
      <point x="313" y="374"/>
      <point x="283" y="410"/>
    </contour>
  </outline>
</glyph>
<glyph name="icircumflex" format="1">
  <advance width="268"/>
  <unicode hex="00EE"/>
  <outline>
    <contour>
      <point x="114" y="695" type="line" name="hr00"/>
      <point x="138" y="695" type="line"/>
      <point x="263" y="545" type="line" name="mv01"/>
      <point x="258" y="537" type="line"/>
      <point x="191" y="537" type="line"/>
      <point x="125" y="591" type="line" name="mh01"/>
      <point x="58" y="537" type="line"/>
      <point x="-7" y="537" type="line"/>
      <point x="-11" y="544" type="line"/>
    </contour>
    <contour>
      <point x="184" y="70" type="line"/>
      <point x="243" y="54" type="line"/>
      <point x="243" y="0" type="line"/>
      <point x="43" y="0" type="line"/>
      <point x="32" y="54" type="line"/>
      <point x="94" y="68" type="line"/>
      <point x="94" y="408" type="line"/>
      <point x="39" y="404" type="line"/>
      <point x="29" y="464" type="line" name="mh02"/>
      <point x="152" y="486" type="line" name="mh03"/>
      <point x="184" y="454" type="line"/>
    </contour>
  </outline>
</glyph>
<glyph name="idieresis" format="1">
  <advance width="268"/>
  <unicode hex="00EF"/>
  <outline>
    <contour>
      <point x="138" y="627" type="qcurve" name="mh01"/>
      <point x="138" y="649"/>
      <point x="170" y="681"/>
      <point x="194" y="681" type="qcurve" name="mh02"/>
      <point x="216" y="681"/>
      <point x="249" y="648"/>
      <point x="249" y="627" type="qcurve" name="mh03"/>
      <point x="249" y="603"/>
      <point x="215" y="571"/>
      <point x="194" y="571" type="qcurve"/>
      <point x="170" y="571"/>
      <point x="138" y="604"/>
    </contour>
    <contour>
      <point x="-1" y="627" type="qcurve" name="mh04"/>
      <point x="-1" y="649"/>
      <point x="30" y="681"/>
      <point x="54" y="681" type="qcurve" name="mh05"/>
      <point x="77" y="681"/>
      <point x="109" y="648"/>
      <point x="109" y="627" type="qcurve"/>
      <point x="109" y="603"/>
      <point x="76" y="571"/>
      <point x="54" y="571" type="qcurve"/>
      <point x="30" y="571"/>
      <point x="-1" y="603"/>
    </contour>
    <contour>
      <point x="184" y="70" type="line"/>
      <point x="243" y="54" type="line"/>
      <point x="243" y="0" type="line"/>
      <point x="43" y="0" type="line"/>
      <point x="32" y="54" type="line"/>
      <point x="94" y="68" type="line"/>
      <point x="94" y="408" type="line"/>
      <point x="39" y="404" type="line"/>
      <point x="29" y="464" type="line"/>
      <point x="152" y="486" type="line" name="mh06"/>
      <point x="184" y="454" type="line" name="mh07"/>
    </contour>
  </outline>
</glyph>
<glyph name="eth" format="1">
  <advance width="511"/>
  <unicode hex="00F0"/>
  <outline>
    <contour>
      <point x="161" y="730" type="line" name="hr00"/>
      <point x="195" y="717"/>
      <point x="271" y="672"/>
      <point x="309" y="640" type="qcurve"/>
      <point x="416" y="713" type="line"/>
      <point x="465" y="633" type="line"/>
      <point x="368" y="578" type="line"/>
      <point x="409" y="528"/>
      <point x="464" y="400"/>
      <point x="469" y="320" type="qcurve"/>
      <point x="469" y="300" type="line"/>
      <point x="469" y="244"/>
      <point x="444" y="135"/>
      <point x="390" y="49"/>
      <point x="306" y="-4"/>
      <point x="247" y="-4" type="qcurve"/>
      <point x="191" y="-4"/>
      <point x="111" y="35"/>
      <point x="60" y="97"/>
      <point x="35" y="175"/>
      <point x="35" y="214" type="qcurve"/>
      <point x="35" y="260"/>
      <point x="63" y="342"/>
      <point x="114" y="405"/>
      <point x="186" y="442"/>
      <point x="231" y="442" type="qcurve" name="ah01"/>
      <point x="270" y="442"/>
      <point x="336" y="419"/>
      <point x="358" y="396" type="qcurve"/>
      <point x="346" y="437"/>
      <point x="307" y="503"/>
      <point x="282" y="530" type="qcurve"/>
      <point x="176" y="470" type="line"/>
      <point x="144" y="527" type="line"/>
      <point x="225" y="582" type="line"/>
      <point x="199" y="602"/>
      <point x="148" y="630"/>
      <point x="124" y="641" type="qcurve"/>
    </contour>
    <contour>
      <point x="248" y="82" type="qcurve"/>
      <point x="275" y="82"/>
      <point x="315" y="103"/>
      <point x="344" y="139"/>
      <point x="362" y="188"/>
      <point x="367" y="216" type="qcurve"/>
      <point x="367" y="254"/>
      <point x="345" y="307"/>
      <point x="311" y="341"/>
      <point x="265" y="357"/>
      <point x="241" y="357" type="qcurve"/>
      <point x="211" y="357"/>
      <point x="169" y="333"/>
      <point x="142" y="293"/>
      <point x="130" y="242"/>
      <point x="130" y="214" type="qcurve"/>
      <point x="130" y="153"/>
      <point x="196" y="82"/>
    </contour>
  </outline>
</glyph>
<glyph name="ntilde" format="1">
  <advance width="530"/>
  <unicode hex="00F1"/>
  <outline>
    <contour>
      <point x="449" y="71" type="line" name="hr00"/>
      <point x="509" y="54" type="line"/>
      <point x="509" y="0" type="line"/>
      <point x="310" y="0" type="line"/>
      <point x="298" y="54" type="line"/>
      <point x="359" y="68" type="line" name="mh01"/>
      <point x="359" y="331" type="line" name="mh02"/>
      <point x="359" y="376"/>
      <point x="317" y="409"/>
      <point x="285" y="409" type="qcurve"/>
      <point x="255" y="409"/>
      <point x="197" y="383"/>
      <point x="184" y="370" type="qcurve" name="mh03"/>
      <point x="184" y="70" type="line"/>
      <point x="242" y="54" type="line"/>
      <point x="242" y="0" type="line"/>
      <point x="43" y="0" type="line"/>
      <point x="31" y="54" type="line"/>
      <point x="94" y="68" type="line"/>
      <point x="94" y="408" type="line" name="mh04"/>
      <point x="39" y="404" type="line"/>
      <point x="29" y="464" type="line"/>
      <point x="42" y="466"/>
      <point x="76" y="473"/>
      <point x="110" y="479"/>
      <point x="142" y="484" name="mh05"/>
      <point x="152" y="486" type="qcurve" name="mh06"/>
      <point x="181" y="449" type="line"/>
      <point x="199" y="463"/>
      <point x="261" y="486"/>
      <point x="301" y="486" type="qcurve"/>
      <point x="332" y="486"/>
      <point x="387" y="471"/>
      <point x="426" y="437"/>
      <point x="449" y="384"/>
      <point x="449" y="346" type="qcurve" name="mh07"/>
    </contour>
    <contour>
      <point x="382" y="680" type="line"/>
      <point x="438" y="614" type="line"/>
      <point x="417" y="591"/>
      <point x="372" y="559"/>
      <point x="342" y="559" type="qcurve"/>
      <point x="325" y="559"/>
      <point x="296" y="571"/>
      <point x="269" y="584"/>
      <point x="243" y="596"/>
      <point x="228" y="596" type="qcurve"/>
      <point x="205" y="596"/>
      <point x="180" y="568"/>
      <point x="173" y="551" type="qcurve"/>
      <point x="120" y="585" type="line"/>
      <point x="120" y="595"/>
      <point x="133" y="627"/>
      <point x="159" y="655"/>
      <point x="199" y="676"/>
      <point x="226" y="676" type="qcurve" name="mh08"/>
      <point x="242" y="676"/>
      <point x="272" y="667"/>
      <point x="300" y="654"/>
      <point x="324" y="640"/>
      <point x="335" y="636" type="qcurve"/>
      <point x="336" y="633" type="line"/>
    </contour>
  </outline>
</glyph>
<glyph name="ograve" format="1">
  <advance width="495"/>
  <unicode hex="00F2"/>
  <outline>
    <contour>
      <point x="322" y="530" type="line" name="hr00"/>
      <point x="156" y="651" type="line"/>
      <point x="216" y="731" type="line" name="mh01"/>
      <point x="248" y="723" type="line"/>
      <point x="362" y="573" type="line"/>
    </contour>
    <contour>
      <point x="131" y="237" type="qcurve"/>
      <point x="131" y="275"/>
      <point x="146" y="339"/>
      <point x="175" y="385"/>
      <point x="219" y="411"/>
      <point x="248" y="411" type="qcurve"/>
      <point x="302" y="411"/>
      <point x="365" y="318"/>
      <point x="365" y="237" type="qcurve"/>
      <point x="365" y="152"/>
      <point x="299" y="71"/>
      <point x="248" y="71" type="qcurve"/>
      <point x="195" y="71"/>
      <point x="131" y="154"/>
    </contour>
    <contour>
      <point x="36" y="243" type="qcurve"/>
      <point x="36" y="187"/>
      <point x="67" y="96"/>
      <point x="124" y="31"/>
      <point x="201" y="-4"/>
      <point x="248" y="-4" type="qcurve"/>
      <point x="290" y="-4"/>
      <point x="367" y="28"/>
      <point x="426" y="91"/>
      <point x="460" y="183"/>
      <point x="460" y="243" type="qcurve"/>
      <point x="460" y="299"/>
      <point x="428" y="389"/>
      <point x="371" y="452"/>
      <point x="294" y="486"/>
      <point x="248" y="486" type="qcurve" name="mh02"/>
      <point x="206" y="486"/>
      <point x="129" y="455"/>
      <point x="70" y="393"/>
      <point x="36" y="303"/>
    </contour>
  </outline>
</glyph>
<glyph name="oacute" format="1">
  <advance width="495"/>
  <unicode hex="00F3"/>
  <outline>
    <contour>
      <point x="274" y="722" type="line" name="hr00"/>
      <point x="306" y="730" type="line"/>
      <point x="366" y="650" type="line"/>
      <point x="200" y="529" type="line"/>
      <point x="159" y="573" type="line"/>
    </contour>
    <contour>
      <point x="131" y="237" type="qcurve"/>
      <point x="131" y="154"/>
      <point x="195" y="71"/>
      <point x="248" y="71" type="qcurve"/>
      <point x="299" y="71"/>
      <point x="365" y="152"/>
      <point x="365" y="237" type="qcurve"/>
      <point x="365" y="318"/>
      <point x="302" y="411"/>
      <point x="248" y="411" type="qcurve"/>
      <point x="219" y="411"/>
      <point x="175" y="385"/>
      <point x="146" y="339"/>
      <point x="131" y="275"/>
    </contour>
    <contour>
      <point x="36" y="243" type="qcurve"/>
      <point x="36" y="303"/>
      <point x="70" y="393"/>
      <point x="129" y="455"/>
      <point x="206" y="486"/>
      <point x="248" y="486" type="qcurve" name="mh01"/>
      <point x="294" y="486"/>
      <point x="371" y="452"/>
      <point x="428" y="389"/>
      <point x="460" y="299"/>
      <point x="460" y="243" type="qcurve" name="mh02"/>
      <point x="460" y="183"/>
      <point x="426" y="91"/>
      <point x="367" y="28"/>
      <point x="290" y="-4"/>
      <point x="248" y="-4" type="qcurve"/>
      <point x="201" y="-4"/>
      <point x="124" y="31"/>
      <point x="67" y="96"/>
      <point x="36" y="187"/>
    </contour>
  </outline>
</glyph>
<glyph name="otilde" format="1">
  <advance width="494"/>
  <unicode hex="00F5"/>
  <outline>
    <contour>
      <point x="357" y="679" type="line" name="hr02"/>
      <point x="413" y="613" type="line"/>
      <point x="391" y="590"/>
      <point x="348" y="559"/>
      <point x="316" y="559" type="qcurve" name="mv01"/>
      <point x="299" y="559"/>
      <point x="270" y="570"/>
      <point x="244" y="584"/>
      <point x="217" y="595"/>
      <point x="202" y="595" type="qcurve" name="mh01"/>
      <point x="180" y="595"/>
      <point x="153" y="567"/>
      <point x="148" y="550" type="qcurve" name="hr01"/>
      <point x="94" y="584" type="line"/>
      <point x="94" y="594"/>
      <point x="107" y="626"/>
      <point x="134" y="655"/>
      <point x="173" y="676" name="mh02"/>
      <point x="200" y="676" type="qcurve" name="mh03"/>
      <point x="216" y="676"/>
      <point x="246" y="667" name="mv02"/>
      <point x="274" y="654"/>
      <point x="299" y="640" name="mv03"/>
      <point x="310" y="636" type="qcurve"/>
      <point x="311" y="633" type="line"/>
    </contour>
    <contour>
      <point x="131" y="237" type="qcurve" name="mh04"/>
      <point x="131" y="154"/>
      <point x="195" y="71"/>
      <point x="248" y="71" type="qcurve"/>
      <point x="299" y="71"/>
      <point x="365" y="152"/>
      <point x="365" y="237" type="qcurve"/>
      <point x="365" y="318"/>
      <point x="302" y="411"/>
      <point x="248" y="411" type="qcurve" name="ah02"/>
      <point x="219" y="411"/>
      <point x="175" y="385"/>
      <point x="146" y="339" name="mh05"/>
      <point x="131" y="275"/>
    </contour>
    <contour>
      <point x="36" y="243" type="qcurve" name="mh06"/>
      <point x="36" y="303"/>
      <point x="70" y="393"/>
      <point x="129" y="455"/>
      <point x="206" y="486"/>
      <point x="248" y="486" type="qcurve" name="ah01"/>
      <point x="294" y="486"/>
      <point x="371" y="452"/>
      <point x="428" y="389"/>
      <point x="460" y="299"/>
      <point x="460" y="243" type="qcurve" name="mh07"/>
      <point x="460" y="183"/>
      <point x="426" y="91"/>
      <point x="367" y="28"/>
      <point x="290" y="-4"/>
      <point x="248" y="-4" type="qcurve"/>
      <point x="201" y="-4"/>
      <point x="124" y="31"/>
      <point x="67" y="96"/>
      <point x="36" y="187"/>
    </contour>
  </outline>
</glyph>
<glyph name="odieresis" format="1">
  <advance width="494"/>
  <unicode hex="00F6"/>
  <outline>
    <contour>
      <point x="270" y="627" type="qcurve" name="hr00"/>
      <point x="270" y="649"/>
      <point x="301" y="681"/>
      <point x="325" y="681" type="qcurve"/>
      <point x="348" y="681"/>
      <point x="380" y="648"/>
      <point x="380" y="627" type="qcurve"/>
      <point x="380" y="603"/>
      <point x="347" y="571"/>
      <point x="325" y="571" type="qcurve" name="mv01"/>
      <point x="301" y="571"/>
      <point x="270" y="604"/>
    </contour>
    <contour>
      <point x="120" y="627" type="qcurve"/>
      <point x="120" y="649"/>
      <point x="151" y="681"/>
      <point x="175" y="681" type="qcurve"/>
      <point x="198" y="681"/>
      <point x="230" y="648"/>
      <point x="230" y="627" type="qcurve"/>
      <point x="230" y="603"/>
      <point x="197" y="571"/>
      <point x="175" y="571" type="qcurve" name="mv02"/>
      <point x="151" y="571"/>
      <point x="120" y="603"/>
    </contour>
    <contour>
      <point x="131" y="237" type="qcurve" name="mv03"/>
      <point x="131" y="154"/>
      <point x="195" y="71"/>
      <point x="248" y="71" type="qcurve"/>
      <point x="299" y="71"/>
      <point x="365" y="152"/>
      <point x="365" y="237" type="qcurve"/>
      <point x="365" y="318"/>
      <point x="302" y="411"/>
      <point x="248" y="411" type="qcurve"/>
      <point x="219" y="411"/>
      <point x="175" y="385"/>
      <point x="146" y="339"/>
      <point x="131" y="275"/>
    </contour>
    <contour>
      <point x="36" y="243" type="qcurve"/>
      <point x="36" y="303" name="mh01"/>
      <point x="70" y="393"/>
      <point x="129" y="455"/>
      <point x="206" y="486"/>
      <point x="248" y="486" type="qcurve" name="mh02"/>
      <point x="294" y="486"/>
      <point x="371" y="452" name="mh03"/>
      <point x="428" y="389"/>
      <point x="460" y="299" name="mv04"/>
      <point x="460" y="243" type="qcurve"/>
      <point x="460" y="183"/>
      <point x="426" y="91" name="mv05"/>
      <point x="367" y="28"/>
      <point x="290" y="-4"/>
      <point x="248" y="-4" type="qcurve"/>
      <point x="201" y="-4"/>
      <point x="124" y="31"/>
      <point x="67" y="96"/>
      <point x="36" y="187"/>
    </contour>
  </outline>
</glyph>
<glyph name="divide" format="1">
  <advance width="419"/>
  <unicode hex="00F7"/>
  <outline>
    <contour>
      <point x="160" y="139" type="qcurve" name="hr00"/>
      <point x="160" y="161"/>
      <point x="191" y="193"/>
      <point x="215" y="193" type="qcurve"/>
      <point x="238" y="193"/>
      <point x="270" y="160"/>
      <point x="270" y="139" type="qcurve"/>
      <point x="270" y="115"/>
      <point x="237" y="83"/>
      <point x="215" y="83" type="qcurve"/>
      <point x="191" y="83"/>
      <point x="160" y="116"/>
    </contour>
    <contour>
      <point x="160" y="448" type="qcurve"/>
      <point x="160" y="470"/>
      <point x="191" y="502"/>
      <point x="215" y="502" type="qcurve"/>
      <point x="238" y="502"/>
      <point x="270" y="469"/>
      <point x="270" y="448" type="qcurve"/>
      <point x="270" y="424"/>
      <point x="237" y="392"/>
      <point x="215" y="392" type="qcurve"/>
      <point x="191" y="392"/>
      <point x="160" y="424"/>
    </contour>
    <contour>
      <point x="374" y="330" type="line"/>
      <point x="374" y="254" type="line"/>
      <point x="45" y="254" type="line"/>
      <point x="45" y="330" type="line"/>
    </contour>
  </outline>
</glyph>
<glyph name="oslash" format="1">
  <advance width="494"/>
  <unicode hex="00F8"/>
  <outline>
    <contour>
      <point x="36" y="243" type="qcurve" name="hr00"/>
      <point x="36" y="303"/>
      <point x="71" y="393"/>
      <point x="129" y="455"/>
      <point x="206" y="486"/>
      <point x="248" y="486" type="qcurve"/>
      <point x="264" y="486" name="mh01"/>
      <point x="295" y="481"/>
      <point x="309" y="477" type="qcurve"/>
      <point x="362" y="593" type="line" name="ah01"/>
      <point x="447" y="593" type="line" name="ah02"/>
      <point x="447" y="589"/>
      <point x="446" y="583"/>
      <point x="446" y="580" type="qcurve"/>
      <point x="382" y="438" type="line"/>
      <point x="418" y="406"/>
      <point x="459" y="308"/>
      <point x="459" y="243" type="qcurve" name="mh02"/>
      <point x="459" y="183"/>
      <point x="425" y="91"/>
      <point x="366" y="28"/>
      <point x="290" y="-4"/>
      <point x="248" y="-4" type="qcurve"/>
      <point x="231" y="-4"/>
      <point x="200" y="1"/>
      <point x="186" y="5" type="qcurve"/>
      <point x="140" y="-98" type="line"/>
      <point x="58" y="-98" type="line"/>
      <point x="55" y="-85" type="line"/>
      <point x="114" y="45" type="line"/>
      <point x="77" y="77"/>
      <point x="36" y="178"/>
    </contour>
    <contour>
      <point x="364" y="237" type="qcurve" name="mh03"/>
      <point x="364" y="305"/>
      <point x="341" y="348" type="qcurve" name="mh04"/>
      <point x="218" y="75" type="line"/>
      <point x="230" y="71"/>
      <point x="248" y="71" type="qcurve"/>
      <point x="299" y="71"/>
      <point x="364" y="152"/>
    </contour>
    <contour>
      <point x="131" y="237" type="qcurve" name="mh05"/>
      <point x="131" y="169"/>
      <point x="152" y="130" type="qcurve"/>
      <point x="277" y="405" type="line" name="mh06"/>
      <point x="270" y="407"/>
      <point x="256" y="409"/>
      <point x="248" y="409" type="qcurve"/>
      <point x="190" y="409"/>
      <point x="131" y="313"/>
    </contour>
  </outline>
</glyph>
<glyph name="ucircumflex" format="1">
  <advance width="510"/>
  <unicode hex="00FB"/>
  <outline>
    <contour>
      <point x="22" y="406" type="line" name="hr00"/>
      <point x="12" y="464" type="line"/>
      <point x="136" y="486" type="line" name="ah02"/>
      <point x="167" y="453" type="line"/>
      <point x="167" y="182" type="line"/>
      <point x="167" y="145"/>
      <point x="182" y="102"/>
      <point x="206" y="79"/>
      <point x="237" y="72"/>
      <point x="254" y="72" type="qcurve"/>
      <point x="264" y="72"/>
      <point x="291" y="79"/>
      <point x="316" y="93"/>
      <point x="337" y="113"/>
      <point x="342" y="125" type="qcurve"/>
      <point x="342" y="406" type="line"/>
      <point x="290" y="406" type="line"/>
      <point x="281" y="464" type="line"/>
      <point x="403" y="487" type="line"/>
      <point x="432" y="453" type="line"/>
      <point x="432" y="100" type="line"/>
      <point x="432" y="79"/>
      <point x="442" y="67"/>
      <point x="450" y="67" type="qcurve"/>
      <point x="456" y="67"/>
      <point x="465" y="69"/>
      <point x="468" y="69" type="qcurve"/>
      <point x="482" y="24" type="line"/>
      <point x="474" y="16"/>
      <point x="442" y="-4"/>
      <point x="417" y="-4" type="qcurve"/>
      <point x="365" y="-4"/>
      <point x="349" y="41" type="qcurve"/>
      <point x="327" y="20"/>
      <point x="269" y="-4"/>
      <point x="237" y="-4" type="qcurve"/>
      <point x="205" y="-4"/>
      <point x="147" y="14"/>
      <point x="103" y="54"/>
      <point x="77" y="117"/>
      <point x="77" y="161" type="qcurve"/>
      <point x="77" y="406" type="line"/>
    </contour>
    <contour>
      <point x="223" y="695" type="line" name="ah01"/>
      <point x="247" y="695" type="line"/>
      <point x="372" y="545" type="line"/>
      <point x="367" y="537" type="line"/>
      <point x="300" y="537" type="line"/>
      <point x="234" y="591" type="line"/>
      <point x="167" y="537" type="line"/>
      <point x="102" y="537" type="line"/>
      <point x="98" y="544" type="line"/>
    </contour>
  </outline>
</glyph>
<glyph name="udieresis" format="1">
  <advance width="510"/>
  <unicode hex="00FC"/>
  <outline>
    <contour>
      <point x="125" y="627" type="qcurve" name="hr00"/>
      <point x="125" y="649"/>
      <point x="156" y="681"/>
      <point x="180" y="681" type="qcurve" name="ah02"/>
      <point x="203" y="681"/>
      <point x="235" y="648"/>
      <point x="235" y="627" type="qcurve"/>
      <point x="235" y="603"/>
      <point x="202" y="571"/>
      <point x="180" y="571" type="qcurve"/>
      <point x="156" y="571"/>
      <point x="125" y="603"/>
    </contour>
    <contour>
      <point x="275" y="627" type="qcurve"/>
      <point x="275" y="649"/>
      <point x="306" y="681"/>
      <point x="330" y="681" type="qcurve"/>
      <point x="353" y="681"/>
      <point x="385" y="648"/>
      <point x="385" y="627" type="qcurve"/>
      <point x="385" y="603"/>
      <point x="352" y="571"/>
      <point x="330" y="571" type="qcurve"/>
      <point x="306" y="571"/>
      <point x="275" y="604"/>
    </contour>
    <contour>
      <point x="22" y="406" type="line"/>
      <point x="12" y="464" type="line"/>
      <point x="136" y="486" type="line" name="ah01"/>
      <point x="167" y="453" type="line"/>
      <point x="167" y="182" type="line"/>
      <point x="167" y="145"/>
      <point x="182" y="102"/>
      <point x="206" y="79"/>
      <point x="237" y="72"/>
      <point x="254" y="72" type="qcurve"/>
      <point x="264" y="72"/>
      <point x="291" y="79"/>
      <point x="316" y="93"/>
      <point x="337" y="113"/>
      <point x="342" y="125" type="qcurve"/>
      <point x="342" y="406" type="line"/>
      <point x="290" y="406" type="line"/>
      <point x="281" y="464" type="line"/>
      <point x="403" y="487" type="line"/>
      <point x="432" y="453" type="line"/>
      <point x="432" y="100" type="line"/>
      <point x="432" y="79"/>
      <point x="442" y="67"/>
      <point x="450" y="67" type="qcurve"/>
      <point x="456" y="67"/>
      <point x="465" y="69"/>
      <point x="468" y="69" type="qcurve"/>
      <point x="482" y="24" type="line"/>
      <point x="474" y="16"/>
      <point x="442" y="-4"/>
      <point x="417" y="-4" type="qcurve"/>
      <point x="365" y="-4"/>
      <point x="349" y="41" type="qcurve"/>
      <point x="327" y="20"/>
      <point x="269" y="-4"/>
      <point x="237" y="-4" type="qcurve"/>
      <point x="205" y="-4"/>
      <point x="147" y="14"/>
      <point x="103" y="54"/>
      <point x="77" y="117"/>
      <point x="77" y="161" type="qcurve"/>
      <point x="77" y="406" type="line"/>
    </contour>
  </outline>
</glyph>
<glyph name="yacute" format="1">
  <advance width="480"/>
  <unicode hex="00FD"/>
  <outline>
    <contour>
      <point x="474" y="452" type="line" name="hr00"/>
      <point x="450" y="384"/>
      <point x="395" y="234"/>
      <point x="338" y="80"/>
      <point x="279" y="-73"/>
      <point x="251" y="-145" type="qcurve"/>
      <point x="242" y="-168"/>
      <point x="219" y="-215"/>
      <point x="188" y="-252"/>
      <point x="144" y="-275"/>
      <point x="114" y="-275" type="qcurve"/>
      <point x="88" y="-275"/>
      <point x="43" y="-251"/>
      <point x="25" y="-235" type="qcurve"/>
      <point x="62" y="-166" type="line"/>
      <point x="71" y="-177"/>
      <point x="103" y="-200"/>
      <point x="121" y="-200" type="qcurve"/>
      <point x="133" y="-200"/>
      <point x="153" y="-183"/>
      <point x="170" y="-156"/>
      <point x="183" y="-123"/>
      <point x="189" y="-108" type="qcurve"/>
      <point x="211" y="-49" type="line"/>
      <point x="49" y="416" type="line"/>
      <point x="9" y="416" type="line"/>
      <point x="1" y="478" type="line"/>
      <point x="125" y="486" type="line" name="mh01"/>
      <point x="260" y="81" type="line"/>
      <point x="386" y="416" type="line"/>
      <point x="334" y="416" type="line"/>
      <point x="327" y="477" type="line"/>
      <point x="448" y="486" type="line"/>
    </contour>
    <contour>
      <point x="253" y="722" type="line"/>
      <point x="285" y="730" type="line"/>
      <point x="345" y="650" type="line"/>
      <point x="179" y="529" type="line"/>
      <point x="138" y="573" type="line" name="mh02"/>
    </contour>
  </outline>
</glyph>
